%TF.GenerationSoftware,KiCad,Pcbnew,10.0.5*%
%TF.CreationDate,2026-08-19T20:51:01+05:30*%
%TF.ProjectId,p7,70372e6b-6963-4616-945f-706362585858,rev?*%
%TF.SameCoordinates,Original*%
%TF.FileFunction,Soldermask,Top*%
%TF.FilePolarity,Negative*%
%FSLAX46Y46*%
G04 Gerber Fmt 4.6, Leading zero omitted, Abs format (unit mm)*
G04 Created by KiCad (PCBNEW 10.0.5) date 2026-08-19 20:51:01*
%MOMM*%
%LPD*%
G01*
G04 APERTURE LIST*
G04 Aperture macros list*
%AMRoundRect*
0 Rectangle with rounded corners*
0 $1 Rounding radius*
0 $2 $3 $4 $5 $6 $7 $8 $9 X,Y pos of 4 corners*
0 Add a 4 corners polygon primitive as box body*
4,1,4,$2,$3,$4,$5,$6,$7,$8,$9,$2,$3,0*
0 Add four circle primitives for the rounded corners*
1,1,$1+$1,$2,$3*
1,1,$1+$1,$4,$5*
1,1,$1+$1,$6,$7*
1,1,$1+$1,$8,$9*
0 Add four rect primitives between the rounded corners*
20,1,$1+$1,$2,$3,$4,$5,0*
20,1,$1+$1,$4,$5,$6,$7,0*
20,1,$1+$1,$6,$7,$8,$9,0*
20,1,$1+$1,$8,$9,$2,$3,0*%
G04 Aperture macros list end*
%ADD10C,3.200000*%
%ADD11RoundRect,0.250000X-0.450000X0.262500X-0.450000X-0.262500X0.450000X-0.262500X0.450000X0.262500X0*%
%ADD12RoundRect,0.170000X0.680000X-0.680000X0.680000X0.680000X-0.680000X0.680000X-0.680000X-0.680000X0*%
%ADD13C,1.700000*%
%ADD14RoundRect,0.250000X-0.650000X0.325000X-0.650000X-0.325000X0.650000X-0.325000X0.650000X0.325000X0*%
%ADD15R,1.500000X0.900000*%
%ADD16R,0.900000X1.500000*%
%ADD17C,0.600000*%
%ADD18R,4.200000X4.200000*%
%ADD19RoundRect,0.250000X-0.262500X-0.450000X0.262500X-0.450000X0.262500X0.450000X-0.262500X0.450000X0*%
%ADD20RoundRect,0.250000X-0.475000X0.250000X-0.475000X-0.250000X0.475000X-0.250000X0.475000X0.250000X0*%
%ADD21RoundRect,0.375000X-0.625000X-0.375000X0.625000X-0.375000X0.625000X0.375000X-0.625000X0.375000X0*%
%ADD22RoundRect,0.500000X-0.500000X-1.400000X0.500000X-1.400000X0.500000X1.400000X-0.500000X1.400000X0*%
%ADD23R,1.700000X1.700000*%
%ADD24RoundRect,0.250000X0.262500X0.450000X-0.262500X0.450000X-0.262500X-0.450000X0.262500X-0.450000X0*%
%ADD25RoundRect,0.250000X-1.000000X-0.650000X1.000000X-0.650000X1.000000X0.650000X-1.000000X0.650000X0*%
%ADD26R,1.500000X1.500000*%
%ADD27C,1.500000*%
%ADD28RoundRect,0.150000X-0.587500X-0.150000X0.587500X-0.150000X0.587500X0.150000X-0.587500X0.150000X0*%
%ADD29C,2.000000*%
%ADD30RoundRect,0.250000X0.325000X0.650000X-0.325000X0.650000X-0.325000X-0.650000X0.325000X-0.650000X0*%
%ADD31R,1.800000X1.800000*%
%ADD32C,1.800000*%
%ADD33RoundRect,0.250000X0.475000X-0.250000X0.475000X0.250000X-0.475000X0.250000X-0.475000X-0.250000X0*%
%ADD34RoundRect,0.250000X0.650000X-0.325000X0.650000X0.325000X-0.650000X0.325000X-0.650000X-0.325000X0*%
G04 APERTURE END LIST*
D10*
%TO.C,H3*%
X196250000Y-130250000D03*
%TD*%
D11*
%TO.C,R3*%
X150250000Y-98250000D03*
X150250000Y-100075000D03*
%TD*%
%TO.C,R7*%
X134875000Y-111250000D03*
X134875000Y-113075000D03*
%TD*%
D10*
%TO.C,H4*%
X76750000Y-130250000D03*
%TD*%
D12*
%TO.C,U3*%
X160665000Y-98540000D03*
D13*
X160665000Y-96000000D03*
X160665000Y-93460000D03*
X160665000Y-90920000D03*
%TD*%
D14*
%TO.C,C2*%
X100150000Y-127000000D03*
X100150000Y-129950000D03*
%TD*%
D15*
%TO.C,U1*%
X108500000Y-90900000D03*
X108500000Y-92170000D03*
X108500000Y-93440000D03*
X108500000Y-94710000D03*
X108500000Y-95980000D03*
X108500000Y-97250000D03*
X108500000Y-98520000D03*
X108500000Y-99790000D03*
X108500000Y-101060000D03*
X108500000Y-102330000D03*
X108500000Y-103600000D03*
X108500000Y-104870000D03*
X108500000Y-106140000D03*
X108500000Y-107410000D03*
D16*
X111540000Y-108660000D03*
X112810000Y-108660000D03*
X114080000Y-108660000D03*
X115350000Y-108660000D03*
X116620000Y-108660000D03*
X117890000Y-108660000D03*
X119160000Y-108660000D03*
X120430000Y-108660000D03*
X121700000Y-108660000D03*
X122970000Y-108660000D03*
D15*
X126000000Y-107410000D03*
X126000000Y-106140000D03*
X126000000Y-104870000D03*
X126000000Y-103600000D03*
X126000000Y-102330000D03*
X126000000Y-101060000D03*
X126000000Y-99790000D03*
X126000000Y-98520000D03*
X126000000Y-97250000D03*
X126000000Y-95980000D03*
X126000000Y-94710000D03*
X126000000Y-93440000D03*
X126000000Y-92170000D03*
X126000000Y-90900000D03*
D17*
X115045000Y-97477500D03*
X115045000Y-99002500D03*
X115807500Y-96715000D03*
X115807500Y-98240000D03*
X115807500Y-99765000D03*
X116570000Y-97477500D03*
D18*
X116570000Y-98240000D03*
D17*
X116570000Y-99002500D03*
X117332500Y-96715000D03*
X117332500Y-98240000D03*
X117332500Y-99765000D03*
X118095000Y-97477500D03*
X118095000Y-99002500D03*
%TD*%
D19*
%TO.C,R5*%
X126087500Y-115250000D03*
X127912500Y-115250000D03*
%TD*%
D20*
%TO.C,C6*%
X89500000Y-90800000D03*
X89500000Y-92700000D03*
%TD*%
D21*
%TO.C,U4*%
X120000000Y-126200000D03*
X120000000Y-128500000D03*
D22*
X126300000Y-128500000D03*
D21*
X120000000Y-130800000D03*
%TD*%
D23*
%TO.C,J2*%
X93500000Y-108750000D03*
D13*
X93500000Y-111290000D03*
%TD*%
D24*
%TO.C,R8*%
X96500000Y-95300000D03*
X94675000Y-95300000D03*
%TD*%
D23*
%TO.C,J1*%
X89900000Y-127000000D03*
D13*
X89900000Y-129540000D03*
%TD*%
D25*
%TO.C,D2*%
X76500000Y-116250000D03*
X80500000Y-116250000D03*
%TD*%
D26*
%TO.C,U2*%
X149875000Y-112500000D03*
D27*
X149875000Y-115040000D03*
X149875000Y-117580000D03*
X149875000Y-120120000D03*
%TD*%
D28*
%TO.C,Q1*%
X85250000Y-109250000D03*
X85250000Y-111150000D03*
X87125000Y-110200000D03*
%TD*%
D29*
%TO.C,SW1*%
X76500000Y-89500000D03*
X83000000Y-89500000D03*
X76500000Y-94000000D03*
X83000000Y-94000000D03*
%TD*%
D20*
%TO.C,C3*%
X109300000Y-127000000D03*
X109300000Y-128900000D03*
%TD*%
D30*
%TO.C,C7*%
X103975000Y-92050000D03*
X101025000Y-92050000D03*
%TD*%
D11*
%TO.C,R1*%
X76250000Y-109250000D03*
X76250000Y-111075000D03*
%TD*%
D31*
%TO.C,D1*%
X100710000Y-111750000D03*
D32*
X103250000Y-111750000D03*
%TD*%
D11*
%TO.C,R2*%
X148165000Y-91920000D03*
X148165000Y-93745000D03*
%TD*%
D10*
%TO.C,H2*%
X196250000Y-70000000D03*
%TD*%
%TO.C,H1*%
X76250000Y-70000000D03*
%TD*%
D24*
%TO.C,R4*%
X78100000Y-102450000D03*
X76275000Y-102450000D03*
%TD*%
D33*
%TO.C,C5*%
X148900000Y-129650000D03*
X148900000Y-127750000D03*
%TD*%
D24*
%TO.C,R6*%
X103825000Y-103911250D03*
X102000000Y-103911250D03*
%TD*%
D29*
%TO.C,SW2*%
X113000000Y-115250000D03*
X119500000Y-115250000D03*
X113000000Y-119750000D03*
X119500000Y-119750000D03*
%TD*%
D34*
%TO.C,C4*%
X138650000Y-130450000D03*
X138650000Y-127500000D03*
%TD*%
D23*
%TO.C,J3*%
X136000000Y-92000000D03*
D13*
X136000000Y-94540000D03*
X136000000Y-97080000D03*
X136000000Y-99620000D03*
%TD*%
M02*
