%TF.GenerationSoftware,KiCad,Pcbnew,10.0.5*%
%TF.CreationDate,2026-08-19T20:51:00+05:30*%
%TF.ProjectId,p7,70372e6b-6963-4616-945f-706362585858,rev?*%
%TF.SameCoordinates,Original*%
%TF.FileFunction,Legend,Top*%
%TF.FilePolarity,Positive*%
%FSLAX46Y46*%
G04 Gerber Fmt 4.6, Leading zero omitted, Abs format (unit mm)*
G04 Created by KiCad (PCBNEW 10.0.5) date 2026-08-19 20:51:00*
%MOMM*%
%LPD*%
G01*
G04 APERTURE LIST*
%ADD10C,0.300000*%
%ADD11C,0.150000*%
%ADD12C,0.120000*%
G04 APERTURE END LIST*
D10*
X142554510Y-80265114D02*
X143054510Y-80265114D01*
X143268796Y-81050828D02*
X142554510Y-81050828D01*
X142554510Y-81050828D02*
X142554510Y-79550828D01*
X142554510Y-79550828D02*
X143268796Y-79550828D01*
X143840225Y-80979400D02*
X144054511Y-81050828D01*
X144054511Y-81050828D02*
X144411653Y-81050828D01*
X144411653Y-81050828D02*
X144554511Y-80979400D01*
X144554511Y-80979400D02*
X144625939Y-80907971D01*
X144625939Y-80907971D02*
X144697368Y-80765114D01*
X144697368Y-80765114D02*
X144697368Y-80622257D01*
X144697368Y-80622257D02*
X144625939Y-80479400D01*
X144625939Y-80479400D02*
X144554511Y-80407971D01*
X144554511Y-80407971D02*
X144411653Y-80336542D01*
X144411653Y-80336542D02*
X144125939Y-80265114D01*
X144125939Y-80265114D02*
X143983082Y-80193685D01*
X143983082Y-80193685D02*
X143911653Y-80122257D01*
X143911653Y-80122257D02*
X143840225Y-79979400D01*
X143840225Y-79979400D02*
X143840225Y-79836542D01*
X143840225Y-79836542D02*
X143911653Y-79693685D01*
X143911653Y-79693685D02*
X143983082Y-79622257D01*
X143983082Y-79622257D02*
X144125939Y-79550828D01*
X144125939Y-79550828D02*
X144483082Y-79550828D01*
X144483082Y-79550828D02*
X144697368Y-79622257D01*
X145340224Y-81050828D02*
X145340224Y-79550828D01*
X145340224Y-79550828D02*
X145911653Y-79550828D01*
X145911653Y-79550828D02*
X146054510Y-79622257D01*
X146054510Y-79622257D02*
X146125939Y-79693685D01*
X146125939Y-79693685D02*
X146197367Y-79836542D01*
X146197367Y-79836542D02*
X146197367Y-80050828D01*
X146197367Y-80050828D02*
X146125939Y-80193685D01*
X146125939Y-80193685D02*
X146054510Y-80265114D01*
X146054510Y-80265114D02*
X145911653Y-80336542D01*
X145911653Y-80336542D02*
X145340224Y-80336542D01*
X146697367Y-79550828D02*
X147625939Y-79550828D01*
X147625939Y-79550828D02*
X147125939Y-80122257D01*
X147125939Y-80122257D02*
X147340224Y-80122257D01*
X147340224Y-80122257D02*
X147483082Y-80193685D01*
X147483082Y-80193685D02*
X147554510Y-80265114D01*
X147554510Y-80265114D02*
X147625939Y-80407971D01*
X147625939Y-80407971D02*
X147625939Y-80765114D01*
X147625939Y-80765114D02*
X147554510Y-80907971D01*
X147554510Y-80907971D02*
X147483082Y-80979400D01*
X147483082Y-80979400D02*
X147340224Y-81050828D01*
X147340224Y-81050828D02*
X146911653Y-81050828D01*
X146911653Y-81050828D02*
X146768796Y-80979400D01*
X146768796Y-80979400D02*
X146697367Y-80907971D01*
X148197367Y-79693685D02*
X148268795Y-79622257D01*
X148268795Y-79622257D02*
X148411653Y-79550828D01*
X148411653Y-79550828D02*
X148768795Y-79550828D01*
X148768795Y-79550828D02*
X148911653Y-79622257D01*
X148911653Y-79622257D02*
X148983081Y-79693685D01*
X148983081Y-79693685D02*
X149054510Y-79836542D01*
X149054510Y-79836542D02*
X149054510Y-79979400D01*
X149054510Y-79979400D02*
X148983081Y-80193685D01*
X148983081Y-80193685D02*
X148125938Y-81050828D01*
X148125938Y-81050828D02*
X149054510Y-81050828D01*
X150768795Y-80979400D02*
X150983081Y-81050828D01*
X150983081Y-81050828D02*
X151340223Y-81050828D01*
X151340223Y-81050828D02*
X151483081Y-80979400D01*
X151483081Y-80979400D02*
X151554509Y-80907971D01*
X151554509Y-80907971D02*
X151625938Y-80765114D01*
X151625938Y-80765114D02*
X151625938Y-80622257D01*
X151625938Y-80622257D02*
X151554509Y-80479400D01*
X151554509Y-80479400D02*
X151483081Y-80407971D01*
X151483081Y-80407971D02*
X151340223Y-80336542D01*
X151340223Y-80336542D02*
X151054509Y-80265114D01*
X151054509Y-80265114D02*
X150911652Y-80193685D01*
X150911652Y-80193685D02*
X150840223Y-80122257D01*
X150840223Y-80122257D02*
X150768795Y-79979400D01*
X150768795Y-79979400D02*
X150768795Y-79836542D01*
X150768795Y-79836542D02*
X150840223Y-79693685D01*
X150840223Y-79693685D02*
X150911652Y-79622257D01*
X150911652Y-79622257D02*
X151054509Y-79550828D01*
X151054509Y-79550828D02*
X151411652Y-79550828D01*
X151411652Y-79550828D02*
X151625938Y-79622257D01*
X152268794Y-81050828D02*
X152268794Y-79550828D01*
X152268794Y-79550828D02*
X152768794Y-80622257D01*
X152768794Y-80622257D02*
X153268794Y-79550828D01*
X153268794Y-79550828D02*
X153268794Y-81050828D01*
X153911652Y-80622257D02*
X154625938Y-80622257D01*
X153768795Y-81050828D02*
X154268795Y-79550828D01*
X154268795Y-79550828D02*
X154768795Y-81050828D01*
X156125937Y-81050828D02*
X155625937Y-80336542D01*
X155268794Y-81050828D02*
X155268794Y-79550828D01*
X155268794Y-79550828D02*
X155840223Y-79550828D01*
X155840223Y-79550828D02*
X155983080Y-79622257D01*
X155983080Y-79622257D02*
X156054509Y-79693685D01*
X156054509Y-79693685D02*
X156125937Y-79836542D01*
X156125937Y-79836542D02*
X156125937Y-80050828D01*
X156125937Y-80050828D02*
X156054509Y-80193685D01*
X156054509Y-80193685D02*
X155983080Y-80265114D01*
X155983080Y-80265114D02*
X155840223Y-80336542D01*
X155840223Y-80336542D02*
X155268794Y-80336542D01*
X156554509Y-79550828D02*
X157411652Y-79550828D01*
X156983080Y-81050828D02*
X156983080Y-79550828D01*
X158840223Y-79550828D02*
X159697366Y-79550828D01*
X159268794Y-81050828D02*
X159268794Y-79550828D01*
X160197365Y-80265114D02*
X160697365Y-80265114D01*
X160911651Y-81050828D02*
X160197365Y-81050828D01*
X160197365Y-81050828D02*
X160197365Y-79550828D01*
X160197365Y-79550828D02*
X160911651Y-79550828D01*
X161554508Y-81050828D02*
X161554508Y-79550828D01*
X161554508Y-79550828D02*
X162054508Y-80622257D01*
X162054508Y-80622257D02*
X162554508Y-79550828D01*
X162554508Y-79550828D02*
X162554508Y-81050828D01*
X163268794Y-81050828D02*
X163268794Y-79550828D01*
X163268794Y-79550828D02*
X163840223Y-79550828D01*
X163840223Y-79550828D02*
X163983080Y-79622257D01*
X163983080Y-79622257D02*
X164054509Y-79693685D01*
X164054509Y-79693685D02*
X164125937Y-79836542D01*
X164125937Y-79836542D02*
X164125937Y-80050828D01*
X164125937Y-80050828D02*
X164054509Y-80193685D01*
X164054509Y-80193685D02*
X163983080Y-80265114D01*
X163983080Y-80265114D02*
X163840223Y-80336542D01*
X163840223Y-80336542D02*
X163268794Y-80336542D01*
X164768794Y-80265114D02*
X165268794Y-80265114D01*
X165483080Y-81050828D02*
X164768794Y-81050828D01*
X164768794Y-81050828D02*
X164768794Y-79550828D01*
X164768794Y-79550828D02*
X165483080Y-79550828D01*
X166983080Y-81050828D02*
X166483080Y-80336542D01*
X166125937Y-81050828D02*
X166125937Y-79550828D01*
X166125937Y-79550828D02*
X166697366Y-79550828D01*
X166697366Y-79550828D02*
X166840223Y-79622257D01*
X166840223Y-79622257D02*
X166911652Y-79693685D01*
X166911652Y-79693685D02*
X166983080Y-79836542D01*
X166983080Y-79836542D02*
X166983080Y-80050828D01*
X166983080Y-80050828D02*
X166911652Y-80193685D01*
X166911652Y-80193685D02*
X166840223Y-80265114D01*
X166840223Y-80265114D02*
X166697366Y-80336542D01*
X166697366Y-80336542D02*
X166125937Y-80336542D01*
X167554509Y-80622257D02*
X168268795Y-80622257D01*
X167411652Y-81050828D02*
X167911652Y-79550828D01*
X167911652Y-79550828D02*
X168411652Y-81050828D01*
X168697366Y-79550828D02*
X169554509Y-79550828D01*
X169125937Y-81050828D02*
X169125937Y-79550828D01*
X170054508Y-79550828D02*
X170054508Y-80765114D01*
X170054508Y-80765114D02*
X170125937Y-80907971D01*
X170125937Y-80907971D02*
X170197366Y-80979400D01*
X170197366Y-80979400D02*
X170340223Y-81050828D01*
X170340223Y-81050828D02*
X170625937Y-81050828D01*
X170625937Y-81050828D02*
X170768794Y-80979400D01*
X170768794Y-80979400D02*
X170840223Y-80907971D01*
X170840223Y-80907971D02*
X170911651Y-80765114D01*
X170911651Y-80765114D02*
X170911651Y-79550828D01*
X172483080Y-81050828D02*
X171983080Y-80336542D01*
X171625937Y-81050828D02*
X171625937Y-79550828D01*
X171625937Y-79550828D02*
X172197366Y-79550828D01*
X172197366Y-79550828D02*
X172340223Y-79622257D01*
X172340223Y-79622257D02*
X172411652Y-79693685D01*
X172411652Y-79693685D02*
X172483080Y-79836542D01*
X172483080Y-79836542D02*
X172483080Y-80050828D01*
X172483080Y-80050828D02*
X172411652Y-80193685D01*
X172411652Y-80193685D02*
X172340223Y-80265114D01*
X172340223Y-80265114D02*
X172197366Y-80336542D01*
X172197366Y-80336542D02*
X171625937Y-80336542D01*
X173125937Y-80265114D02*
X173625937Y-80265114D01*
X173840223Y-81050828D02*
X173125937Y-81050828D01*
X173125937Y-81050828D02*
X173125937Y-79550828D01*
X173125937Y-79550828D02*
X173840223Y-79550828D01*
X176840223Y-81050828D02*
X176768795Y-81050828D01*
X176768795Y-81050828D02*
X176625937Y-80979400D01*
X176625937Y-80979400D02*
X176411652Y-80765114D01*
X176411652Y-80765114D02*
X176054509Y-80336542D01*
X176054509Y-80336542D02*
X175911652Y-80122257D01*
X175911652Y-80122257D02*
X175840223Y-79907971D01*
X175840223Y-79907971D02*
X175840223Y-79765114D01*
X175840223Y-79765114D02*
X175911652Y-79622257D01*
X175911652Y-79622257D02*
X176054509Y-79550828D01*
X176054509Y-79550828D02*
X176125937Y-79550828D01*
X176125937Y-79550828D02*
X176268795Y-79622257D01*
X176268795Y-79622257D02*
X176340223Y-79765114D01*
X176340223Y-79765114D02*
X176340223Y-79836542D01*
X176340223Y-79836542D02*
X176268795Y-79979400D01*
X176268795Y-79979400D02*
X176197366Y-80050828D01*
X176197366Y-80050828D02*
X175768795Y-80336542D01*
X175768795Y-80336542D02*
X175697366Y-80407971D01*
X175697366Y-80407971D02*
X175625937Y-80550828D01*
X175625937Y-80550828D02*
X175625937Y-80765114D01*
X175625937Y-80765114D02*
X175697366Y-80907971D01*
X175697366Y-80907971D02*
X175768795Y-80979400D01*
X175768795Y-80979400D02*
X175911652Y-81050828D01*
X175911652Y-81050828D02*
X176125937Y-81050828D01*
X176125937Y-81050828D02*
X176268795Y-80979400D01*
X176268795Y-80979400D02*
X176340223Y-80907971D01*
X176340223Y-80907971D02*
X176554509Y-80622257D01*
X176554509Y-80622257D02*
X176625937Y-80407971D01*
X176625937Y-80407971D02*
X176625937Y-80265114D01*
X179125937Y-80265114D02*
X178625937Y-80265114D01*
X178625937Y-81050828D02*
X178625937Y-79550828D01*
X178625937Y-79550828D02*
X179340223Y-79550828D01*
X179840223Y-80622257D02*
X180554509Y-80622257D01*
X179697366Y-81050828D02*
X180197366Y-79550828D01*
X180197366Y-79550828D02*
X180697366Y-81050828D01*
X181197365Y-81050828D02*
X181197365Y-79550828D01*
X181197365Y-79550828D02*
X182054508Y-81050828D01*
X182054508Y-81050828D02*
X182054508Y-79550828D01*
X184768794Y-80907971D02*
X184697366Y-80979400D01*
X184697366Y-80979400D02*
X184483080Y-81050828D01*
X184483080Y-81050828D02*
X184340223Y-81050828D01*
X184340223Y-81050828D02*
X184125937Y-80979400D01*
X184125937Y-80979400D02*
X183983080Y-80836542D01*
X183983080Y-80836542D02*
X183911651Y-80693685D01*
X183911651Y-80693685D02*
X183840223Y-80407971D01*
X183840223Y-80407971D02*
X183840223Y-80193685D01*
X183840223Y-80193685D02*
X183911651Y-79907971D01*
X183911651Y-79907971D02*
X183983080Y-79765114D01*
X183983080Y-79765114D02*
X184125937Y-79622257D01*
X184125937Y-79622257D02*
X184340223Y-79550828D01*
X184340223Y-79550828D02*
X184483080Y-79550828D01*
X184483080Y-79550828D02*
X184697366Y-79622257D01*
X184697366Y-79622257D02*
X184768794Y-79693685D01*
X185697366Y-79550828D02*
X185983080Y-79550828D01*
X185983080Y-79550828D02*
X186125937Y-79622257D01*
X186125937Y-79622257D02*
X186268794Y-79765114D01*
X186268794Y-79765114D02*
X186340223Y-80050828D01*
X186340223Y-80050828D02*
X186340223Y-80550828D01*
X186340223Y-80550828D02*
X186268794Y-80836542D01*
X186268794Y-80836542D02*
X186125937Y-80979400D01*
X186125937Y-80979400D02*
X185983080Y-81050828D01*
X185983080Y-81050828D02*
X185697366Y-81050828D01*
X185697366Y-81050828D02*
X185554509Y-80979400D01*
X185554509Y-80979400D02*
X185411651Y-80836542D01*
X185411651Y-80836542D02*
X185340223Y-80550828D01*
X185340223Y-80550828D02*
X185340223Y-80050828D01*
X185340223Y-80050828D02*
X185411651Y-79765114D01*
X185411651Y-79765114D02*
X185554509Y-79622257D01*
X185554509Y-79622257D02*
X185697366Y-79550828D01*
X186983080Y-81050828D02*
X186983080Y-79550828D01*
X186983080Y-79550828D02*
X187840223Y-81050828D01*
X187840223Y-81050828D02*
X187840223Y-79550828D01*
X188340224Y-79550828D02*
X189197367Y-79550828D01*
X188768795Y-81050828D02*
X188768795Y-79550828D01*
X190554509Y-81050828D02*
X190054509Y-80336542D01*
X189697366Y-81050828D02*
X189697366Y-79550828D01*
X189697366Y-79550828D02*
X190268795Y-79550828D01*
X190268795Y-79550828D02*
X190411652Y-79622257D01*
X190411652Y-79622257D02*
X190483081Y-79693685D01*
X190483081Y-79693685D02*
X190554509Y-79836542D01*
X190554509Y-79836542D02*
X190554509Y-80050828D01*
X190554509Y-80050828D02*
X190483081Y-80193685D01*
X190483081Y-80193685D02*
X190411652Y-80265114D01*
X190411652Y-80265114D02*
X190268795Y-80336542D01*
X190268795Y-80336542D02*
X189697366Y-80336542D01*
X191483081Y-79550828D02*
X191768795Y-79550828D01*
X191768795Y-79550828D02*
X191911652Y-79622257D01*
X191911652Y-79622257D02*
X192054509Y-79765114D01*
X192054509Y-79765114D02*
X192125938Y-80050828D01*
X192125938Y-80050828D02*
X192125938Y-80550828D01*
X192125938Y-80550828D02*
X192054509Y-80836542D01*
X192054509Y-80836542D02*
X191911652Y-80979400D01*
X191911652Y-80979400D02*
X191768795Y-81050828D01*
X191768795Y-81050828D02*
X191483081Y-81050828D01*
X191483081Y-81050828D02*
X191340224Y-80979400D01*
X191340224Y-80979400D02*
X191197366Y-80836542D01*
X191197366Y-80836542D02*
X191125938Y-80550828D01*
X191125938Y-80550828D02*
X191125938Y-80050828D01*
X191125938Y-80050828D02*
X191197366Y-79765114D01*
X191197366Y-79765114D02*
X191340224Y-79622257D01*
X191340224Y-79622257D02*
X191483081Y-79550828D01*
X193483081Y-81050828D02*
X192768795Y-81050828D01*
X192768795Y-81050828D02*
X192768795Y-79550828D01*
X194697367Y-81050828D02*
X193983081Y-81050828D01*
X193983081Y-81050828D02*
X193983081Y-79550828D01*
X195197367Y-80265114D02*
X195697367Y-80265114D01*
X195911653Y-81050828D02*
X195197367Y-81050828D01*
X195197367Y-81050828D02*
X195197367Y-79550828D01*
X195197367Y-79550828D02*
X195911653Y-79550828D01*
X197411653Y-81050828D02*
X196911653Y-80336542D01*
X196554510Y-81050828D02*
X196554510Y-79550828D01*
X196554510Y-79550828D02*
X197125939Y-79550828D01*
X197125939Y-79550828D02*
X197268796Y-79622257D01*
X197268796Y-79622257D02*
X197340225Y-79693685D01*
X197340225Y-79693685D02*
X197411653Y-79836542D01*
X197411653Y-79836542D02*
X197411653Y-80050828D01*
X197411653Y-80050828D02*
X197340225Y-80193685D01*
X197340225Y-80193685D02*
X197268796Y-80265114D01*
X197268796Y-80265114D02*
X197125939Y-80336542D01*
X197125939Y-80336542D02*
X196554510Y-80336542D01*
X172590225Y-117550828D02*
X173090225Y-119050828D01*
X173090225Y-119050828D02*
X173590225Y-117550828D01*
X174090224Y-119050828D02*
X174090224Y-117550828D01*
X174090224Y-117550828D02*
X174447367Y-117550828D01*
X174447367Y-117550828D02*
X174661653Y-117622257D01*
X174661653Y-117622257D02*
X174804510Y-117765114D01*
X174804510Y-117765114D02*
X174875939Y-117907971D01*
X174875939Y-117907971D02*
X174947367Y-118193685D01*
X174947367Y-118193685D02*
X174947367Y-118407971D01*
X174947367Y-118407971D02*
X174875939Y-118693685D01*
X174875939Y-118693685D02*
X174804510Y-118836542D01*
X174804510Y-118836542D02*
X174661653Y-118979400D01*
X174661653Y-118979400D02*
X174447367Y-119050828D01*
X174447367Y-119050828D02*
X174090224Y-119050828D01*
X175590224Y-118265114D02*
X176090224Y-118265114D01*
X176304510Y-119050828D02*
X175590224Y-119050828D01*
X175590224Y-119050828D02*
X175590224Y-117550828D01*
X175590224Y-117550828D02*
X176304510Y-117550828D01*
X176875939Y-118979400D02*
X177090225Y-119050828D01*
X177090225Y-119050828D02*
X177447367Y-119050828D01*
X177447367Y-119050828D02*
X177590225Y-118979400D01*
X177590225Y-118979400D02*
X177661653Y-118907971D01*
X177661653Y-118907971D02*
X177733082Y-118765114D01*
X177733082Y-118765114D02*
X177733082Y-118622257D01*
X177733082Y-118622257D02*
X177661653Y-118479400D01*
X177661653Y-118479400D02*
X177590225Y-118407971D01*
X177590225Y-118407971D02*
X177447367Y-118336542D01*
X177447367Y-118336542D02*
X177161653Y-118265114D01*
X177161653Y-118265114D02*
X177018796Y-118193685D01*
X177018796Y-118193685D02*
X176947367Y-118122257D01*
X176947367Y-118122257D02*
X176875939Y-117979400D01*
X176875939Y-117979400D02*
X176875939Y-117836542D01*
X176875939Y-117836542D02*
X176947367Y-117693685D01*
X176947367Y-117693685D02*
X177018796Y-117622257D01*
X177018796Y-117622257D02*
X177161653Y-117550828D01*
X177161653Y-117550828D02*
X177518796Y-117550828D01*
X177518796Y-117550828D02*
X177733082Y-117622257D01*
X178375938Y-119050828D02*
X178375938Y-117550828D01*
X179875939Y-117622257D02*
X179733082Y-117550828D01*
X179733082Y-117550828D02*
X179518796Y-117550828D01*
X179518796Y-117550828D02*
X179304510Y-117622257D01*
X179304510Y-117622257D02*
X179161653Y-117765114D01*
X179161653Y-117765114D02*
X179090224Y-117907971D01*
X179090224Y-117907971D02*
X179018796Y-118193685D01*
X179018796Y-118193685D02*
X179018796Y-118407971D01*
X179018796Y-118407971D02*
X179090224Y-118693685D01*
X179090224Y-118693685D02*
X179161653Y-118836542D01*
X179161653Y-118836542D02*
X179304510Y-118979400D01*
X179304510Y-118979400D02*
X179518796Y-119050828D01*
X179518796Y-119050828D02*
X179661653Y-119050828D01*
X179661653Y-119050828D02*
X179875939Y-118979400D01*
X179875939Y-118979400D02*
X179947367Y-118907971D01*
X179947367Y-118907971D02*
X179947367Y-118407971D01*
X179947367Y-118407971D02*
X179661653Y-118407971D01*
X180590224Y-119050828D02*
X180590224Y-117550828D01*
X180590224Y-117550828D02*
X181447367Y-119050828D01*
X181447367Y-119050828D02*
X181447367Y-117550828D01*
D11*
X192238095Y-130704819D02*
X192238095Y-129704819D01*
X192238095Y-130181009D02*
X192809523Y-130181009D01*
X192809523Y-130704819D02*
X192809523Y-129704819D01*
X193190476Y-129704819D02*
X193809523Y-129704819D01*
X193809523Y-129704819D02*
X193476190Y-130085771D01*
X193476190Y-130085771D02*
X193619047Y-130085771D01*
X193619047Y-130085771D02*
X193714285Y-130133390D01*
X193714285Y-130133390D02*
X193761904Y-130181009D01*
X193761904Y-130181009D02*
X193809523Y-130276247D01*
X193809523Y-130276247D02*
X193809523Y-130514342D01*
X193809523Y-130514342D02*
X193761904Y-130609580D01*
X193761904Y-130609580D02*
X193714285Y-130657200D01*
X193714285Y-130657200D02*
X193619047Y-130704819D01*
X193619047Y-130704819D02*
X193333333Y-130704819D01*
X193333333Y-130704819D02*
X193238095Y-130657200D01*
X193238095Y-130657200D02*
X193190476Y-130609580D01*
X152354819Y-98916666D02*
X151878628Y-99249999D01*
X152354819Y-99488094D02*
X151354819Y-99488094D01*
X151354819Y-99488094D02*
X151354819Y-99107142D01*
X151354819Y-99107142D02*
X151402438Y-99011904D01*
X151402438Y-99011904D02*
X151450057Y-98964285D01*
X151450057Y-98964285D02*
X151545295Y-98916666D01*
X151545295Y-98916666D02*
X151688152Y-98916666D01*
X151688152Y-98916666D02*
X151783390Y-98964285D01*
X151783390Y-98964285D02*
X151831009Y-99011904D01*
X151831009Y-99011904D02*
X151878628Y-99107142D01*
X151878628Y-99107142D02*
X151878628Y-99488094D01*
X151354819Y-98583332D02*
X151354819Y-97964285D01*
X151354819Y-97964285D02*
X151735771Y-98297618D01*
X151735771Y-98297618D02*
X151735771Y-98154761D01*
X151735771Y-98154761D02*
X151783390Y-98059523D01*
X151783390Y-98059523D02*
X151831009Y-98011904D01*
X151831009Y-98011904D02*
X151926247Y-97964285D01*
X151926247Y-97964285D02*
X152164342Y-97964285D01*
X152164342Y-97964285D02*
X152259580Y-98011904D01*
X152259580Y-98011904D02*
X152307200Y-98059523D01*
X152307200Y-98059523D02*
X152354819Y-98154761D01*
X152354819Y-98154761D02*
X152354819Y-98440475D01*
X152354819Y-98440475D02*
X152307200Y-98535713D01*
X152307200Y-98535713D02*
X152259580Y-98583332D01*
X146571428Y-99288152D02*
X146571428Y-99954819D01*
X146333333Y-98907200D02*
X146095238Y-99621485D01*
X146095238Y-99621485D02*
X146714285Y-99621485D01*
X147095238Y-99859580D02*
X147142857Y-99907200D01*
X147142857Y-99907200D02*
X147095238Y-99954819D01*
X147095238Y-99954819D02*
X147047619Y-99907200D01*
X147047619Y-99907200D02*
X147095238Y-99859580D01*
X147095238Y-99859580D02*
X147095238Y-99954819D01*
X147476190Y-98954819D02*
X148142856Y-98954819D01*
X148142856Y-98954819D02*
X147714285Y-99954819D01*
X148523809Y-99954819D02*
X148523809Y-98954819D01*
X148619047Y-99573866D02*
X148904761Y-99954819D01*
X148904761Y-99288152D02*
X148523809Y-99669104D01*
X136704819Y-115166666D02*
X136228628Y-115499999D01*
X136704819Y-115738094D02*
X135704819Y-115738094D01*
X135704819Y-115738094D02*
X135704819Y-115357142D01*
X135704819Y-115357142D02*
X135752438Y-115261904D01*
X135752438Y-115261904D02*
X135800057Y-115214285D01*
X135800057Y-115214285D02*
X135895295Y-115166666D01*
X135895295Y-115166666D02*
X136038152Y-115166666D01*
X136038152Y-115166666D02*
X136133390Y-115214285D01*
X136133390Y-115214285D02*
X136181009Y-115261904D01*
X136181009Y-115261904D02*
X136228628Y-115357142D01*
X136228628Y-115357142D02*
X136228628Y-115738094D01*
X135704819Y-114833332D02*
X135704819Y-114166666D01*
X135704819Y-114166666D02*
X136704819Y-114595237D01*
X133679819Y-112757738D02*
X133679819Y-113329166D01*
X133679819Y-113043452D02*
X132679819Y-113043452D01*
X132679819Y-113043452D02*
X132822676Y-113138690D01*
X132822676Y-113138690D02*
X132917914Y-113233928D01*
X132917914Y-113233928D02*
X132965533Y-113329166D01*
X132679819Y-112138690D02*
X132679819Y-112043452D01*
X132679819Y-112043452D02*
X132727438Y-111948214D01*
X132727438Y-111948214D02*
X132775057Y-111900595D01*
X132775057Y-111900595D02*
X132870295Y-111852976D01*
X132870295Y-111852976D02*
X133060771Y-111805357D01*
X133060771Y-111805357D02*
X133298866Y-111805357D01*
X133298866Y-111805357D02*
X133489342Y-111852976D01*
X133489342Y-111852976D02*
X133584580Y-111900595D01*
X133584580Y-111900595D02*
X133632200Y-111948214D01*
X133632200Y-111948214D02*
X133679819Y-112043452D01*
X133679819Y-112043452D02*
X133679819Y-112138690D01*
X133679819Y-112138690D02*
X133632200Y-112233928D01*
X133632200Y-112233928D02*
X133584580Y-112281547D01*
X133584580Y-112281547D02*
X133489342Y-112329166D01*
X133489342Y-112329166D02*
X133298866Y-112376785D01*
X133298866Y-112376785D02*
X133060771Y-112376785D01*
X133060771Y-112376785D02*
X132870295Y-112329166D01*
X132870295Y-112329166D02*
X132775057Y-112281547D01*
X132775057Y-112281547D02*
X132727438Y-112233928D01*
X132727438Y-112233928D02*
X132679819Y-112138690D01*
X133679819Y-111376785D02*
X132679819Y-111376785D01*
X133298866Y-111281547D02*
X133679819Y-110995833D01*
X133013152Y-110995833D02*
X133394104Y-111376785D01*
X79238095Y-130704819D02*
X79238095Y-129704819D01*
X79238095Y-130181009D02*
X79809523Y-130181009D01*
X79809523Y-130704819D02*
X79809523Y-129704819D01*
X80714285Y-130038152D02*
X80714285Y-130704819D01*
X80476190Y-129657200D02*
X80238095Y-130371485D01*
X80238095Y-130371485D02*
X80857142Y-130371485D01*
X157704819Y-93011904D02*
X158514342Y-93011904D01*
X158514342Y-93011904D02*
X158609580Y-92964285D01*
X158609580Y-92964285D02*
X158657200Y-92916666D01*
X158657200Y-92916666D02*
X158704819Y-92821428D01*
X158704819Y-92821428D02*
X158704819Y-92630952D01*
X158704819Y-92630952D02*
X158657200Y-92535714D01*
X158657200Y-92535714D02*
X158609580Y-92488095D01*
X158609580Y-92488095D02*
X158514342Y-92440476D01*
X158514342Y-92440476D02*
X157704819Y-92440476D01*
X157704819Y-92059523D02*
X157704819Y-91440476D01*
X157704819Y-91440476D02*
X158085771Y-91773809D01*
X158085771Y-91773809D02*
X158085771Y-91630952D01*
X158085771Y-91630952D02*
X158133390Y-91535714D01*
X158133390Y-91535714D02*
X158181009Y-91488095D01*
X158181009Y-91488095D02*
X158276247Y-91440476D01*
X158276247Y-91440476D02*
X158514342Y-91440476D01*
X158514342Y-91440476D02*
X158609580Y-91488095D01*
X158609580Y-91488095D02*
X158657200Y-91535714D01*
X158657200Y-91535714D02*
X158704819Y-91630952D01*
X158704819Y-91630952D02*
X158704819Y-91916666D01*
X158704819Y-91916666D02*
X158657200Y-92011904D01*
X158657200Y-92011904D02*
X158609580Y-92059523D01*
X165940476Y-102681009D02*
X166273809Y-102681009D01*
X166416666Y-103204819D02*
X165940476Y-103204819D01*
X165940476Y-103204819D02*
X165940476Y-102204819D01*
X165940476Y-102204819D02*
X166416666Y-102204819D01*
X167416666Y-103204819D02*
X167083333Y-102728628D01*
X166845238Y-103204819D02*
X166845238Y-102204819D01*
X166845238Y-102204819D02*
X167226190Y-102204819D01*
X167226190Y-102204819D02*
X167321428Y-102252438D01*
X167321428Y-102252438D02*
X167369047Y-102300057D01*
X167369047Y-102300057D02*
X167416666Y-102395295D01*
X167416666Y-102395295D02*
X167416666Y-102538152D01*
X167416666Y-102538152D02*
X167369047Y-102633390D01*
X167369047Y-102633390D02*
X167321428Y-102681009D01*
X167321428Y-102681009D02*
X167226190Y-102728628D01*
X167226190Y-102728628D02*
X166845238Y-102728628D01*
X167607143Y-103300057D02*
X168369047Y-103300057D01*
X168797619Y-102204819D02*
X168988095Y-102204819D01*
X168988095Y-102204819D02*
X169083333Y-102252438D01*
X169083333Y-102252438D02*
X169178571Y-102347676D01*
X169178571Y-102347676D02*
X169226190Y-102538152D01*
X169226190Y-102538152D02*
X169226190Y-102871485D01*
X169226190Y-102871485D02*
X169178571Y-103061961D01*
X169178571Y-103061961D02*
X169083333Y-103157200D01*
X169083333Y-103157200D02*
X168988095Y-103204819D01*
X168988095Y-103204819D02*
X168797619Y-103204819D01*
X168797619Y-103204819D02*
X168702381Y-103157200D01*
X168702381Y-103157200D02*
X168607143Y-103061961D01*
X168607143Y-103061961D02*
X168559524Y-102871485D01*
X168559524Y-102871485D02*
X168559524Y-102538152D01*
X168559524Y-102538152D02*
X168607143Y-102347676D01*
X168607143Y-102347676D02*
X168702381Y-102252438D01*
X168702381Y-102252438D02*
X168797619Y-102204819D01*
X170130952Y-103204819D02*
X169654762Y-103204819D01*
X169654762Y-103204819D02*
X169654762Y-102204819D01*
X170464286Y-102681009D02*
X170797619Y-102681009D01*
X170940476Y-103204819D02*
X170464286Y-103204819D01*
X170464286Y-103204819D02*
X170464286Y-102204819D01*
X170464286Y-102204819D02*
X170940476Y-102204819D01*
X171369048Y-103204819D02*
X171369048Y-102204819D01*
X171369048Y-102204819D02*
X171607143Y-102204819D01*
X171607143Y-102204819D02*
X171750000Y-102252438D01*
X171750000Y-102252438D02*
X171845238Y-102347676D01*
X171845238Y-102347676D02*
X171892857Y-102442914D01*
X171892857Y-102442914D02*
X171940476Y-102633390D01*
X171940476Y-102633390D02*
X171940476Y-102776247D01*
X171940476Y-102776247D02*
X171892857Y-102966723D01*
X171892857Y-102966723D02*
X171845238Y-103061961D01*
X171845238Y-103061961D02*
X171750000Y-103157200D01*
X171750000Y-103157200D02*
X171607143Y-103204819D01*
X171607143Y-103204819D02*
X171369048Y-103204819D01*
X172369048Y-103204819D02*
X172369048Y-102204819D01*
X172369048Y-102204819D02*
X172702381Y-102919104D01*
X172702381Y-102919104D02*
X173035714Y-102204819D01*
X173035714Y-102204819D02*
X173035714Y-103204819D01*
X173702381Y-102204819D02*
X173797619Y-102204819D01*
X173797619Y-102204819D02*
X173892857Y-102252438D01*
X173892857Y-102252438D02*
X173940476Y-102300057D01*
X173940476Y-102300057D02*
X173988095Y-102395295D01*
X173988095Y-102395295D02*
X174035714Y-102585771D01*
X174035714Y-102585771D02*
X174035714Y-102823866D01*
X174035714Y-102823866D02*
X173988095Y-103014342D01*
X173988095Y-103014342D02*
X173940476Y-103109580D01*
X173940476Y-103109580D02*
X173892857Y-103157200D01*
X173892857Y-103157200D02*
X173797619Y-103204819D01*
X173797619Y-103204819D02*
X173702381Y-103204819D01*
X173702381Y-103204819D02*
X173607143Y-103157200D01*
X173607143Y-103157200D02*
X173559524Y-103109580D01*
X173559524Y-103109580D02*
X173511905Y-103014342D01*
X173511905Y-103014342D02*
X173464286Y-102823866D01*
X173464286Y-102823866D02*
X173464286Y-102585771D01*
X173464286Y-102585771D02*
X173511905Y-102395295D01*
X173511905Y-102395295D02*
X173559524Y-102300057D01*
X173559524Y-102300057D02*
X173607143Y-102252438D01*
X173607143Y-102252438D02*
X173702381Y-102204819D01*
X174464286Y-103109580D02*
X174511905Y-103157200D01*
X174511905Y-103157200D02*
X174464286Y-103204819D01*
X174464286Y-103204819D02*
X174416667Y-103157200D01*
X174416667Y-103157200D02*
X174464286Y-103109580D01*
X174464286Y-103109580D02*
X174464286Y-103204819D01*
X174988095Y-103204819D02*
X175178571Y-103204819D01*
X175178571Y-103204819D02*
X175273809Y-103157200D01*
X175273809Y-103157200D02*
X175321428Y-103109580D01*
X175321428Y-103109580D02*
X175416666Y-102966723D01*
X175416666Y-102966723D02*
X175464285Y-102776247D01*
X175464285Y-102776247D02*
X175464285Y-102395295D01*
X175464285Y-102395295D02*
X175416666Y-102300057D01*
X175416666Y-102300057D02*
X175369047Y-102252438D01*
X175369047Y-102252438D02*
X175273809Y-102204819D01*
X175273809Y-102204819D02*
X175083333Y-102204819D01*
X175083333Y-102204819D02*
X174988095Y-102252438D01*
X174988095Y-102252438D02*
X174940476Y-102300057D01*
X174940476Y-102300057D02*
X174892857Y-102395295D01*
X174892857Y-102395295D02*
X174892857Y-102633390D01*
X174892857Y-102633390D02*
X174940476Y-102728628D01*
X174940476Y-102728628D02*
X174988095Y-102776247D01*
X174988095Y-102776247D02*
X175083333Y-102823866D01*
X175083333Y-102823866D02*
X175273809Y-102823866D01*
X175273809Y-102823866D02*
X175369047Y-102776247D01*
X175369047Y-102776247D02*
X175416666Y-102728628D01*
X175416666Y-102728628D02*
X175464285Y-102633390D01*
X176416666Y-103204819D02*
X175845238Y-103204819D01*
X176130952Y-103204819D02*
X176130952Y-102204819D01*
X176130952Y-102204819D02*
X176035714Y-102347676D01*
X176035714Y-102347676D02*
X175940476Y-102442914D01*
X175940476Y-102442914D02*
X175845238Y-102490533D01*
X176607143Y-103300057D02*
X177369047Y-103300057D01*
X178130952Y-103204819D02*
X177559524Y-103204819D01*
X177845238Y-103204819D02*
X177845238Y-102204819D01*
X177845238Y-102204819D02*
X177750000Y-102347676D01*
X177750000Y-102347676D02*
X177654762Y-102442914D01*
X177654762Y-102442914D02*
X177559524Y-102490533D01*
X178464286Y-103204819D02*
X178988095Y-102538152D01*
X178464286Y-102538152D02*
X178988095Y-103204819D01*
X179369048Y-102823866D02*
X180130953Y-102823866D01*
X180607143Y-103204819D02*
X180607143Y-102204819D01*
X181035714Y-102300057D02*
X181083333Y-102252438D01*
X181083333Y-102252438D02*
X181178571Y-102204819D01*
X181178571Y-102204819D02*
X181416666Y-102204819D01*
X181416666Y-102204819D02*
X181511904Y-102252438D01*
X181511904Y-102252438D02*
X181559523Y-102300057D01*
X181559523Y-102300057D02*
X181607142Y-102395295D01*
X181607142Y-102395295D02*
X181607142Y-102490533D01*
X181607142Y-102490533D02*
X181559523Y-102633390D01*
X181559523Y-102633390D02*
X180988095Y-103204819D01*
X180988095Y-103204819D02*
X181607142Y-103204819D01*
X182607142Y-103109580D02*
X182559523Y-103157200D01*
X182559523Y-103157200D02*
X182416666Y-103204819D01*
X182416666Y-103204819D02*
X182321428Y-103204819D01*
X182321428Y-103204819D02*
X182178571Y-103157200D01*
X182178571Y-103157200D02*
X182083333Y-103061961D01*
X182083333Y-103061961D02*
X182035714Y-102966723D01*
X182035714Y-102966723D02*
X181988095Y-102776247D01*
X181988095Y-102776247D02*
X181988095Y-102633390D01*
X181988095Y-102633390D02*
X182035714Y-102442914D01*
X182035714Y-102442914D02*
X182083333Y-102347676D01*
X182083333Y-102347676D02*
X182178571Y-102252438D01*
X182178571Y-102252438D02*
X182321428Y-102204819D01*
X182321428Y-102204819D02*
X182416666Y-102204819D01*
X182416666Y-102204819D02*
X182559523Y-102252438D01*
X182559523Y-102252438D02*
X182607142Y-102300057D01*
X177403095Y-94184819D02*
X177403095Y-94994342D01*
X177403095Y-94994342D02*
X177450714Y-95089580D01*
X177450714Y-95089580D02*
X177498333Y-95137200D01*
X177498333Y-95137200D02*
X177593571Y-95184819D01*
X177593571Y-95184819D02*
X177784047Y-95184819D01*
X177784047Y-95184819D02*
X177879285Y-95137200D01*
X177879285Y-95137200D02*
X177926904Y-95089580D01*
X177926904Y-95089580D02*
X177974523Y-94994342D01*
X177974523Y-94994342D02*
X177974523Y-94184819D01*
X178355476Y-94184819D02*
X178974523Y-94184819D01*
X178974523Y-94184819D02*
X178641190Y-94565771D01*
X178641190Y-94565771D02*
X178784047Y-94565771D01*
X178784047Y-94565771D02*
X178879285Y-94613390D01*
X178879285Y-94613390D02*
X178926904Y-94661009D01*
X178926904Y-94661009D02*
X178974523Y-94756247D01*
X178974523Y-94756247D02*
X178974523Y-94994342D01*
X178974523Y-94994342D02*
X178926904Y-95089580D01*
X178926904Y-95089580D02*
X178879285Y-95137200D01*
X178879285Y-95137200D02*
X178784047Y-95184819D01*
X178784047Y-95184819D02*
X178498333Y-95184819D01*
X178498333Y-95184819D02*
X178403095Y-95137200D01*
X178403095Y-95137200D02*
X178355476Y-95089580D01*
X102359580Y-128641666D02*
X102407200Y-128689285D01*
X102407200Y-128689285D02*
X102454819Y-128832142D01*
X102454819Y-128832142D02*
X102454819Y-128927380D01*
X102454819Y-128927380D02*
X102407200Y-129070237D01*
X102407200Y-129070237D02*
X102311961Y-129165475D01*
X102311961Y-129165475D02*
X102216723Y-129213094D01*
X102216723Y-129213094D02*
X102026247Y-129260713D01*
X102026247Y-129260713D02*
X101883390Y-129260713D01*
X101883390Y-129260713D02*
X101692914Y-129213094D01*
X101692914Y-129213094D02*
X101597676Y-129165475D01*
X101597676Y-129165475D02*
X101502438Y-129070237D01*
X101502438Y-129070237D02*
X101454819Y-128927380D01*
X101454819Y-128927380D02*
X101454819Y-128832142D01*
X101454819Y-128832142D02*
X101502438Y-128689285D01*
X101502438Y-128689285D02*
X101550057Y-128641666D01*
X101550057Y-128260713D02*
X101502438Y-128213094D01*
X101502438Y-128213094D02*
X101454819Y-128117856D01*
X101454819Y-128117856D02*
X101454819Y-127879761D01*
X101454819Y-127879761D02*
X101502438Y-127784523D01*
X101502438Y-127784523D02*
X101550057Y-127736904D01*
X101550057Y-127736904D02*
X101645295Y-127689285D01*
X101645295Y-127689285D02*
X101740533Y-127689285D01*
X101740533Y-127689285D02*
X101883390Y-127736904D01*
X101883390Y-127736904D02*
X102454819Y-128308332D01*
X102454819Y-128308332D02*
X102454819Y-127689285D01*
X95928571Y-131954819D02*
X95357143Y-131954819D01*
X95642857Y-131954819D02*
X95642857Y-130954819D01*
X95642857Y-130954819D02*
X95547619Y-131097676D01*
X95547619Y-131097676D02*
X95452381Y-131192914D01*
X95452381Y-131192914D02*
X95357143Y-131240533D01*
X96547619Y-130954819D02*
X96642857Y-130954819D01*
X96642857Y-130954819D02*
X96738095Y-131002438D01*
X96738095Y-131002438D02*
X96785714Y-131050057D01*
X96785714Y-131050057D02*
X96833333Y-131145295D01*
X96833333Y-131145295D02*
X96880952Y-131335771D01*
X96880952Y-131335771D02*
X96880952Y-131573866D01*
X96880952Y-131573866D02*
X96833333Y-131764342D01*
X96833333Y-131764342D02*
X96785714Y-131859580D01*
X96785714Y-131859580D02*
X96738095Y-131907200D01*
X96738095Y-131907200D02*
X96642857Y-131954819D01*
X96642857Y-131954819D02*
X96547619Y-131954819D01*
X96547619Y-131954819D02*
X96452381Y-131907200D01*
X96452381Y-131907200D02*
X96404762Y-131859580D01*
X96404762Y-131859580D02*
X96357143Y-131764342D01*
X96357143Y-131764342D02*
X96309524Y-131573866D01*
X96309524Y-131573866D02*
X96309524Y-131335771D01*
X96309524Y-131335771D02*
X96357143Y-131145295D01*
X96357143Y-131145295D02*
X96404762Y-131050057D01*
X96404762Y-131050057D02*
X96452381Y-131002438D01*
X96452381Y-131002438D02*
X96547619Y-130954819D01*
X97738095Y-131288152D02*
X97738095Y-131954819D01*
X97309524Y-131288152D02*
X97309524Y-131811961D01*
X97309524Y-131811961D02*
X97357143Y-131907200D01*
X97357143Y-131907200D02*
X97452381Y-131954819D01*
X97452381Y-131954819D02*
X97595238Y-131954819D01*
X97595238Y-131954819D02*
X97690476Y-131907200D01*
X97690476Y-131907200D02*
X97738095Y-131859580D01*
X98547619Y-131431009D02*
X98214286Y-131431009D01*
X98214286Y-131954819D02*
X98214286Y-130954819D01*
X98214286Y-130954819D02*
X98690476Y-130954819D01*
X106094819Y-108341904D02*
X106904342Y-108341904D01*
X106904342Y-108341904D02*
X106999580Y-108294285D01*
X106999580Y-108294285D02*
X107047200Y-108246666D01*
X107047200Y-108246666D02*
X107094819Y-108151428D01*
X107094819Y-108151428D02*
X107094819Y-107960952D01*
X107094819Y-107960952D02*
X107047200Y-107865714D01*
X107047200Y-107865714D02*
X106999580Y-107818095D01*
X106999580Y-107818095D02*
X106904342Y-107770476D01*
X106904342Y-107770476D02*
X106094819Y-107770476D01*
X107094819Y-106770476D02*
X107094819Y-107341904D01*
X107094819Y-107056190D02*
X106094819Y-107056190D01*
X106094819Y-107056190D02*
X106237676Y-107151428D01*
X106237676Y-107151428D02*
X106332914Y-107246666D01*
X106332914Y-107246666D02*
X106380533Y-107341904D01*
X110226191Y-110581009D02*
X110559524Y-110581009D01*
X110702381Y-111104819D02*
X110226191Y-111104819D01*
X110226191Y-111104819D02*
X110226191Y-110104819D01*
X110226191Y-110104819D02*
X110702381Y-110104819D01*
X111083334Y-111057200D02*
X111226191Y-111104819D01*
X111226191Y-111104819D02*
X111464286Y-111104819D01*
X111464286Y-111104819D02*
X111559524Y-111057200D01*
X111559524Y-111057200D02*
X111607143Y-111009580D01*
X111607143Y-111009580D02*
X111654762Y-110914342D01*
X111654762Y-110914342D02*
X111654762Y-110819104D01*
X111654762Y-110819104D02*
X111607143Y-110723866D01*
X111607143Y-110723866D02*
X111559524Y-110676247D01*
X111559524Y-110676247D02*
X111464286Y-110628628D01*
X111464286Y-110628628D02*
X111273810Y-110581009D01*
X111273810Y-110581009D02*
X111178572Y-110533390D01*
X111178572Y-110533390D02*
X111130953Y-110485771D01*
X111130953Y-110485771D02*
X111083334Y-110390533D01*
X111083334Y-110390533D02*
X111083334Y-110295295D01*
X111083334Y-110295295D02*
X111130953Y-110200057D01*
X111130953Y-110200057D02*
X111178572Y-110152438D01*
X111178572Y-110152438D02*
X111273810Y-110104819D01*
X111273810Y-110104819D02*
X111511905Y-110104819D01*
X111511905Y-110104819D02*
X111654762Y-110152438D01*
X112083334Y-111104819D02*
X112083334Y-110104819D01*
X112083334Y-110104819D02*
X112464286Y-110104819D01*
X112464286Y-110104819D02*
X112559524Y-110152438D01*
X112559524Y-110152438D02*
X112607143Y-110200057D01*
X112607143Y-110200057D02*
X112654762Y-110295295D01*
X112654762Y-110295295D02*
X112654762Y-110438152D01*
X112654762Y-110438152D02*
X112607143Y-110533390D01*
X112607143Y-110533390D02*
X112559524Y-110581009D01*
X112559524Y-110581009D02*
X112464286Y-110628628D01*
X112464286Y-110628628D02*
X112083334Y-110628628D01*
X112988096Y-110104819D02*
X113607143Y-110104819D01*
X113607143Y-110104819D02*
X113273810Y-110485771D01*
X113273810Y-110485771D02*
X113416667Y-110485771D01*
X113416667Y-110485771D02*
X113511905Y-110533390D01*
X113511905Y-110533390D02*
X113559524Y-110581009D01*
X113559524Y-110581009D02*
X113607143Y-110676247D01*
X113607143Y-110676247D02*
X113607143Y-110914342D01*
X113607143Y-110914342D02*
X113559524Y-111009580D01*
X113559524Y-111009580D02*
X113511905Y-111057200D01*
X113511905Y-111057200D02*
X113416667Y-111104819D01*
X113416667Y-111104819D02*
X113130953Y-111104819D01*
X113130953Y-111104819D02*
X113035715Y-111057200D01*
X113035715Y-111057200D02*
X112988096Y-111009580D01*
X113988096Y-110200057D02*
X114035715Y-110152438D01*
X114035715Y-110152438D02*
X114130953Y-110104819D01*
X114130953Y-110104819D02*
X114369048Y-110104819D01*
X114369048Y-110104819D02*
X114464286Y-110152438D01*
X114464286Y-110152438D02*
X114511905Y-110200057D01*
X114511905Y-110200057D02*
X114559524Y-110295295D01*
X114559524Y-110295295D02*
X114559524Y-110390533D01*
X114559524Y-110390533D02*
X114511905Y-110533390D01*
X114511905Y-110533390D02*
X113940477Y-111104819D01*
X113940477Y-111104819D02*
X114559524Y-111104819D01*
X114988096Y-110723866D02*
X115750001Y-110723866D01*
X116130953Y-110104819D02*
X116369048Y-111104819D01*
X116369048Y-111104819D02*
X116559524Y-110390533D01*
X116559524Y-110390533D02*
X116750000Y-111104819D01*
X116750000Y-111104819D02*
X116988096Y-110104819D01*
X117940476Y-111104819D02*
X117607143Y-110628628D01*
X117369048Y-111104819D02*
X117369048Y-110104819D01*
X117369048Y-110104819D02*
X117750000Y-110104819D01*
X117750000Y-110104819D02*
X117845238Y-110152438D01*
X117845238Y-110152438D02*
X117892857Y-110200057D01*
X117892857Y-110200057D02*
X117940476Y-110295295D01*
X117940476Y-110295295D02*
X117940476Y-110438152D01*
X117940476Y-110438152D02*
X117892857Y-110533390D01*
X117892857Y-110533390D02*
X117845238Y-110581009D01*
X117845238Y-110581009D02*
X117750000Y-110628628D01*
X117750000Y-110628628D02*
X117369048Y-110628628D01*
X118559524Y-110104819D02*
X118750000Y-110104819D01*
X118750000Y-110104819D02*
X118845238Y-110152438D01*
X118845238Y-110152438D02*
X118940476Y-110247676D01*
X118940476Y-110247676D02*
X118988095Y-110438152D01*
X118988095Y-110438152D02*
X118988095Y-110771485D01*
X118988095Y-110771485D02*
X118940476Y-110961961D01*
X118940476Y-110961961D02*
X118845238Y-111057200D01*
X118845238Y-111057200D02*
X118750000Y-111104819D01*
X118750000Y-111104819D02*
X118559524Y-111104819D01*
X118559524Y-111104819D02*
X118464286Y-111057200D01*
X118464286Y-111057200D02*
X118369048Y-110961961D01*
X118369048Y-110961961D02*
X118321429Y-110771485D01*
X118321429Y-110771485D02*
X118321429Y-110438152D01*
X118321429Y-110438152D02*
X118369048Y-110247676D01*
X118369048Y-110247676D02*
X118464286Y-110152438D01*
X118464286Y-110152438D02*
X118559524Y-110104819D01*
X119607143Y-110104819D02*
X119797619Y-110104819D01*
X119797619Y-110104819D02*
X119892857Y-110152438D01*
X119892857Y-110152438D02*
X119988095Y-110247676D01*
X119988095Y-110247676D02*
X120035714Y-110438152D01*
X120035714Y-110438152D02*
X120035714Y-110771485D01*
X120035714Y-110771485D02*
X119988095Y-110961961D01*
X119988095Y-110961961D02*
X119892857Y-111057200D01*
X119892857Y-111057200D02*
X119797619Y-111104819D01*
X119797619Y-111104819D02*
X119607143Y-111104819D01*
X119607143Y-111104819D02*
X119511905Y-111057200D01*
X119511905Y-111057200D02*
X119416667Y-110961961D01*
X119416667Y-110961961D02*
X119369048Y-110771485D01*
X119369048Y-110771485D02*
X119369048Y-110438152D01*
X119369048Y-110438152D02*
X119416667Y-110247676D01*
X119416667Y-110247676D02*
X119511905Y-110152438D01*
X119511905Y-110152438D02*
X119607143Y-110104819D01*
X120464286Y-111104819D02*
X120464286Y-110104819D01*
X120464286Y-110104819D02*
X120797619Y-110819104D01*
X120797619Y-110819104D02*
X121130952Y-110104819D01*
X121130952Y-110104819D02*
X121130952Y-111104819D01*
X121607143Y-110723866D02*
X122369048Y-110723866D01*
X122750000Y-110104819D02*
X123369047Y-110104819D01*
X123369047Y-110104819D02*
X123035714Y-110485771D01*
X123035714Y-110485771D02*
X123178571Y-110485771D01*
X123178571Y-110485771D02*
X123273809Y-110533390D01*
X123273809Y-110533390D02*
X123321428Y-110581009D01*
X123321428Y-110581009D02*
X123369047Y-110676247D01*
X123369047Y-110676247D02*
X123369047Y-110914342D01*
X123369047Y-110914342D02*
X123321428Y-111009580D01*
X123321428Y-111009580D02*
X123273809Y-111057200D01*
X123273809Y-111057200D02*
X123178571Y-111104819D01*
X123178571Y-111104819D02*
X122892857Y-111104819D01*
X122892857Y-111104819D02*
X122797619Y-111057200D01*
X122797619Y-111057200D02*
X122750000Y-111009580D01*
X123750000Y-110200057D02*
X123797619Y-110152438D01*
X123797619Y-110152438D02*
X123892857Y-110104819D01*
X123892857Y-110104819D02*
X124130952Y-110104819D01*
X124130952Y-110104819D02*
X124226190Y-110152438D01*
X124226190Y-110152438D02*
X124273809Y-110200057D01*
X124273809Y-110200057D02*
X124321428Y-110295295D01*
X124321428Y-110295295D02*
X124321428Y-110390533D01*
X124321428Y-110390533D02*
X124273809Y-110533390D01*
X124273809Y-110533390D02*
X123702381Y-111104819D01*
X123702381Y-111104819D02*
X124321428Y-111104819D01*
X127083333Y-113704819D02*
X126750000Y-113228628D01*
X126511905Y-113704819D02*
X126511905Y-112704819D01*
X126511905Y-112704819D02*
X126892857Y-112704819D01*
X126892857Y-112704819D02*
X126988095Y-112752438D01*
X126988095Y-112752438D02*
X127035714Y-112800057D01*
X127035714Y-112800057D02*
X127083333Y-112895295D01*
X127083333Y-112895295D02*
X127083333Y-113038152D01*
X127083333Y-113038152D02*
X127035714Y-113133390D01*
X127035714Y-113133390D02*
X126988095Y-113181009D01*
X126988095Y-113181009D02*
X126892857Y-113228628D01*
X126892857Y-113228628D02*
X126511905Y-113228628D01*
X127988095Y-112704819D02*
X127511905Y-112704819D01*
X127511905Y-112704819D02*
X127464286Y-113181009D01*
X127464286Y-113181009D02*
X127511905Y-113133390D01*
X127511905Y-113133390D02*
X127607143Y-113085771D01*
X127607143Y-113085771D02*
X127845238Y-113085771D01*
X127845238Y-113085771D02*
X127940476Y-113133390D01*
X127940476Y-113133390D02*
X127988095Y-113181009D01*
X127988095Y-113181009D02*
X128035714Y-113276247D01*
X128035714Y-113276247D02*
X128035714Y-113514342D01*
X128035714Y-113514342D02*
X127988095Y-113609580D01*
X127988095Y-113609580D02*
X127940476Y-113657200D01*
X127940476Y-113657200D02*
X127845238Y-113704819D01*
X127845238Y-113704819D02*
X127607143Y-113704819D01*
X127607143Y-113704819D02*
X127511905Y-113657200D01*
X127511905Y-113657200D02*
X127464286Y-113609580D01*
X126154761Y-118204819D02*
X125583333Y-118204819D01*
X125869047Y-118204819D02*
X125869047Y-117204819D01*
X125869047Y-117204819D02*
X125773809Y-117347676D01*
X125773809Y-117347676D02*
X125678571Y-117442914D01*
X125678571Y-117442914D02*
X125583333Y-117490533D01*
X126773809Y-117204819D02*
X126869047Y-117204819D01*
X126869047Y-117204819D02*
X126964285Y-117252438D01*
X126964285Y-117252438D02*
X127011904Y-117300057D01*
X127011904Y-117300057D02*
X127059523Y-117395295D01*
X127059523Y-117395295D02*
X127107142Y-117585771D01*
X127107142Y-117585771D02*
X127107142Y-117823866D01*
X127107142Y-117823866D02*
X127059523Y-118014342D01*
X127059523Y-118014342D02*
X127011904Y-118109580D01*
X127011904Y-118109580D02*
X126964285Y-118157200D01*
X126964285Y-118157200D02*
X126869047Y-118204819D01*
X126869047Y-118204819D02*
X126773809Y-118204819D01*
X126773809Y-118204819D02*
X126678571Y-118157200D01*
X126678571Y-118157200D02*
X126630952Y-118109580D01*
X126630952Y-118109580D02*
X126583333Y-118014342D01*
X126583333Y-118014342D02*
X126535714Y-117823866D01*
X126535714Y-117823866D02*
X126535714Y-117585771D01*
X126535714Y-117585771D02*
X126583333Y-117395295D01*
X126583333Y-117395295D02*
X126630952Y-117300057D01*
X126630952Y-117300057D02*
X126678571Y-117252438D01*
X126678571Y-117252438D02*
X126773809Y-117204819D01*
X127535714Y-118204819D02*
X127535714Y-117204819D01*
X127630952Y-117823866D02*
X127916666Y-118204819D01*
X127916666Y-117538152D02*
X127535714Y-117919104D01*
X91539580Y-91916666D02*
X91587200Y-91964285D01*
X91587200Y-91964285D02*
X91634819Y-92107142D01*
X91634819Y-92107142D02*
X91634819Y-92202380D01*
X91634819Y-92202380D02*
X91587200Y-92345237D01*
X91587200Y-92345237D02*
X91491961Y-92440475D01*
X91491961Y-92440475D02*
X91396723Y-92488094D01*
X91396723Y-92488094D02*
X91206247Y-92535713D01*
X91206247Y-92535713D02*
X91063390Y-92535713D01*
X91063390Y-92535713D02*
X90872914Y-92488094D01*
X90872914Y-92488094D02*
X90777676Y-92440475D01*
X90777676Y-92440475D02*
X90682438Y-92345237D01*
X90682438Y-92345237D02*
X90634819Y-92202380D01*
X90634819Y-92202380D02*
X90634819Y-92107142D01*
X90634819Y-92107142D02*
X90682438Y-91964285D01*
X90682438Y-91964285D02*
X90730057Y-91916666D01*
X90634819Y-91059523D02*
X90634819Y-91249999D01*
X90634819Y-91249999D02*
X90682438Y-91345237D01*
X90682438Y-91345237D02*
X90730057Y-91392856D01*
X90730057Y-91392856D02*
X90872914Y-91488094D01*
X90872914Y-91488094D02*
X91063390Y-91535713D01*
X91063390Y-91535713D02*
X91444342Y-91535713D01*
X91444342Y-91535713D02*
X91539580Y-91488094D01*
X91539580Y-91488094D02*
X91587200Y-91440475D01*
X91587200Y-91440475D02*
X91634819Y-91345237D01*
X91634819Y-91345237D02*
X91634819Y-91154761D01*
X91634819Y-91154761D02*
X91587200Y-91059523D01*
X91587200Y-91059523D02*
X91539580Y-91011904D01*
X91539580Y-91011904D02*
X91444342Y-90964285D01*
X91444342Y-90964285D02*
X91206247Y-90964285D01*
X91206247Y-90964285D02*
X91111009Y-91011904D01*
X91111009Y-91011904D02*
X91063390Y-91059523D01*
X91063390Y-91059523D02*
X91015771Y-91154761D01*
X91015771Y-91154761D02*
X91015771Y-91345237D01*
X91015771Y-91345237D02*
X91063390Y-91440475D01*
X91063390Y-91440475D02*
X91111009Y-91488094D01*
X91111009Y-91488094D02*
X91206247Y-91535713D01*
X88274819Y-93297619D02*
X88274819Y-93869047D01*
X88274819Y-93583333D02*
X87274819Y-93583333D01*
X87274819Y-93583333D02*
X87417676Y-93678571D01*
X87417676Y-93678571D02*
X87512914Y-93773809D01*
X87512914Y-93773809D02*
X87560533Y-93869047D01*
X87274819Y-92678571D02*
X87274819Y-92583333D01*
X87274819Y-92583333D02*
X87322438Y-92488095D01*
X87322438Y-92488095D02*
X87370057Y-92440476D01*
X87370057Y-92440476D02*
X87465295Y-92392857D01*
X87465295Y-92392857D02*
X87655771Y-92345238D01*
X87655771Y-92345238D02*
X87893866Y-92345238D01*
X87893866Y-92345238D02*
X88084342Y-92392857D01*
X88084342Y-92392857D02*
X88179580Y-92440476D01*
X88179580Y-92440476D02*
X88227200Y-92488095D01*
X88227200Y-92488095D02*
X88274819Y-92583333D01*
X88274819Y-92583333D02*
X88274819Y-92678571D01*
X88274819Y-92678571D02*
X88227200Y-92773809D01*
X88227200Y-92773809D02*
X88179580Y-92821428D01*
X88179580Y-92821428D02*
X88084342Y-92869047D01*
X88084342Y-92869047D02*
X87893866Y-92916666D01*
X87893866Y-92916666D02*
X87655771Y-92916666D01*
X87655771Y-92916666D02*
X87465295Y-92869047D01*
X87465295Y-92869047D02*
X87370057Y-92821428D01*
X87370057Y-92821428D02*
X87322438Y-92773809D01*
X87322438Y-92773809D02*
X87274819Y-92678571D01*
X87274819Y-91726190D02*
X87274819Y-91630952D01*
X87274819Y-91630952D02*
X87322438Y-91535714D01*
X87322438Y-91535714D02*
X87370057Y-91488095D01*
X87370057Y-91488095D02*
X87465295Y-91440476D01*
X87465295Y-91440476D02*
X87655771Y-91392857D01*
X87655771Y-91392857D02*
X87893866Y-91392857D01*
X87893866Y-91392857D02*
X88084342Y-91440476D01*
X88084342Y-91440476D02*
X88179580Y-91488095D01*
X88179580Y-91488095D02*
X88227200Y-91535714D01*
X88227200Y-91535714D02*
X88274819Y-91630952D01*
X88274819Y-91630952D02*
X88274819Y-91726190D01*
X88274819Y-91726190D02*
X88227200Y-91821428D01*
X88227200Y-91821428D02*
X88179580Y-91869047D01*
X88179580Y-91869047D02*
X88084342Y-91916666D01*
X88084342Y-91916666D02*
X87893866Y-91964285D01*
X87893866Y-91964285D02*
X87655771Y-91964285D01*
X87655771Y-91964285D02*
X87465295Y-91916666D01*
X87465295Y-91916666D02*
X87370057Y-91869047D01*
X87370057Y-91869047D02*
X87322438Y-91821428D01*
X87322438Y-91821428D02*
X87274819Y-91726190D01*
X87608152Y-90964285D02*
X88274819Y-90964285D01*
X87703390Y-90964285D02*
X87655771Y-90916666D01*
X87655771Y-90916666D02*
X87608152Y-90821428D01*
X87608152Y-90821428D02*
X87608152Y-90678571D01*
X87608152Y-90678571D02*
X87655771Y-90583333D01*
X87655771Y-90583333D02*
X87751009Y-90535714D01*
X87751009Y-90535714D02*
X88274819Y-90535714D01*
X87751009Y-89726190D02*
X87751009Y-90059523D01*
X88274819Y-90059523D02*
X87274819Y-90059523D01*
X87274819Y-90059523D02*
X87274819Y-89583333D01*
X122388095Y-123454819D02*
X122388095Y-124264342D01*
X122388095Y-124264342D02*
X122435714Y-124359580D01*
X122435714Y-124359580D02*
X122483333Y-124407200D01*
X122483333Y-124407200D02*
X122578571Y-124454819D01*
X122578571Y-124454819D02*
X122769047Y-124454819D01*
X122769047Y-124454819D02*
X122864285Y-124407200D01*
X122864285Y-124407200D02*
X122911904Y-124359580D01*
X122911904Y-124359580D02*
X122959523Y-124264342D01*
X122959523Y-124264342D02*
X122959523Y-123454819D01*
X123864285Y-123788152D02*
X123864285Y-124454819D01*
X123626190Y-123407200D02*
X123388095Y-124121485D01*
X123388095Y-124121485D02*
X124007142Y-124121485D01*
D12*
X122713855Y-129109523D02*
X123361474Y-129109523D01*
X123361474Y-129109523D02*
X123437664Y-129071428D01*
X123437664Y-129071428D02*
X123475760Y-129033333D01*
X123475760Y-129033333D02*
X123513855Y-128957142D01*
X123513855Y-128957142D02*
X123513855Y-128804761D01*
X123513855Y-128804761D02*
X123475760Y-128728571D01*
X123475760Y-128728571D02*
X123437664Y-128690476D01*
X123437664Y-128690476D02*
X123361474Y-128652380D01*
X123361474Y-128652380D02*
X122713855Y-128652380D01*
X122980521Y-127928571D02*
X123513855Y-127928571D01*
X122675760Y-128119047D02*
X123247188Y-128309524D01*
X123247188Y-128309524D02*
X123247188Y-127814285D01*
D11*
X92916666Y-113704819D02*
X92916666Y-114419104D01*
X92916666Y-114419104D02*
X92869047Y-114561961D01*
X92869047Y-114561961D02*
X92773809Y-114657200D01*
X92773809Y-114657200D02*
X92630952Y-114704819D01*
X92630952Y-114704819D02*
X92535714Y-114704819D01*
X93345238Y-113800057D02*
X93392857Y-113752438D01*
X93392857Y-113752438D02*
X93488095Y-113704819D01*
X93488095Y-113704819D02*
X93726190Y-113704819D01*
X93726190Y-113704819D02*
X93821428Y-113752438D01*
X93821428Y-113752438D02*
X93869047Y-113800057D01*
X93869047Y-113800057D02*
X93916666Y-113895295D01*
X93916666Y-113895295D02*
X93916666Y-113990533D01*
X93916666Y-113990533D02*
X93869047Y-114133390D01*
X93869047Y-114133390D02*
X93297619Y-114704819D01*
X93297619Y-114704819D02*
X93916666Y-114704819D01*
X94920833Y-97504819D02*
X94587500Y-97028628D01*
X94349405Y-97504819D02*
X94349405Y-96504819D01*
X94349405Y-96504819D02*
X94730357Y-96504819D01*
X94730357Y-96504819D02*
X94825595Y-96552438D01*
X94825595Y-96552438D02*
X94873214Y-96600057D01*
X94873214Y-96600057D02*
X94920833Y-96695295D01*
X94920833Y-96695295D02*
X94920833Y-96838152D01*
X94920833Y-96838152D02*
X94873214Y-96933390D01*
X94873214Y-96933390D02*
X94825595Y-96981009D01*
X94825595Y-96981009D02*
X94730357Y-97028628D01*
X94730357Y-97028628D02*
X94349405Y-97028628D01*
X95492262Y-96933390D02*
X95397024Y-96885771D01*
X95397024Y-96885771D02*
X95349405Y-96838152D01*
X95349405Y-96838152D02*
X95301786Y-96742914D01*
X95301786Y-96742914D02*
X95301786Y-96695295D01*
X95301786Y-96695295D02*
X95349405Y-96600057D01*
X95349405Y-96600057D02*
X95397024Y-96552438D01*
X95397024Y-96552438D02*
X95492262Y-96504819D01*
X95492262Y-96504819D02*
X95682738Y-96504819D01*
X95682738Y-96504819D02*
X95777976Y-96552438D01*
X95777976Y-96552438D02*
X95825595Y-96600057D01*
X95825595Y-96600057D02*
X95873214Y-96695295D01*
X95873214Y-96695295D02*
X95873214Y-96742914D01*
X95873214Y-96742914D02*
X95825595Y-96838152D01*
X95825595Y-96838152D02*
X95777976Y-96885771D01*
X95777976Y-96885771D02*
X95682738Y-96933390D01*
X95682738Y-96933390D02*
X95492262Y-96933390D01*
X95492262Y-96933390D02*
X95397024Y-96981009D01*
X95397024Y-96981009D02*
X95349405Y-97028628D01*
X95349405Y-97028628D02*
X95301786Y-97123866D01*
X95301786Y-97123866D02*
X95301786Y-97314342D01*
X95301786Y-97314342D02*
X95349405Y-97409580D01*
X95349405Y-97409580D02*
X95397024Y-97457200D01*
X95397024Y-97457200D02*
X95492262Y-97504819D01*
X95492262Y-97504819D02*
X95682738Y-97504819D01*
X95682738Y-97504819D02*
X95777976Y-97457200D01*
X95777976Y-97457200D02*
X95825595Y-97409580D01*
X95825595Y-97409580D02*
X95873214Y-97314342D01*
X95873214Y-97314342D02*
X95873214Y-97123866D01*
X95873214Y-97123866D02*
X95825595Y-97028628D01*
X95825595Y-97028628D02*
X95777976Y-96981009D01*
X95777976Y-96981009D02*
X95682738Y-96933390D01*
X90904761Y-96704819D02*
X90333333Y-96704819D01*
X90619047Y-96704819D02*
X90619047Y-95704819D01*
X90619047Y-95704819D02*
X90523809Y-95847676D01*
X90523809Y-95847676D02*
X90428571Y-95942914D01*
X90428571Y-95942914D02*
X90333333Y-95990533D01*
X91523809Y-95704819D02*
X91619047Y-95704819D01*
X91619047Y-95704819D02*
X91714285Y-95752438D01*
X91714285Y-95752438D02*
X91761904Y-95800057D01*
X91761904Y-95800057D02*
X91809523Y-95895295D01*
X91809523Y-95895295D02*
X91857142Y-96085771D01*
X91857142Y-96085771D02*
X91857142Y-96323866D01*
X91857142Y-96323866D02*
X91809523Y-96514342D01*
X91809523Y-96514342D02*
X91761904Y-96609580D01*
X91761904Y-96609580D02*
X91714285Y-96657200D01*
X91714285Y-96657200D02*
X91619047Y-96704819D01*
X91619047Y-96704819D02*
X91523809Y-96704819D01*
X91523809Y-96704819D02*
X91428571Y-96657200D01*
X91428571Y-96657200D02*
X91380952Y-96609580D01*
X91380952Y-96609580D02*
X91333333Y-96514342D01*
X91333333Y-96514342D02*
X91285714Y-96323866D01*
X91285714Y-96323866D02*
X91285714Y-96085771D01*
X91285714Y-96085771D02*
X91333333Y-95895295D01*
X91333333Y-95895295D02*
X91380952Y-95800057D01*
X91380952Y-95800057D02*
X91428571Y-95752438D01*
X91428571Y-95752438D02*
X91523809Y-95704819D01*
X92285714Y-96704819D02*
X92285714Y-95704819D01*
X92380952Y-96323866D02*
X92666666Y-96704819D01*
X92666666Y-96038152D02*
X92285714Y-96419104D01*
X85916666Y-127204819D02*
X85916666Y-127919104D01*
X85916666Y-127919104D02*
X85869047Y-128061961D01*
X85869047Y-128061961D02*
X85773809Y-128157200D01*
X85773809Y-128157200D02*
X85630952Y-128204819D01*
X85630952Y-128204819D02*
X85535714Y-128204819D01*
X86916666Y-128204819D02*
X86345238Y-128204819D01*
X86630952Y-128204819D02*
X86630952Y-127204819D01*
X86630952Y-127204819D02*
X86535714Y-127347676D01*
X86535714Y-127347676D02*
X86440476Y-127442914D01*
X86440476Y-127442914D02*
X86345238Y-127490533D01*
X85940475Y-124359580D02*
X85892856Y-124407200D01*
X85892856Y-124407200D02*
X85749999Y-124454819D01*
X85749999Y-124454819D02*
X85654761Y-124454819D01*
X85654761Y-124454819D02*
X85511904Y-124407200D01*
X85511904Y-124407200D02*
X85416666Y-124311961D01*
X85416666Y-124311961D02*
X85369047Y-124216723D01*
X85369047Y-124216723D02*
X85321428Y-124026247D01*
X85321428Y-124026247D02*
X85321428Y-123883390D01*
X85321428Y-123883390D02*
X85369047Y-123692914D01*
X85369047Y-123692914D02*
X85416666Y-123597676D01*
X85416666Y-123597676D02*
X85511904Y-123502438D01*
X85511904Y-123502438D02*
X85654761Y-123454819D01*
X85654761Y-123454819D02*
X85749999Y-123454819D01*
X85749999Y-123454819D02*
X85892856Y-123502438D01*
X85892856Y-123502438D02*
X85940475Y-123550057D01*
X86511904Y-124454819D02*
X86416666Y-124407200D01*
X86416666Y-124407200D02*
X86369047Y-124359580D01*
X86369047Y-124359580D02*
X86321428Y-124264342D01*
X86321428Y-124264342D02*
X86321428Y-123978628D01*
X86321428Y-123978628D02*
X86369047Y-123883390D01*
X86369047Y-123883390D02*
X86416666Y-123835771D01*
X86416666Y-123835771D02*
X86511904Y-123788152D01*
X86511904Y-123788152D02*
X86654761Y-123788152D01*
X86654761Y-123788152D02*
X86749999Y-123835771D01*
X86749999Y-123835771D02*
X86797618Y-123883390D01*
X86797618Y-123883390D02*
X86845237Y-123978628D01*
X86845237Y-123978628D02*
X86845237Y-124264342D01*
X86845237Y-124264342D02*
X86797618Y-124359580D01*
X86797618Y-124359580D02*
X86749999Y-124407200D01*
X86749999Y-124407200D02*
X86654761Y-124454819D01*
X86654761Y-124454819D02*
X86511904Y-124454819D01*
X87273809Y-123788152D02*
X87273809Y-124454819D01*
X87273809Y-123883390D02*
X87321428Y-123835771D01*
X87321428Y-123835771D02*
X87416666Y-123788152D01*
X87416666Y-123788152D02*
X87559523Y-123788152D01*
X87559523Y-123788152D02*
X87654761Y-123835771D01*
X87654761Y-123835771D02*
X87702380Y-123931009D01*
X87702380Y-123931009D02*
X87702380Y-124454819D01*
X88178571Y-123788152D02*
X88178571Y-124454819D01*
X88178571Y-123883390D02*
X88226190Y-123835771D01*
X88226190Y-123835771D02*
X88321428Y-123788152D01*
X88321428Y-123788152D02*
X88464285Y-123788152D01*
X88464285Y-123788152D02*
X88559523Y-123835771D01*
X88559523Y-123835771D02*
X88607142Y-123931009D01*
X88607142Y-123931009D02*
X88607142Y-124454819D01*
X88845238Y-124550057D02*
X89607142Y-124550057D01*
X90035714Y-123454819D02*
X90130952Y-123454819D01*
X90130952Y-123454819D02*
X90226190Y-123502438D01*
X90226190Y-123502438D02*
X90273809Y-123550057D01*
X90273809Y-123550057D02*
X90321428Y-123645295D01*
X90321428Y-123645295D02*
X90369047Y-123835771D01*
X90369047Y-123835771D02*
X90369047Y-124073866D01*
X90369047Y-124073866D02*
X90321428Y-124264342D01*
X90321428Y-124264342D02*
X90273809Y-124359580D01*
X90273809Y-124359580D02*
X90226190Y-124407200D01*
X90226190Y-124407200D02*
X90130952Y-124454819D01*
X90130952Y-124454819D02*
X90035714Y-124454819D01*
X90035714Y-124454819D02*
X89940476Y-124407200D01*
X89940476Y-124407200D02*
X89892857Y-124359580D01*
X89892857Y-124359580D02*
X89845238Y-124264342D01*
X89845238Y-124264342D02*
X89797619Y-124073866D01*
X89797619Y-124073866D02*
X89797619Y-123835771D01*
X89797619Y-123835771D02*
X89845238Y-123645295D01*
X89845238Y-123645295D02*
X89892857Y-123550057D01*
X89892857Y-123550057D02*
X89940476Y-123502438D01*
X89940476Y-123502438D02*
X90035714Y-123454819D01*
X91321428Y-124454819D02*
X90750000Y-124454819D01*
X91035714Y-124454819D02*
X91035714Y-123454819D01*
X91035714Y-123454819D02*
X90940476Y-123597676D01*
X90940476Y-123597676D02*
X90845238Y-123692914D01*
X90845238Y-123692914D02*
X90750000Y-123740533D01*
X91654762Y-124454819D02*
X92178571Y-123788152D01*
X91654762Y-123788152D02*
X92178571Y-124454819D01*
X92750000Y-123454819D02*
X92845238Y-123454819D01*
X92845238Y-123454819D02*
X92940476Y-123502438D01*
X92940476Y-123502438D02*
X92988095Y-123550057D01*
X92988095Y-123550057D02*
X93035714Y-123645295D01*
X93035714Y-123645295D02*
X93083333Y-123835771D01*
X93083333Y-123835771D02*
X93083333Y-124073866D01*
X93083333Y-124073866D02*
X93035714Y-124264342D01*
X93035714Y-124264342D02*
X92988095Y-124359580D01*
X92988095Y-124359580D02*
X92940476Y-124407200D01*
X92940476Y-124407200D02*
X92845238Y-124454819D01*
X92845238Y-124454819D02*
X92750000Y-124454819D01*
X92750000Y-124454819D02*
X92654762Y-124407200D01*
X92654762Y-124407200D02*
X92607143Y-124359580D01*
X92607143Y-124359580D02*
X92559524Y-124264342D01*
X92559524Y-124264342D02*
X92511905Y-124073866D01*
X92511905Y-124073866D02*
X92511905Y-123835771D01*
X92511905Y-123835771D02*
X92559524Y-123645295D01*
X92559524Y-123645295D02*
X92607143Y-123550057D01*
X92607143Y-123550057D02*
X92654762Y-123502438D01*
X92654762Y-123502438D02*
X92750000Y-123454819D01*
X93464286Y-123550057D02*
X93511905Y-123502438D01*
X93511905Y-123502438D02*
X93607143Y-123454819D01*
X93607143Y-123454819D02*
X93845238Y-123454819D01*
X93845238Y-123454819D02*
X93940476Y-123502438D01*
X93940476Y-123502438D02*
X93988095Y-123550057D01*
X93988095Y-123550057D02*
X94035714Y-123645295D01*
X94035714Y-123645295D02*
X94035714Y-123740533D01*
X94035714Y-123740533D02*
X93988095Y-123883390D01*
X93988095Y-123883390D02*
X93416667Y-124454819D01*
X93416667Y-124454819D02*
X94035714Y-124454819D01*
X94226191Y-124550057D02*
X94988095Y-124550057D01*
X95226191Y-124454819D02*
X95226191Y-123454819D01*
X95226191Y-123454819D02*
X95607143Y-123454819D01*
X95607143Y-123454819D02*
X95702381Y-123502438D01*
X95702381Y-123502438D02*
X95750000Y-123550057D01*
X95750000Y-123550057D02*
X95797619Y-123645295D01*
X95797619Y-123645295D02*
X95797619Y-123788152D01*
X95797619Y-123788152D02*
X95750000Y-123883390D01*
X95750000Y-123883390D02*
X95702381Y-123931009D01*
X95702381Y-123931009D02*
X95607143Y-123978628D01*
X95607143Y-123978628D02*
X95226191Y-123978628D01*
X96226191Y-124454819D02*
X96226191Y-123788152D01*
X96226191Y-123454819D02*
X96178572Y-123502438D01*
X96178572Y-123502438D02*
X96226191Y-123550057D01*
X96226191Y-123550057D02*
X96273810Y-123502438D01*
X96273810Y-123502438D02*
X96226191Y-123454819D01*
X96226191Y-123454819D02*
X96226191Y-123550057D01*
X96702381Y-123788152D02*
X96702381Y-124454819D01*
X96702381Y-123883390D02*
X96750000Y-123835771D01*
X96750000Y-123835771D02*
X96845238Y-123788152D01*
X96845238Y-123788152D02*
X96988095Y-123788152D01*
X96988095Y-123788152D02*
X97083333Y-123835771D01*
X97083333Y-123835771D02*
X97130952Y-123931009D01*
X97130952Y-123931009D02*
X97130952Y-124454819D01*
X77761905Y-114204819D02*
X77761905Y-113204819D01*
X77761905Y-113204819D02*
X78000000Y-113204819D01*
X78000000Y-113204819D02*
X78142857Y-113252438D01*
X78142857Y-113252438D02*
X78238095Y-113347676D01*
X78238095Y-113347676D02*
X78285714Y-113442914D01*
X78285714Y-113442914D02*
X78333333Y-113633390D01*
X78333333Y-113633390D02*
X78333333Y-113776247D01*
X78333333Y-113776247D02*
X78285714Y-113966723D01*
X78285714Y-113966723D02*
X78238095Y-114061961D01*
X78238095Y-114061961D02*
X78142857Y-114157200D01*
X78142857Y-114157200D02*
X78000000Y-114204819D01*
X78000000Y-114204819D02*
X77761905Y-114204819D01*
X78714286Y-113300057D02*
X78761905Y-113252438D01*
X78761905Y-113252438D02*
X78857143Y-113204819D01*
X78857143Y-113204819D02*
X79095238Y-113204819D01*
X79095238Y-113204819D02*
X79190476Y-113252438D01*
X79190476Y-113252438D02*
X79238095Y-113300057D01*
X79238095Y-113300057D02*
X79285714Y-113395295D01*
X79285714Y-113395295D02*
X79285714Y-113490533D01*
X79285714Y-113490533D02*
X79238095Y-113633390D01*
X79238095Y-113633390D02*
X78666667Y-114204819D01*
X78666667Y-114204819D02*
X79285714Y-114204819D01*
X148113095Y-108454819D02*
X148113095Y-109264342D01*
X148113095Y-109264342D02*
X148160714Y-109359580D01*
X148160714Y-109359580D02*
X148208333Y-109407200D01*
X148208333Y-109407200D02*
X148303571Y-109454819D01*
X148303571Y-109454819D02*
X148494047Y-109454819D01*
X148494047Y-109454819D02*
X148589285Y-109407200D01*
X148589285Y-109407200D02*
X148636904Y-109359580D01*
X148636904Y-109359580D02*
X148684523Y-109264342D01*
X148684523Y-109264342D02*
X148684523Y-108454819D01*
X149113095Y-108550057D02*
X149160714Y-108502438D01*
X149160714Y-108502438D02*
X149255952Y-108454819D01*
X149255952Y-108454819D02*
X149494047Y-108454819D01*
X149494047Y-108454819D02*
X149589285Y-108502438D01*
X149589285Y-108502438D02*
X149636904Y-108550057D01*
X149636904Y-108550057D02*
X149684523Y-108645295D01*
X149684523Y-108645295D02*
X149684523Y-108740533D01*
X149684523Y-108740533D02*
X149636904Y-108883390D01*
X149636904Y-108883390D02*
X149065476Y-109454819D01*
X149065476Y-109454819D02*
X149684523Y-109454819D01*
X147755952Y-124254819D02*
X147755952Y-123254819D01*
X147755952Y-123254819D02*
X147994047Y-123254819D01*
X147994047Y-123254819D02*
X148136904Y-123302438D01*
X148136904Y-123302438D02*
X148232142Y-123397676D01*
X148232142Y-123397676D02*
X148279761Y-123492914D01*
X148279761Y-123492914D02*
X148327380Y-123683390D01*
X148327380Y-123683390D02*
X148327380Y-123826247D01*
X148327380Y-123826247D02*
X148279761Y-124016723D01*
X148279761Y-124016723D02*
X148232142Y-124111961D01*
X148232142Y-124111961D02*
X148136904Y-124207200D01*
X148136904Y-124207200D02*
X147994047Y-124254819D01*
X147994047Y-124254819D02*
X147755952Y-124254819D01*
X148755952Y-124254819D02*
X148755952Y-123254819D01*
X148755952Y-123731009D02*
X149327380Y-123731009D01*
X149327380Y-124254819D02*
X149327380Y-123254819D01*
X149660714Y-123254819D02*
X150232142Y-123254819D01*
X149946428Y-124254819D02*
X149946428Y-123254819D01*
X151089285Y-124254819D02*
X150517857Y-124254819D01*
X150803571Y-124254819D02*
X150803571Y-123254819D01*
X150803571Y-123254819D02*
X150708333Y-123397676D01*
X150708333Y-123397676D02*
X150613095Y-123492914D01*
X150613095Y-123492914D02*
X150517857Y-123540533D01*
X152041666Y-124254819D02*
X151470238Y-124254819D01*
X151755952Y-124254819D02*
X151755952Y-123254819D01*
X151755952Y-123254819D02*
X151660714Y-123397676D01*
X151660714Y-123397676D02*
X151565476Y-123492914D01*
X151565476Y-123492914D02*
X151470238Y-123540533D01*
X86092261Y-108350057D02*
X85997023Y-108302438D01*
X85997023Y-108302438D02*
X85901785Y-108207200D01*
X85901785Y-108207200D02*
X85758928Y-108064342D01*
X85758928Y-108064342D02*
X85663690Y-108016723D01*
X85663690Y-108016723D02*
X85568452Y-108016723D01*
X85616071Y-108254819D02*
X85520833Y-108207200D01*
X85520833Y-108207200D02*
X85425595Y-108111961D01*
X85425595Y-108111961D02*
X85377976Y-107921485D01*
X85377976Y-107921485D02*
X85377976Y-107588152D01*
X85377976Y-107588152D02*
X85425595Y-107397676D01*
X85425595Y-107397676D02*
X85520833Y-107302438D01*
X85520833Y-107302438D02*
X85616071Y-107254819D01*
X85616071Y-107254819D02*
X85806547Y-107254819D01*
X85806547Y-107254819D02*
X85901785Y-107302438D01*
X85901785Y-107302438D02*
X85997023Y-107397676D01*
X85997023Y-107397676D02*
X86044642Y-107588152D01*
X86044642Y-107588152D02*
X86044642Y-107921485D01*
X86044642Y-107921485D02*
X85997023Y-108111961D01*
X85997023Y-108111961D02*
X85901785Y-108207200D01*
X85901785Y-108207200D02*
X85806547Y-108254819D01*
X85806547Y-108254819D02*
X85616071Y-108254819D01*
X86997023Y-108254819D02*
X86425595Y-108254819D01*
X86711309Y-108254819D02*
X86711309Y-107254819D01*
X86711309Y-107254819D02*
X86616071Y-107397676D01*
X86616071Y-107397676D02*
X86520833Y-107492914D01*
X86520833Y-107492914D02*
X86425595Y-107540533D01*
X78666667Y-86657200D02*
X78809524Y-86704819D01*
X78809524Y-86704819D02*
X79047619Y-86704819D01*
X79047619Y-86704819D02*
X79142857Y-86657200D01*
X79142857Y-86657200D02*
X79190476Y-86609580D01*
X79190476Y-86609580D02*
X79238095Y-86514342D01*
X79238095Y-86514342D02*
X79238095Y-86419104D01*
X79238095Y-86419104D02*
X79190476Y-86323866D01*
X79190476Y-86323866D02*
X79142857Y-86276247D01*
X79142857Y-86276247D02*
X79047619Y-86228628D01*
X79047619Y-86228628D02*
X78857143Y-86181009D01*
X78857143Y-86181009D02*
X78761905Y-86133390D01*
X78761905Y-86133390D02*
X78714286Y-86085771D01*
X78714286Y-86085771D02*
X78666667Y-85990533D01*
X78666667Y-85990533D02*
X78666667Y-85895295D01*
X78666667Y-85895295D02*
X78714286Y-85800057D01*
X78714286Y-85800057D02*
X78761905Y-85752438D01*
X78761905Y-85752438D02*
X78857143Y-85704819D01*
X78857143Y-85704819D02*
X79095238Y-85704819D01*
X79095238Y-85704819D02*
X79238095Y-85752438D01*
X79571429Y-85704819D02*
X79809524Y-86704819D01*
X79809524Y-86704819D02*
X80000000Y-85990533D01*
X80000000Y-85990533D02*
X80190476Y-86704819D01*
X80190476Y-86704819D02*
X80428572Y-85704819D01*
X81333333Y-86704819D02*
X80761905Y-86704819D01*
X81047619Y-86704819D02*
X81047619Y-85704819D01*
X81047619Y-85704819D02*
X80952381Y-85847676D01*
X80952381Y-85847676D02*
X80857143Y-85942914D01*
X80857143Y-85942914D02*
X80761905Y-85990533D01*
X76452381Y-96857200D02*
X76595238Y-96904819D01*
X76595238Y-96904819D02*
X76833333Y-96904819D01*
X76833333Y-96904819D02*
X76928571Y-96857200D01*
X76928571Y-96857200D02*
X76976190Y-96809580D01*
X76976190Y-96809580D02*
X77023809Y-96714342D01*
X77023809Y-96714342D02*
X77023809Y-96619104D01*
X77023809Y-96619104D02*
X76976190Y-96523866D01*
X76976190Y-96523866D02*
X76928571Y-96476247D01*
X76928571Y-96476247D02*
X76833333Y-96428628D01*
X76833333Y-96428628D02*
X76642857Y-96381009D01*
X76642857Y-96381009D02*
X76547619Y-96333390D01*
X76547619Y-96333390D02*
X76500000Y-96285771D01*
X76500000Y-96285771D02*
X76452381Y-96190533D01*
X76452381Y-96190533D02*
X76452381Y-96095295D01*
X76452381Y-96095295D02*
X76500000Y-96000057D01*
X76500000Y-96000057D02*
X76547619Y-95952438D01*
X76547619Y-95952438D02*
X76642857Y-95904819D01*
X76642857Y-95904819D02*
X76880952Y-95904819D01*
X76880952Y-95904819D02*
X77023809Y-95952438D01*
X77357143Y-95904819D02*
X77595238Y-96904819D01*
X77595238Y-96904819D02*
X77785714Y-96190533D01*
X77785714Y-96190533D02*
X77976190Y-96904819D01*
X77976190Y-96904819D02*
X78214286Y-95904819D01*
X78357143Y-97000057D02*
X79119047Y-97000057D01*
X79357143Y-96904819D02*
X79357143Y-95904819D01*
X79357143Y-95904819D02*
X79738095Y-95904819D01*
X79738095Y-95904819D02*
X79833333Y-95952438D01*
X79833333Y-95952438D02*
X79880952Y-96000057D01*
X79880952Y-96000057D02*
X79928571Y-96095295D01*
X79928571Y-96095295D02*
X79928571Y-96238152D01*
X79928571Y-96238152D02*
X79880952Y-96333390D01*
X79880952Y-96333390D02*
X79833333Y-96381009D01*
X79833333Y-96381009D02*
X79738095Y-96428628D01*
X79738095Y-96428628D02*
X79357143Y-96428628D01*
X80785714Y-96238152D02*
X80785714Y-96904819D01*
X80357143Y-96238152D02*
X80357143Y-96761961D01*
X80357143Y-96761961D02*
X80404762Y-96857200D01*
X80404762Y-96857200D02*
X80500000Y-96904819D01*
X80500000Y-96904819D02*
X80642857Y-96904819D01*
X80642857Y-96904819D02*
X80738095Y-96857200D01*
X80738095Y-96857200D02*
X80785714Y-96809580D01*
X81214286Y-96857200D02*
X81309524Y-96904819D01*
X81309524Y-96904819D02*
X81500000Y-96904819D01*
X81500000Y-96904819D02*
X81595238Y-96857200D01*
X81595238Y-96857200D02*
X81642857Y-96761961D01*
X81642857Y-96761961D02*
X81642857Y-96714342D01*
X81642857Y-96714342D02*
X81595238Y-96619104D01*
X81595238Y-96619104D02*
X81500000Y-96571485D01*
X81500000Y-96571485D02*
X81357143Y-96571485D01*
X81357143Y-96571485D02*
X81261905Y-96523866D01*
X81261905Y-96523866D02*
X81214286Y-96428628D01*
X81214286Y-96428628D02*
X81214286Y-96381009D01*
X81214286Y-96381009D02*
X81261905Y-96285771D01*
X81261905Y-96285771D02*
X81357143Y-96238152D01*
X81357143Y-96238152D02*
X81500000Y-96238152D01*
X81500000Y-96238152D02*
X81595238Y-96285771D01*
X82071429Y-96904819D02*
X82071429Y-95904819D01*
X82500000Y-96904819D02*
X82500000Y-96381009D01*
X82500000Y-96381009D02*
X82452381Y-96285771D01*
X82452381Y-96285771D02*
X82357143Y-96238152D01*
X82357143Y-96238152D02*
X82214286Y-96238152D01*
X82214286Y-96238152D02*
X82119048Y-96285771D01*
X82119048Y-96285771D02*
X82071429Y-96333390D01*
X111359580Y-128416666D02*
X111407200Y-128464285D01*
X111407200Y-128464285D02*
X111454819Y-128607142D01*
X111454819Y-128607142D02*
X111454819Y-128702380D01*
X111454819Y-128702380D02*
X111407200Y-128845237D01*
X111407200Y-128845237D02*
X111311961Y-128940475D01*
X111311961Y-128940475D02*
X111216723Y-128988094D01*
X111216723Y-128988094D02*
X111026247Y-129035713D01*
X111026247Y-129035713D02*
X110883390Y-129035713D01*
X110883390Y-129035713D02*
X110692914Y-128988094D01*
X110692914Y-128988094D02*
X110597676Y-128940475D01*
X110597676Y-128940475D02*
X110502438Y-128845237D01*
X110502438Y-128845237D02*
X110454819Y-128702380D01*
X110454819Y-128702380D02*
X110454819Y-128607142D01*
X110454819Y-128607142D02*
X110502438Y-128464285D01*
X110502438Y-128464285D02*
X110550057Y-128416666D01*
X110454819Y-128083332D02*
X110454819Y-127464285D01*
X110454819Y-127464285D02*
X110835771Y-127797618D01*
X110835771Y-127797618D02*
X110835771Y-127654761D01*
X110835771Y-127654761D02*
X110883390Y-127559523D01*
X110883390Y-127559523D02*
X110931009Y-127511904D01*
X110931009Y-127511904D02*
X111026247Y-127464285D01*
X111026247Y-127464285D02*
X111264342Y-127464285D01*
X111264342Y-127464285D02*
X111359580Y-127511904D01*
X111359580Y-127511904D02*
X111407200Y-127559523D01*
X111407200Y-127559523D02*
X111454819Y-127654761D01*
X111454819Y-127654761D02*
X111454819Y-127940475D01*
X111454819Y-127940475D02*
X111407200Y-128035713D01*
X111407200Y-128035713D02*
X111359580Y-128083332D01*
X107702380Y-131454819D02*
X107130952Y-131454819D01*
X107416666Y-131454819D02*
X107416666Y-130454819D01*
X107416666Y-130454819D02*
X107321428Y-130597676D01*
X107321428Y-130597676D02*
X107226190Y-130692914D01*
X107226190Y-130692914D02*
X107130952Y-130740533D01*
X108321428Y-130454819D02*
X108416666Y-130454819D01*
X108416666Y-130454819D02*
X108511904Y-130502438D01*
X108511904Y-130502438D02*
X108559523Y-130550057D01*
X108559523Y-130550057D02*
X108607142Y-130645295D01*
X108607142Y-130645295D02*
X108654761Y-130835771D01*
X108654761Y-130835771D02*
X108654761Y-131073866D01*
X108654761Y-131073866D02*
X108607142Y-131264342D01*
X108607142Y-131264342D02*
X108559523Y-131359580D01*
X108559523Y-131359580D02*
X108511904Y-131407200D01*
X108511904Y-131407200D02*
X108416666Y-131454819D01*
X108416666Y-131454819D02*
X108321428Y-131454819D01*
X108321428Y-131454819D02*
X108226190Y-131407200D01*
X108226190Y-131407200D02*
X108178571Y-131359580D01*
X108178571Y-131359580D02*
X108130952Y-131264342D01*
X108130952Y-131264342D02*
X108083333Y-131073866D01*
X108083333Y-131073866D02*
X108083333Y-130835771D01*
X108083333Y-130835771D02*
X108130952Y-130645295D01*
X108130952Y-130645295D02*
X108178571Y-130550057D01*
X108178571Y-130550057D02*
X108226190Y-130502438D01*
X108226190Y-130502438D02*
X108321428Y-130454819D01*
X109273809Y-130454819D02*
X109369047Y-130454819D01*
X109369047Y-130454819D02*
X109464285Y-130502438D01*
X109464285Y-130502438D02*
X109511904Y-130550057D01*
X109511904Y-130550057D02*
X109559523Y-130645295D01*
X109559523Y-130645295D02*
X109607142Y-130835771D01*
X109607142Y-130835771D02*
X109607142Y-131073866D01*
X109607142Y-131073866D02*
X109559523Y-131264342D01*
X109559523Y-131264342D02*
X109511904Y-131359580D01*
X109511904Y-131359580D02*
X109464285Y-131407200D01*
X109464285Y-131407200D02*
X109369047Y-131454819D01*
X109369047Y-131454819D02*
X109273809Y-131454819D01*
X109273809Y-131454819D02*
X109178571Y-131407200D01*
X109178571Y-131407200D02*
X109130952Y-131359580D01*
X109130952Y-131359580D02*
X109083333Y-131264342D01*
X109083333Y-131264342D02*
X109035714Y-131073866D01*
X109035714Y-131073866D02*
X109035714Y-130835771D01*
X109035714Y-130835771D02*
X109083333Y-130645295D01*
X109083333Y-130645295D02*
X109130952Y-130550057D01*
X109130952Y-130550057D02*
X109178571Y-130502438D01*
X109178571Y-130502438D02*
X109273809Y-130454819D01*
X110035714Y-130788152D02*
X110035714Y-131454819D01*
X110035714Y-130883390D02*
X110083333Y-130835771D01*
X110083333Y-130835771D02*
X110178571Y-130788152D01*
X110178571Y-130788152D02*
X110321428Y-130788152D01*
X110321428Y-130788152D02*
X110416666Y-130835771D01*
X110416666Y-130835771D02*
X110464285Y-130931009D01*
X110464285Y-130931009D02*
X110464285Y-131454819D01*
X111273809Y-130931009D02*
X110940476Y-130931009D01*
X110940476Y-131454819D02*
X110940476Y-130454819D01*
X110940476Y-130454819D02*
X111416666Y-130454819D01*
X102333333Y-94259580D02*
X102285714Y-94307200D01*
X102285714Y-94307200D02*
X102142857Y-94354819D01*
X102142857Y-94354819D02*
X102047619Y-94354819D01*
X102047619Y-94354819D02*
X101904762Y-94307200D01*
X101904762Y-94307200D02*
X101809524Y-94211961D01*
X101809524Y-94211961D02*
X101761905Y-94116723D01*
X101761905Y-94116723D02*
X101714286Y-93926247D01*
X101714286Y-93926247D02*
X101714286Y-93783390D01*
X101714286Y-93783390D02*
X101761905Y-93592914D01*
X101761905Y-93592914D02*
X101809524Y-93497676D01*
X101809524Y-93497676D02*
X101904762Y-93402438D01*
X101904762Y-93402438D02*
X102047619Y-93354819D01*
X102047619Y-93354819D02*
X102142857Y-93354819D01*
X102142857Y-93354819D02*
X102285714Y-93402438D01*
X102285714Y-93402438D02*
X102333333Y-93450057D01*
X102666667Y-93354819D02*
X103333333Y-93354819D01*
X103333333Y-93354819D02*
X102904762Y-94354819D01*
X97178571Y-91954819D02*
X96607143Y-91954819D01*
X96892857Y-91954819D02*
X96892857Y-90954819D01*
X96892857Y-90954819D02*
X96797619Y-91097676D01*
X96797619Y-91097676D02*
X96702381Y-91192914D01*
X96702381Y-91192914D02*
X96607143Y-91240533D01*
X97797619Y-90954819D02*
X97892857Y-90954819D01*
X97892857Y-90954819D02*
X97988095Y-91002438D01*
X97988095Y-91002438D02*
X98035714Y-91050057D01*
X98035714Y-91050057D02*
X98083333Y-91145295D01*
X98083333Y-91145295D02*
X98130952Y-91335771D01*
X98130952Y-91335771D02*
X98130952Y-91573866D01*
X98130952Y-91573866D02*
X98083333Y-91764342D01*
X98083333Y-91764342D02*
X98035714Y-91859580D01*
X98035714Y-91859580D02*
X97988095Y-91907200D01*
X97988095Y-91907200D02*
X97892857Y-91954819D01*
X97892857Y-91954819D02*
X97797619Y-91954819D01*
X97797619Y-91954819D02*
X97702381Y-91907200D01*
X97702381Y-91907200D02*
X97654762Y-91859580D01*
X97654762Y-91859580D02*
X97607143Y-91764342D01*
X97607143Y-91764342D02*
X97559524Y-91573866D01*
X97559524Y-91573866D02*
X97559524Y-91335771D01*
X97559524Y-91335771D02*
X97607143Y-91145295D01*
X97607143Y-91145295D02*
X97654762Y-91050057D01*
X97654762Y-91050057D02*
X97702381Y-91002438D01*
X97702381Y-91002438D02*
X97797619Y-90954819D01*
X98988095Y-91288152D02*
X98988095Y-91954819D01*
X98559524Y-91288152D02*
X98559524Y-91811961D01*
X98559524Y-91811961D02*
X98607143Y-91907200D01*
X98607143Y-91907200D02*
X98702381Y-91954819D01*
X98702381Y-91954819D02*
X98845238Y-91954819D01*
X98845238Y-91954819D02*
X98940476Y-91907200D01*
X98940476Y-91907200D02*
X98988095Y-91859580D01*
X99797619Y-91431009D02*
X99464286Y-91431009D01*
X99464286Y-91954819D02*
X99464286Y-90954819D01*
X99464286Y-90954819D02*
X99940476Y-90954819D01*
X78354819Y-110329166D02*
X77878628Y-110662499D01*
X78354819Y-110900594D02*
X77354819Y-110900594D01*
X77354819Y-110900594D02*
X77354819Y-110519642D01*
X77354819Y-110519642D02*
X77402438Y-110424404D01*
X77402438Y-110424404D02*
X77450057Y-110376785D01*
X77450057Y-110376785D02*
X77545295Y-110329166D01*
X77545295Y-110329166D02*
X77688152Y-110329166D01*
X77688152Y-110329166D02*
X77783390Y-110376785D01*
X77783390Y-110376785D02*
X77831009Y-110424404D01*
X77831009Y-110424404D02*
X77878628Y-110519642D01*
X77878628Y-110519642D02*
X77878628Y-110900594D01*
X78354819Y-109376785D02*
X78354819Y-109948213D01*
X78354819Y-109662499D02*
X77354819Y-109662499D01*
X77354819Y-109662499D02*
X77497676Y-109757737D01*
X77497676Y-109757737D02*
X77592914Y-109852975D01*
X77592914Y-109852975D02*
X77640533Y-109948213D01*
X75704819Y-107595238D02*
X75704819Y-108166666D01*
X75704819Y-107880952D02*
X74704819Y-107880952D01*
X74704819Y-107880952D02*
X74847676Y-107976190D01*
X74847676Y-107976190D02*
X74942914Y-108071428D01*
X74942914Y-108071428D02*
X74990533Y-108166666D01*
X74704819Y-106976190D02*
X74704819Y-106880952D01*
X74704819Y-106880952D02*
X74752438Y-106785714D01*
X74752438Y-106785714D02*
X74800057Y-106738095D01*
X74800057Y-106738095D02*
X74895295Y-106690476D01*
X74895295Y-106690476D02*
X75085771Y-106642857D01*
X75085771Y-106642857D02*
X75323866Y-106642857D01*
X75323866Y-106642857D02*
X75514342Y-106690476D01*
X75514342Y-106690476D02*
X75609580Y-106738095D01*
X75609580Y-106738095D02*
X75657200Y-106785714D01*
X75657200Y-106785714D02*
X75704819Y-106880952D01*
X75704819Y-106880952D02*
X75704819Y-106976190D01*
X75704819Y-106976190D02*
X75657200Y-107071428D01*
X75657200Y-107071428D02*
X75609580Y-107119047D01*
X75609580Y-107119047D02*
X75514342Y-107166666D01*
X75514342Y-107166666D02*
X75323866Y-107214285D01*
X75323866Y-107214285D02*
X75085771Y-107214285D01*
X75085771Y-107214285D02*
X74895295Y-107166666D01*
X74895295Y-107166666D02*
X74800057Y-107119047D01*
X74800057Y-107119047D02*
X74752438Y-107071428D01*
X74752438Y-107071428D02*
X74704819Y-106976190D01*
X75704819Y-106214285D02*
X74704819Y-106214285D01*
X75323866Y-106119047D02*
X75704819Y-105833333D01*
X75038152Y-105833333D02*
X75419104Y-106214285D01*
X101241905Y-108244819D02*
X101241905Y-107244819D01*
X101241905Y-107244819D02*
X101480000Y-107244819D01*
X101480000Y-107244819D02*
X101622857Y-107292438D01*
X101622857Y-107292438D02*
X101718095Y-107387676D01*
X101718095Y-107387676D02*
X101765714Y-107482914D01*
X101765714Y-107482914D02*
X101813333Y-107673390D01*
X101813333Y-107673390D02*
X101813333Y-107816247D01*
X101813333Y-107816247D02*
X101765714Y-108006723D01*
X101765714Y-108006723D02*
X101718095Y-108101961D01*
X101718095Y-108101961D02*
X101622857Y-108197200D01*
X101622857Y-108197200D02*
X101480000Y-108244819D01*
X101480000Y-108244819D02*
X101241905Y-108244819D01*
X102765714Y-108244819D02*
X102194286Y-108244819D01*
X102480000Y-108244819D02*
X102480000Y-107244819D01*
X102480000Y-107244819D02*
X102384762Y-107387676D01*
X102384762Y-107387676D02*
X102289524Y-107482914D01*
X102289524Y-107482914D02*
X102194286Y-107530533D01*
X101337142Y-116164819D02*
X100860952Y-116164819D01*
X100860952Y-116164819D02*
X100860952Y-115164819D01*
X101670476Y-115641009D02*
X102003809Y-115641009D01*
X102146666Y-116164819D02*
X101670476Y-116164819D01*
X101670476Y-116164819D02*
X101670476Y-115164819D01*
X101670476Y-115164819D02*
X102146666Y-115164819D01*
X102575238Y-116164819D02*
X102575238Y-115164819D01*
X102575238Y-115164819D02*
X102813333Y-115164819D01*
X102813333Y-115164819D02*
X102956190Y-115212438D01*
X102956190Y-115212438D02*
X103051428Y-115307676D01*
X103051428Y-115307676D02*
X103099047Y-115402914D01*
X103099047Y-115402914D02*
X103146666Y-115593390D01*
X103146666Y-115593390D02*
X103146666Y-115736247D01*
X103146666Y-115736247D02*
X103099047Y-115926723D01*
X103099047Y-115926723D02*
X103051428Y-116021961D01*
X103051428Y-116021961D02*
X102956190Y-116117200D01*
X102956190Y-116117200D02*
X102813333Y-116164819D01*
X102813333Y-116164819D02*
X102575238Y-116164819D01*
X150454819Y-92416666D02*
X149978628Y-92749999D01*
X150454819Y-92988094D02*
X149454819Y-92988094D01*
X149454819Y-92988094D02*
X149454819Y-92607142D01*
X149454819Y-92607142D02*
X149502438Y-92511904D01*
X149502438Y-92511904D02*
X149550057Y-92464285D01*
X149550057Y-92464285D02*
X149645295Y-92416666D01*
X149645295Y-92416666D02*
X149788152Y-92416666D01*
X149788152Y-92416666D02*
X149883390Y-92464285D01*
X149883390Y-92464285D02*
X149931009Y-92511904D01*
X149931009Y-92511904D02*
X149978628Y-92607142D01*
X149978628Y-92607142D02*
X149978628Y-92988094D01*
X149550057Y-92035713D02*
X149502438Y-91988094D01*
X149502438Y-91988094D02*
X149454819Y-91892856D01*
X149454819Y-91892856D02*
X149454819Y-91654761D01*
X149454819Y-91654761D02*
X149502438Y-91559523D01*
X149502438Y-91559523D02*
X149550057Y-91511904D01*
X149550057Y-91511904D02*
X149645295Y-91464285D01*
X149645295Y-91464285D02*
X149740533Y-91464285D01*
X149740533Y-91464285D02*
X149883390Y-91511904D01*
X149883390Y-91511904D02*
X150454819Y-92083332D01*
X150454819Y-92083332D02*
X150454819Y-91464285D01*
X144071428Y-94288152D02*
X144071428Y-94954819D01*
X143833333Y-93907200D02*
X143595238Y-94621485D01*
X143595238Y-94621485D02*
X144214285Y-94621485D01*
X144595238Y-94859580D02*
X144642857Y-94907200D01*
X144642857Y-94907200D02*
X144595238Y-94954819D01*
X144595238Y-94954819D02*
X144547619Y-94907200D01*
X144547619Y-94907200D02*
X144595238Y-94859580D01*
X144595238Y-94859580D02*
X144595238Y-94954819D01*
X144976190Y-93954819D02*
X145642856Y-93954819D01*
X145642856Y-93954819D02*
X145214285Y-94954819D01*
X146023809Y-94954819D02*
X146023809Y-93954819D01*
X146119047Y-94573866D02*
X146404761Y-94954819D01*
X146404761Y-94288152D02*
X146023809Y-94669104D01*
X192238095Y-70454819D02*
X192238095Y-69454819D01*
X192238095Y-69931009D02*
X192809523Y-69931009D01*
X192809523Y-70454819D02*
X192809523Y-69454819D01*
X193238095Y-69550057D02*
X193285714Y-69502438D01*
X193285714Y-69502438D02*
X193380952Y-69454819D01*
X193380952Y-69454819D02*
X193619047Y-69454819D01*
X193619047Y-69454819D02*
X193714285Y-69502438D01*
X193714285Y-69502438D02*
X193761904Y-69550057D01*
X193761904Y-69550057D02*
X193809523Y-69645295D01*
X193809523Y-69645295D02*
X193809523Y-69740533D01*
X193809523Y-69740533D02*
X193761904Y-69883390D01*
X193761904Y-69883390D02*
X193190476Y-70454819D01*
X193190476Y-70454819D02*
X193809523Y-70454819D01*
X78738095Y-70454819D02*
X78738095Y-69454819D01*
X78738095Y-69931009D02*
X79309523Y-69931009D01*
X79309523Y-70454819D02*
X79309523Y-69454819D01*
X80309523Y-70454819D02*
X79738095Y-70454819D01*
X80023809Y-70454819D02*
X80023809Y-69454819D01*
X80023809Y-69454819D02*
X79928571Y-69597676D01*
X79928571Y-69597676D02*
X79833333Y-69692914D01*
X79833333Y-69692914D02*
X79738095Y-69740533D01*
X77333333Y-104704819D02*
X77000000Y-104228628D01*
X76761905Y-104704819D02*
X76761905Y-103704819D01*
X76761905Y-103704819D02*
X77142857Y-103704819D01*
X77142857Y-103704819D02*
X77238095Y-103752438D01*
X77238095Y-103752438D02*
X77285714Y-103800057D01*
X77285714Y-103800057D02*
X77333333Y-103895295D01*
X77333333Y-103895295D02*
X77333333Y-104038152D01*
X77333333Y-104038152D02*
X77285714Y-104133390D01*
X77285714Y-104133390D02*
X77238095Y-104181009D01*
X77238095Y-104181009D02*
X77142857Y-104228628D01*
X77142857Y-104228628D02*
X76761905Y-104228628D01*
X78190476Y-104038152D02*
X78190476Y-104704819D01*
X77952381Y-103657200D02*
X77714286Y-104371485D01*
X77714286Y-104371485D02*
X78333333Y-104371485D01*
X147579580Y-128866666D02*
X147627200Y-128914285D01*
X147627200Y-128914285D02*
X147674819Y-129057142D01*
X147674819Y-129057142D02*
X147674819Y-129152380D01*
X147674819Y-129152380D02*
X147627200Y-129295237D01*
X147627200Y-129295237D02*
X147531961Y-129390475D01*
X147531961Y-129390475D02*
X147436723Y-129438094D01*
X147436723Y-129438094D02*
X147246247Y-129485713D01*
X147246247Y-129485713D02*
X147103390Y-129485713D01*
X147103390Y-129485713D02*
X146912914Y-129438094D01*
X146912914Y-129438094D02*
X146817676Y-129390475D01*
X146817676Y-129390475D02*
X146722438Y-129295237D01*
X146722438Y-129295237D02*
X146674819Y-129152380D01*
X146674819Y-129152380D02*
X146674819Y-129057142D01*
X146674819Y-129057142D02*
X146722438Y-128914285D01*
X146722438Y-128914285D02*
X146770057Y-128866666D01*
X146674819Y-127961904D02*
X146674819Y-128438094D01*
X146674819Y-128438094D02*
X147151009Y-128485713D01*
X147151009Y-128485713D02*
X147103390Y-128438094D01*
X147103390Y-128438094D02*
X147055771Y-128342856D01*
X147055771Y-128342856D02*
X147055771Y-128104761D01*
X147055771Y-128104761D02*
X147103390Y-128009523D01*
X147103390Y-128009523D02*
X147151009Y-127961904D01*
X147151009Y-127961904D02*
X147246247Y-127914285D01*
X147246247Y-127914285D02*
X147484342Y-127914285D01*
X147484342Y-127914285D02*
X147579580Y-127961904D01*
X147579580Y-127961904D02*
X147627200Y-128009523D01*
X147627200Y-128009523D02*
X147674819Y-128104761D01*
X147674819Y-128104761D02*
X147674819Y-128342856D01*
X147674819Y-128342856D02*
X147627200Y-128438094D01*
X147627200Y-128438094D02*
X147579580Y-128485713D01*
X151034819Y-130247619D02*
X151034819Y-130819047D01*
X151034819Y-130533333D02*
X150034819Y-130533333D01*
X150034819Y-130533333D02*
X150177676Y-130628571D01*
X150177676Y-130628571D02*
X150272914Y-130723809D01*
X150272914Y-130723809D02*
X150320533Y-130819047D01*
X150034819Y-129628571D02*
X150034819Y-129533333D01*
X150034819Y-129533333D02*
X150082438Y-129438095D01*
X150082438Y-129438095D02*
X150130057Y-129390476D01*
X150130057Y-129390476D02*
X150225295Y-129342857D01*
X150225295Y-129342857D02*
X150415771Y-129295238D01*
X150415771Y-129295238D02*
X150653866Y-129295238D01*
X150653866Y-129295238D02*
X150844342Y-129342857D01*
X150844342Y-129342857D02*
X150939580Y-129390476D01*
X150939580Y-129390476D02*
X150987200Y-129438095D01*
X150987200Y-129438095D02*
X151034819Y-129533333D01*
X151034819Y-129533333D02*
X151034819Y-129628571D01*
X151034819Y-129628571D02*
X150987200Y-129723809D01*
X150987200Y-129723809D02*
X150939580Y-129771428D01*
X150939580Y-129771428D02*
X150844342Y-129819047D01*
X150844342Y-129819047D02*
X150653866Y-129866666D01*
X150653866Y-129866666D02*
X150415771Y-129866666D01*
X150415771Y-129866666D02*
X150225295Y-129819047D01*
X150225295Y-129819047D02*
X150130057Y-129771428D01*
X150130057Y-129771428D02*
X150082438Y-129723809D01*
X150082438Y-129723809D02*
X150034819Y-129628571D01*
X150034819Y-128676190D02*
X150034819Y-128580952D01*
X150034819Y-128580952D02*
X150082438Y-128485714D01*
X150082438Y-128485714D02*
X150130057Y-128438095D01*
X150130057Y-128438095D02*
X150225295Y-128390476D01*
X150225295Y-128390476D02*
X150415771Y-128342857D01*
X150415771Y-128342857D02*
X150653866Y-128342857D01*
X150653866Y-128342857D02*
X150844342Y-128390476D01*
X150844342Y-128390476D02*
X150939580Y-128438095D01*
X150939580Y-128438095D02*
X150987200Y-128485714D01*
X150987200Y-128485714D02*
X151034819Y-128580952D01*
X151034819Y-128580952D02*
X151034819Y-128676190D01*
X151034819Y-128676190D02*
X150987200Y-128771428D01*
X150987200Y-128771428D02*
X150939580Y-128819047D01*
X150939580Y-128819047D02*
X150844342Y-128866666D01*
X150844342Y-128866666D02*
X150653866Y-128914285D01*
X150653866Y-128914285D02*
X150415771Y-128914285D01*
X150415771Y-128914285D02*
X150225295Y-128866666D01*
X150225295Y-128866666D02*
X150130057Y-128819047D01*
X150130057Y-128819047D02*
X150082438Y-128771428D01*
X150082438Y-128771428D02*
X150034819Y-128676190D01*
X150368152Y-127914285D02*
X151034819Y-127914285D01*
X150463390Y-127914285D02*
X150415771Y-127866666D01*
X150415771Y-127866666D02*
X150368152Y-127771428D01*
X150368152Y-127771428D02*
X150368152Y-127628571D01*
X150368152Y-127628571D02*
X150415771Y-127533333D01*
X150415771Y-127533333D02*
X150511009Y-127485714D01*
X150511009Y-127485714D02*
X151034819Y-127485714D01*
X150511009Y-126676190D02*
X150511009Y-127009523D01*
X151034819Y-127009523D02*
X150034819Y-127009523D01*
X150034819Y-127009523D02*
X150034819Y-126533333D01*
X105333333Y-105454819D02*
X105000000Y-104978628D01*
X104761905Y-105454819D02*
X104761905Y-104454819D01*
X104761905Y-104454819D02*
X105142857Y-104454819D01*
X105142857Y-104454819D02*
X105238095Y-104502438D01*
X105238095Y-104502438D02*
X105285714Y-104550057D01*
X105285714Y-104550057D02*
X105333333Y-104645295D01*
X105333333Y-104645295D02*
X105333333Y-104788152D01*
X105333333Y-104788152D02*
X105285714Y-104883390D01*
X105285714Y-104883390D02*
X105238095Y-104931009D01*
X105238095Y-104931009D02*
X105142857Y-104978628D01*
X105142857Y-104978628D02*
X104761905Y-104978628D01*
X106190476Y-104454819D02*
X106000000Y-104454819D01*
X106000000Y-104454819D02*
X105904762Y-104502438D01*
X105904762Y-104502438D02*
X105857143Y-104550057D01*
X105857143Y-104550057D02*
X105761905Y-104692914D01*
X105761905Y-104692914D02*
X105714286Y-104883390D01*
X105714286Y-104883390D02*
X105714286Y-105264342D01*
X105714286Y-105264342D02*
X105761905Y-105359580D01*
X105761905Y-105359580D02*
X105809524Y-105407200D01*
X105809524Y-105407200D02*
X105904762Y-105454819D01*
X105904762Y-105454819D02*
X106095238Y-105454819D01*
X106095238Y-105454819D02*
X106190476Y-105407200D01*
X106190476Y-105407200D02*
X106238095Y-105359580D01*
X106238095Y-105359580D02*
X106285714Y-105264342D01*
X106285714Y-105264342D02*
X106285714Y-105026247D01*
X106285714Y-105026247D02*
X106238095Y-104931009D01*
X106238095Y-104931009D02*
X106190476Y-104883390D01*
X106190476Y-104883390D02*
X106095238Y-104835771D01*
X106095238Y-104835771D02*
X105904762Y-104835771D01*
X105904762Y-104835771D02*
X105809524Y-104883390D01*
X105809524Y-104883390D02*
X105761905Y-104931009D01*
X105761905Y-104931009D02*
X105714286Y-105026247D01*
X99880952Y-104366069D02*
X99309524Y-104366069D01*
X99595238Y-104366069D02*
X99595238Y-103366069D01*
X99595238Y-103366069D02*
X99500000Y-103508926D01*
X99500000Y-103508926D02*
X99404762Y-103604164D01*
X99404762Y-103604164D02*
X99309524Y-103651783D01*
X100309524Y-104366069D02*
X100309524Y-103366069D01*
X100404762Y-103985116D02*
X100690476Y-104366069D01*
X100690476Y-103699402D02*
X100309524Y-104080354D01*
X114916667Y-113657200D02*
X115059524Y-113704819D01*
X115059524Y-113704819D02*
X115297619Y-113704819D01*
X115297619Y-113704819D02*
X115392857Y-113657200D01*
X115392857Y-113657200D02*
X115440476Y-113609580D01*
X115440476Y-113609580D02*
X115488095Y-113514342D01*
X115488095Y-113514342D02*
X115488095Y-113419104D01*
X115488095Y-113419104D02*
X115440476Y-113323866D01*
X115440476Y-113323866D02*
X115392857Y-113276247D01*
X115392857Y-113276247D02*
X115297619Y-113228628D01*
X115297619Y-113228628D02*
X115107143Y-113181009D01*
X115107143Y-113181009D02*
X115011905Y-113133390D01*
X115011905Y-113133390D02*
X114964286Y-113085771D01*
X114964286Y-113085771D02*
X114916667Y-112990533D01*
X114916667Y-112990533D02*
X114916667Y-112895295D01*
X114916667Y-112895295D02*
X114964286Y-112800057D01*
X114964286Y-112800057D02*
X115011905Y-112752438D01*
X115011905Y-112752438D02*
X115107143Y-112704819D01*
X115107143Y-112704819D02*
X115345238Y-112704819D01*
X115345238Y-112704819D02*
X115488095Y-112752438D01*
X115821429Y-112704819D02*
X116059524Y-113704819D01*
X116059524Y-113704819D02*
X116250000Y-112990533D01*
X116250000Y-112990533D02*
X116440476Y-113704819D01*
X116440476Y-113704819D02*
X116678572Y-112704819D01*
X117011905Y-112800057D02*
X117059524Y-112752438D01*
X117059524Y-112752438D02*
X117154762Y-112704819D01*
X117154762Y-112704819D02*
X117392857Y-112704819D01*
X117392857Y-112704819D02*
X117488095Y-112752438D01*
X117488095Y-112752438D02*
X117535714Y-112800057D01*
X117535714Y-112800057D02*
X117583333Y-112895295D01*
X117583333Y-112895295D02*
X117583333Y-112990533D01*
X117583333Y-112990533D02*
X117535714Y-113133390D01*
X117535714Y-113133390D02*
X116964286Y-113704819D01*
X116964286Y-113704819D02*
X117583333Y-113704819D01*
X113702381Y-122357200D02*
X113845238Y-122404819D01*
X113845238Y-122404819D02*
X114083333Y-122404819D01*
X114083333Y-122404819D02*
X114178571Y-122357200D01*
X114178571Y-122357200D02*
X114226190Y-122309580D01*
X114226190Y-122309580D02*
X114273809Y-122214342D01*
X114273809Y-122214342D02*
X114273809Y-122119104D01*
X114273809Y-122119104D02*
X114226190Y-122023866D01*
X114226190Y-122023866D02*
X114178571Y-121976247D01*
X114178571Y-121976247D02*
X114083333Y-121928628D01*
X114083333Y-121928628D02*
X113892857Y-121881009D01*
X113892857Y-121881009D02*
X113797619Y-121833390D01*
X113797619Y-121833390D02*
X113750000Y-121785771D01*
X113750000Y-121785771D02*
X113702381Y-121690533D01*
X113702381Y-121690533D02*
X113702381Y-121595295D01*
X113702381Y-121595295D02*
X113750000Y-121500057D01*
X113750000Y-121500057D02*
X113797619Y-121452438D01*
X113797619Y-121452438D02*
X113892857Y-121404819D01*
X113892857Y-121404819D02*
X114130952Y-121404819D01*
X114130952Y-121404819D02*
X114273809Y-121452438D01*
X114607143Y-121404819D02*
X114845238Y-122404819D01*
X114845238Y-122404819D02*
X115035714Y-121690533D01*
X115035714Y-121690533D02*
X115226190Y-122404819D01*
X115226190Y-122404819D02*
X115464286Y-121404819D01*
X115607143Y-122500057D02*
X116369047Y-122500057D01*
X116607143Y-122404819D02*
X116607143Y-121404819D01*
X116607143Y-121404819D02*
X116988095Y-121404819D01*
X116988095Y-121404819D02*
X117083333Y-121452438D01*
X117083333Y-121452438D02*
X117130952Y-121500057D01*
X117130952Y-121500057D02*
X117178571Y-121595295D01*
X117178571Y-121595295D02*
X117178571Y-121738152D01*
X117178571Y-121738152D02*
X117130952Y-121833390D01*
X117130952Y-121833390D02*
X117083333Y-121881009D01*
X117083333Y-121881009D02*
X116988095Y-121928628D01*
X116988095Y-121928628D02*
X116607143Y-121928628D01*
X118035714Y-121738152D02*
X118035714Y-122404819D01*
X117607143Y-121738152D02*
X117607143Y-122261961D01*
X117607143Y-122261961D02*
X117654762Y-122357200D01*
X117654762Y-122357200D02*
X117750000Y-122404819D01*
X117750000Y-122404819D02*
X117892857Y-122404819D01*
X117892857Y-122404819D02*
X117988095Y-122357200D01*
X117988095Y-122357200D02*
X118035714Y-122309580D01*
X118464286Y-122357200D02*
X118559524Y-122404819D01*
X118559524Y-122404819D02*
X118750000Y-122404819D01*
X118750000Y-122404819D02*
X118845238Y-122357200D01*
X118845238Y-122357200D02*
X118892857Y-122261961D01*
X118892857Y-122261961D02*
X118892857Y-122214342D01*
X118892857Y-122214342D02*
X118845238Y-122119104D01*
X118845238Y-122119104D02*
X118750000Y-122071485D01*
X118750000Y-122071485D02*
X118607143Y-122071485D01*
X118607143Y-122071485D02*
X118511905Y-122023866D01*
X118511905Y-122023866D02*
X118464286Y-121928628D01*
X118464286Y-121928628D02*
X118464286Y-121881009D01*
X118464286Y-121881009D02*
X118511905Y-121785771D01*
X118511905Y-121785771D02*
X118607143Y-121738152D01*
X118607143Y-121738152D02*
X118750000Y-121738152D01*
X118750000Y-121738152D02*
X118845238Y-121785771D01*
X119321429Y-122404819D02*
X119321429Y-121404819D01*
X119750000Y-122404819D02*
X119750000Y-121881009D01*
X119750000Y-121881009D02*
X119702381Y-121785771D01*
X119702381Y-121785771D02*
X119607143Y-121738152D01*
X119607143Y-121738152D02*
X119464286Y-121738152D01*
X119464286Y-121738152D02*
X119369048Y-121785771D01*
X119369048Y-121785771D02*
X119321429Y-121833390D01*
X137159580Y-129141666D02*
X137207200Y-129189285D01*
X137207200Y-129189285D02*
X137254819Y-129332142D01*
X137254819Y-129332142D02*
X137254819Y-129427380D01*
X137254819Y-129427380D02*
X137207200Y-129570237D01*
X137207200Y-129570237D02*
X137111961Y-129665475D01*
X137111961Y-129665475D02*
X137016723Y-129713094D01*
X137016723Y-129713094D02*
X136826247Y-129760713D01*
X136826247Y-129760713D02*
X136683390Y-129760713D01*
X136683390Y-129760713D02*
X136492914Y-129713094D01*
X136492914Y-129713094D02*
X136397676Y-129665475D01*
X136397676Y-129665475D02*
X136302438Y-129570237D01*
X136302438Y-129570237D02*
X136254819Y-129427380D01*
X136254819Y-129427380D02*
X136254819Y-129332142D01*
X136254819Y-129332142D02*
X136302438Y-129189285D01*
X136302438Y-129189285D02*
X136350057Y-129141666D01*
X136588152Y-128284523D02*
X137254819Y-128284523D01*
X136207200Y-128522618D02*
X136921485Y-128760713D01*
X136921485Y-128760713D02*
X136921485Y-128141666D01*
X140954819Y-130046428D02*
X140954819Y-130617856D01*
X140954819Y-130332142D02*
X139954819Y-130332142D01*
X139954819Y-130332142D02*
X140097676Y-130427380D01*
X140097676Y-130427380D02*
X140192914Y-130522618D01*
X140192914Y-130522618D02*
X140240533Y-130617856D01*
X139954819Y-129427380D02*
X139954819Y-129332142D01*
X139954819Y-129332142D02*
X140002438Y-129236904D01*
X140002438Y-129236904D02*
X140050057Y-129189285D01*
X140050057Y-129189285D02*
X140145295Y-129141666D01*
X140145295Y-129141666D02*
X140335771Y-129094047D01*
X140335771Y-129094047D02*
X140573866Y-129094047D01*
X140573866Y-129094047D02*
X140764342Y-129141666D01*
X140764342Y-129141666D02*
X140859580Y-129189285D01*
X140859580Y-129189285D02*
X140907200Y-129236904D01*
X140907200Y-129236904D02*
X140954819Y-129332142D01*
X140954819Y-129332142D02*
X140954819Y-129427380D01*
X140954819Y-129427380D02*
X140907200Y-129522618D01*
X140907200Y-129522618D02*
X140859580Y-129570237D01*
X140859580Y-129570237D02*
X140764342Y-129617856D01*
X140764342Y-129617856D02*
X140573866Y-129665475D01*
X140573866Y-129665475D02*
X140335771Y-129665475D01*
X140335771Y-129665475D02*
X140145295Y-129617856D01*
X140145295Y-129617856D02*
X140050057Y-129570237D01*
X140050057Y-129570237D02*
X140002438Y-129522618D01*
X140002438Y-129522618D02*
X139954819Y-129427380D01*
X140288152Y-128236904D02*
X140954819Y-128236904D01*
X140288152Y-128665475D02*
X140811961Y-128665475D01*
X140811961Y-128665475D02*
X140907200Y-128617856D01*
X140907200Y-128617856D02*
X140954819Y-128522618D01*
X140954819Y-128522618D02*
X140954819Y-128379761D01*
X140954819Y-128379761D02*
X140907200Y-128284523D01*
X140907200Y-128284523D02*
X140859580Y-128236904D01*
X140431009Y-127427380D02*
X140431009Y-127760713D01*
X140954819Y-127760713D02*
X139954819Y-127760713D01*
X139954819Y-127760713D02*
X139954819Y-127284523D01*
X138666666Y-90454819D02*
X138666666Y-91169104D01*
X138666666Y-91169104D02*
X138619047Y-91311961D01*
X138619047Y-91311961D02*
X138523809Y-91407200D01*
X138523809Y-91407200D02*
X138380952Y-91454819D01*
X138380952Y-91454819D02*
X138285714Y-91454819D01*
X139047619Y-90454819D02*
X139666666Y-90454819D01*
X139666666Y-90454819D02*
X139333333Y-90835771D01*
X139333333Y-90835771D02*
X139476190Y-90835771D01*
X139476190Y-90835771D02*
X139571428Y-90883390D01*
X139571428Y-90883390D02*
X139619047Y-90931009D01*
X139619047Y-90931009D02*
X139666666Y-91026247D01*
X139666666Y-91026247D02*
X139666666Y-91264342D01*
X139666666Y-91264342D02*
X139619047Y-91359580D01*
X139619047Y-91359580D02*
X139571428Y-91407200D01*
X139571428Y-91407200D02*
X139476190Y-91454819D01*
X139476190Y-91454819D02*
X139190476Y-91454819D01*
X139190476Y-91454819D02*
X139095238Y-91407200D01*
X139095238Y-91407200D02*
X139047619Y-91359580D01*
X130690475Y-102359580D02*
X130642856Y-102407200D01*
X130642856Y-102407200D02*
X130499999Y-102454819D01*
X130499999Y-102454819D02*
X130404761Y-102454819D01*
X130404761Y-102454819D02*
X130261904Y-102407200D01*
X130261904Y-102407200D02*
X130166666Y-102311961D01*
X130166666Y-102311961D02*
X130119047Y-102216723D01*
X130119047Y-102216723D02*
X130071428Y-102026247D01*
X130071428Y-102026247D02*
X130071428Y-101883390D01*
X130071428Y-101883390D02*
X130119047Y-101692914D01*
X130119047Y-101692914D02*
X130166666Y-101597676D01*
X130166666Y-101597676D02*
X130261904Y-101502438D01*
X130261904Y-101502438D02*
X130404761Y-101454819D01*
X130404761Y-101454819D02*
X130499999Y-101454819D01*
X130499999Y-101454819D02*
X130642856Y-101502438D01*
X130642856Y-101502438D02*
X130690475Y-101550057D01*
X131261904Y-102454819D02*
X131166666Y-102407200D01*
X131166666Y-102407200D02*
X131119047Y-102359580D01*
X131119047Y-102359580D02*
X131071428Y-102264342D01*
X131071428Y-102264342D02*
X131071428Y-101978628D01*
X131071428Y-101978628D02*
X131119047Y-101883390D01*
X131119047Y-101883390D02*
X131166666Y-101835771D01*
X131166666Y-101835771D02*
X131261904Y-101788152D01*
X131261904Y-101788152D02*
X131404761Y-101788152D01*
X131404761Y-101788152D02*
X131499999Y-101835771D01*
X131499999Y-101835771D02*
X131547618Y-101883390D01*
X131547618Y-101883390D02*
X131595237Y-101978628D01*
X131595237Y-101978628D02*
X131595237Y-102264342D01*
X131595237Y-102264342D02*
X131547618Y-102359580D01*
X131547618Y-102359580D02*
X131499999Y-102407200D01*
X131499999Y-102407200D02*
X131404761Y-102454819D01*
X131404761Y-102454819D02*
X131261904Y-102454819D01*
X132023809Y-101788152D02*
X132023809Y-102454819D01*
X132023809Y-101883390D02*
X132071428Y-101835771D01*
X132071428Y-101835771D02*
X132166666Y-101788152D01*
X132166666Y-101788152D02*
X132309523Y-101788152D01*
X132309523Y-101788152D02*
X132404761Y-101835771D01*
X132404761Y-101835771D02*
X132452380Y-101931009D01*
X132452380Y-101931009D02*
X132452380Y-102454819D01*
X132928571Y-101788152D02*
X132928571Y-102454819D01*
X132928571Y-101883390D02*
X132976190Y-101835771D01*
X132976190Y-101835771D02*
X133071428Y-101788152D01*
X133071428Y-101788152D02*
X133214285Y-101788152D01*
X133214285Y-101788152D02*
X133309523Y-101835771D01*
X133309523Y-101835771D02*
X133357142Y-101931009D01*
X133357142Y-101931009D02*
X133357142Y-102454819D01*
X133595238Y-102550057D02*
X134357142Y-102550057D01*
X134785714Y-101454819D02*
X134880952Y-101454819D01*
X134880952Y-101454819D02*
X134976190Y-101502438D01*
X134976190Y-101502438D02*
X135023809Y-101550057D01*
X135023809Y-101550057D02*
X135071428Y-101645295D01*
X135071428Y-101645295D02*
X135119047Y-101835771D01*
X135119047Y-101835771D02*
X135119047Y-102073866D01*
X135119047Y-102073866D02*
X135071428Y-102264342D01*
X135071428Y-102264342D02*
X135023809Y-102359580D01*
X135023809Y-102359580D02*
X134976190Y-102407200D01*
X134976190Y-102407200D02*
X134880952Y-102454819D01*
X134880952Y-102454819D02*
X134785714Y-102454819D01*
X134785714Y-102454819D02*
X134690476Y-102407200D01*
X134690476Y-102407200D02*
X134642857Y-102359580D01*
X134642857Y-102359580D02*
X134595238Y-102264342D01*
X134595238Y-102264342D02*
X134547619Y-102073866D01*
X134547619Y-102073866D02*
X134547619Y-101835771D01*
X134547619Y-101835771D02*
X134595238Y-101645295D01*
X134595238Y-101645295D02*
X134642857Y-101550057D01*
X134642857Y-101550057D02*
X134690476Y-101502438D01*
X134690476Y-101502438D02*
X134785714Y-101454819D01*
X136071428Y-102454819D02*
X135500000Y-102454819D01*
X135785714Y-102454819D02*
X135785714Y-101454819D01*
X135785714Y-101454819D02*
X135690476Y-101597676D01*
X135690476Y-101597676D02*
X135595238Y-101692914D01*
X135595238Y-101692914D02*
X135500000Y-101740533D01*
X136404762Y-102454819D02*
X136928571Y-101788152D01*
X136404762Y-101788152D02*
X136928571Y-102454819D01*
X137500000Y-101454819D02*
X137595238Y-101454819D01*
X137595238Y-101454819D02*
X137690476Y-101502438D01*
X137690476Y-101502438D02*
X137738095Y-101550057D01*
X137738095Y-101550057D02*
X137785714Y-101645295D01*
X137785714Y-101645295D02*
X137833333Y-101835771D01*
X137833333Y-101835771D02*
X137833333Y-102073866D01*
X137833333Y-102073866D02*
X137785714Y-102264342D01*
X137785714Y-102264342D02*
X137738095Y-102359580D01*
X137738095Y-102359580D02*
X137690476Y-102407200D01*
X137690476Y-102407200D02*
X137595238Y-102454819D01*
X137595238Y-102454819D02*
X137500000Y-102454819D01*
X137500000Y-102454819D02*
X137404762Y-102407200D01*
X137404762Y-102407200D02*
X137357143Y-102359580D01*
X137357143Y-102359580D02*
X137309524Y-102264342D01*
X137309524Y-102264342D02*
X137261905Y-102073866D01*
X137261905Y-102073866D02*
X137261905Y-101835771D01*
X137261905Y-101835771D02*
X137309524Y-101645295D01*
X137309524Y-101645295D02*
X137357143Y-101550057D01*
X137357143Y-101550057D02*
X137404762Y-101502438D01*
X137404762Y-101502438D02*
X137500000Y-101454819D01*
X138690476Y-101788152D02*
X138690476Y-102454819D01*
X138452381Y-101407200D02*
X138214286Y-102121485D01*
X138214286Y-102121485D02*
X138833333Y-102121485D01*
X138976191Y-102550057D02*
X139738095Y-102550057D01*
X139976191Y-102454819D02*
X139976191Y-101454819D01*
X139976191Y-101454819D02*
X140357143Y-101454819D01*
X140357143Y-101454819D02*
X140452381Y-101502438D01*
X140452381Y-101502438D02*
X140500000Y-101550057D01*
X140500000Y-101550057D02*
X140547619Y-101645295D01*
X140547619Y-101645295D02*
X140547619Y-101788152D01*
X140547619Y-101788152D02*
X140500000Y-101883390D01*
X140500000Y-101883390D02*
X140452381Y-101931009D01*
X140452381Y-101931009D02*
X140357143Y-101978628D01*
X140357143Y-101978628D02*
X139976191Y-101978628D01*
X140976191Y-102454819D02*
X140976191Y-101788152D01*
X140976191Y-101454819D02*
X140928572Y-101502438D01*
X140928572Y-101502438D02*
X140976191Y-101550057D01*
X140976191Y-101550057D02*
X141023810Y-101502438D01*
X141023810Y-101502438D02*
X140976191Y-101454819D01*
X140976191Y-101454819D02*
X140976191Y-101550057D01*
X141452381Y-101788152D02*
X141452381Y-102454819D01*
X141452381Y-101883390D02*
X141500000Y-101835771D01*
X141500000Y-101835771D02*
X141595238Y-101788152D01*
X141595238Y-101788152D02*
X141738095Y-101788152D01*
X141738095Y-101788152D02*
X141833333Y-101835771D01*
X141833333Y-101835771D02*
X141880952Y-101931009D01*
X141880952Y-101931009D02*
X141880952Y-102454819D01*
%TO.C,R3*%
D12*
X149515000Y-98935436D02*
X149515000Y-99389564D01*
X150985000Y-98935436D02*
X150985000Y-99389564D01*
%TO.C,R7*%
X134140000Y-111935436D02*
X134140000Y-112389564D01*
X135610000Y-111935436D02*
X135610000Y-112389564D01*
%TO.C,U3*%
X160665000Y-99920000D02*
X162045000Y-99920000D01*
X162045000Y-98540000D02*
X162045000Y-99920000D01*
X159165000Y-88730000D02*
X197165000Y-88730000D01*
X197165000Y-100730000D01*
X159165000Y-100730000D01*
X159165000Y-88730000D01*
%TO.C,C2*%
X99240000Y-127763748D02*
X99240000Y-129186252D01*
X101060000Y-127763748D02*
X101060000Y-129186252D01*
%TO.C,U1*%
X108130000Y-83290000D02*
X108130000Y-89450000D01*
X108130000Y-83290000D02*
X126370000Y-83290000D01*
X108130000Y-108250000D02*
X108130000Y-109030000D01*
X108130000Y-109030000D02*
X109130000Y-109030000D01*
X126370000Y-83290000D02*
X126370000Y-89705000D01*
X126370000Y-108250000D02*
X126370000Y-109030000D01*
X126370000Y-109030000D02*
X125370000Y-109030000D01*
X108125000Y-90175000D02*
X107625000Y-90175000D01*
X108125000Y-89675000D01*
X108125000Y-90175000D01*
G36*
X108125000Y-90175000D02*
G01*
X107625000Y-90175000D01*
X108125000Y-89675000D01*
X108125000Y-90175000D01*
G37*
%TO.C,R5*%
X126772936Y-114515000D02*
X127227064Y-114515000D01*
X126772936Y-115985000D02*
X127227064Y-115985000D01*
%TO.C,C6*%
X88765000Y-91488748D02*
X88765000Y-92011252D01*
X90235000Y-91488748D02*
X90235000Y-92011252D01*
%TO.C,U4*%
X121300000Y-125090000D02*
X125060000Y-125090000D01*
X121300000Y-131910000D02*
X125060000Y-131910000D01*
X125060000Y-125090000D02*
X125060000Y-126350000D01*
X125060000Y-131910000D02*
X125060000Y-130650000D01*
X120020000Y-125190000D02*
X119780000Y-124860000D01*
X120260000Y-124860000D01*
X120020000Y-125190000D01*
G36*
X120020000Y-125190000D02*
G01*
X119780000Y-124860000D01*
X120260000Y-124860000D01*
X120020000Y-125190000D01*
G37*
%TO.C,J2*%
X92120000Y-107370000D02*
X93500000Y-107370000D01*
X92120000Y-108750000D02*
X92120000Y-107370000D01*
X92120000Y-110020000D02*
X92120000Y-112670000D01*
X92120000Y-110020000D02*
X94880000Y-110020000D01*
X92120000Y-112670000D02*
X94880000Y-112670000D01*
X94880000Y-110020000D02*
X94880000Y-112670000D01*
%TO.C,R8*%
X95814564Y-94565000D02*
X95360436Y-94565000D01*
X95814564Y-96035000D02*
X95360436Y-96035000D01*
%TO.C,J1*%
X88520000Y-125620000D02*
X89900000Y-125620000D01*
X88520000Y-127000000D02*
X88520000Y-125620000D01*
X88520000Y-128270000D02*
X88520000Y-130920000D01*
X88520000Y-128270000D02*
X91280000Y-128270000D01*
X88520000Y-130920000D02*
X91280000Y-130920000D01*
X91280000Y-128270000D02*
X91280000Y-130920000D01*
%TO.C,D2*%
X74990000Y-114600000D02*
X74990000Y-117900000D01*
X74990000Y-114600000D02*
X80500000Y-114600000D01*
X74990000Y-117900000D02*
X80500000Y-117900000D01*
%TO.C,U2*%
X146715000Y-109900000D02*
X146715000Y-111900000D01*
X146715000Y-109900000D02*
X148325000Y-109900000D01*
X146995000Y-122440000D02*
X146995000Y-110190000D01*
X147005000Y-110180000D02*
X152745000Y-110180000D01*
X152755000Y-110180000D02*
X152755000Y-122440000D01*
X152755000Y-122440000D02*
X146995000Y-122440000D01*
%TO.C,Q1*%
X85427500Y-108640000D02*
X86947500Y-108640000D01*
X85427500Y-108690000D02*
X85427500Y-108640000D01*
X85427500Y-110590000D02*
X85427500Y-109810000D01*
X85427500Y-111760000D02*
X85427500Y-111710000D01*
X86947500Y-108640000D02*
X86947500Y-109640000D01*
X86947500Y-110760000D02*
X86947500Y-111760000D01*
X86947500Y-111760000D02*
X85427500Y-111760000D01*
X84887500Y-109820000D02*
X85127500Y-110150000D01*
X84647500Y-110150000D01*
X84887500Y-109820000D01*
G36*
X85127500Y-110150000D02*
G01*
X84647500Y-110150000D01*
X84887500Y-109820000D01*
X85127500Y-110150000D01*
G37*
%TO.C,SW1*%
X76250000Y-91000000D02*
X76250000Y-92500000D01*
X77500000Y-95000000D02*
X82000000Y-95000000D01*
X82000000Y-88500000D02*
X77500000Y-88500000D01*
X83250000Y-92500000D02*
X83250000Y-91000000D01*
%TO.C,C3*%
X108565000Y-127688748D02*
X108565000Y-128211252D01*
X110035000Y-127688748D02*
X110035000Y-128211252D01*
%TO.C,C7*%
X103211252Y-91140000D02*
X101788748Y-91140000D01*
X103211252Y-92960000D02*
X101788748Y-92960000D01*
%TO.C,R1*%
X75515000Y-109935436D02*
X75515000Y-110389564D01*
X76985000Y-109935436D02*
X76985000Y-110389564D01*
%TO.C,D1*%
X99420000Y-110205000D02*
X99420000Y-113295000D01*
X99420000Y-110205170D02*
G75*
G02*
X104970000Y-111750000I2560000J-1544830D01*
G01*
X104970000Y-111750000D02*
G75*
G02*
X99420000Y-113294830I-2990000J0D01*
G01*
X104480000Y-111750000D02*
G75*
G02*
X99480000Y-111750000I-2500000J0D01*
G01*
X99480000Y-111750000D02*
G75*
G02*
X104480000Y-111750000I2500000J0D01*
G01*
%TO.C,R2*%
X147430000Y-92605436D02*
X147430000Y-93059564D01*
X148900000Y-92605436D02*
X148900000Y-93059564D01*
%TO.C,R4*%
X77414564Y-101715000D02*
X76960436Y-101715000D01*
X77414564Y-103185000D02*
X76960436Y-103185000D01*
%TO.C,C5*%
X148165000Y-128961252D02*
X148165000Y-128438748D01*
X149635000Y-128961252D02*
X149635000Y-128438748D01*
%TO.C,R6*%
X103139564Y-103176250D02*
X102685436Y-103176250D01*
X103139564Y-104646250D02*
X102685436Y-104646250D01*
%TO.C,SW2*%
X112750000Y-116750000D02*
X112750000Y-118250000D01*
X114000000Y-120750000D02*
X118500000Y-120750000D01*
X118500000Y-114250000D02*
X114000000Y-114250000D01*
X119750000Y-118250000D02*
X119750000Y-116750000D01*
%TO.C,C4*%
X137740000Y-129686252D02*
X137740000Y-128263748D01*
X139560000Y-129686252D02*
X139560000Y-128263748D01*
%TO.C,J3*%
X134620000Y-90620000D02*
X136000000Y-90620000D01*
X134620000Y-92000000D02*
X134620000Y-90620000D01*
X134620000Y-93270000D02*
X134620000Y-101000000D01*
X134620000Y-93270000D02*
X137380000Y-93270000D01*
X134620000Y-101000000D02*
X137380000Y-101000000D01*
X137380000Y-93270000D02*
X137380000Y-101000000D01*
%TD*%
M02*
