%TF.GenerationSoftware,KiCad,Pcbnew,10.0.5*%
%TF.CreationDate,2026-08-19T20:51:00+05:30*%
%TF.ProjectId,p7,70372e6b-6963-4616-945f-706362585858,rev?*%
%TF.SameCoordinates,Original*%
%TF.FileFunction,Copper,L1,Top*%
%TF.FilePolarity,Positive*%
%FSLAX46Y46*%
G04 Gerber Fmt 4.6, Leading zero omitted, Abs format (unit mm)*
G04 Created by KiCad (PCBNEW 10.0.5) date 2026-08-19 20:51:00*
%MOMM*%
%LPD*%
G01*
G04 APERTURE LIST*
G04 Aperture macros list*
%AMRoundRect*
0 Rectangle with rounded corners*
0 $1 Rounding radius*
0 $2 $3 $4 $5 $6 $7 $8 $9 X,Y pos of 4 corners*
0 Add a 4 corners polygon primitive as box body*
4,1,4,$2,$3,$4,$5,$6,$7,$8,$9,$2,$3,0*
0 Add four circle primitives for the rounded corners*
1,1,$1+$1,$2,$3*
1,1,$1+$1,$4,$5*
1,1,$1+$1,$6,$7*
1,1,$1+$1,$8,$9*
0 Add four rect primitives between the rounded corners*
20,1,$1+$1,$2,$3,$4,$5,0*
20,1,$1+$1,$4,$5,$6,$7,0*
20,1,$1+$1,$6,$7,$8,$9,0*
20,1,$1+$1,$8,$9,$2,$3,0*%
G04 Aperture macros list end*
%TA.AperFunction,SMDPad,CuDef*%
%ADD10RoundRect,0.250000X-0.450000X0.262500X-0.450000X-0.262500X0.450000X-0.262500X0.450000X0.262500X0*%
%TD*%
%TA.AperFunction,ComponentPad*%
%ADD11RoundRect,0.170000X0.680000X-0.680000X0.680000X0.680000X-0.680000X0.680000X-0.680000X-0.680000X0*%
%TD*%
%TA.AperFunction,ComponentPad*%
%ADD12C,1.700000*%
%TD*%
%TA.AperFunction,SMDPad,CuDef*%
%ADD13RoundRect,0.250000X-0.650000X0.325000X-0.650000X-0.325000X0.650000X-0.325000X0.650000X0.325000X0*%
%TD*%
%TA.AperFunction,SMDPad,CuDef*%
%ADD14R,1.500000X0.900000*%
%TD*%
%TA.AperFunction,SMDPad,CuDef*%
%ADD15R,0.900000X1.500000*%
%TD*%
%TA.AperFunction,SMDPad,CuDef*%
%ADD16R,1.050000X1.050000*%
%TD*%
%TA.AperFunction,HeatsinkPad*%
%ADD17C,0.600000*%
%TD*%
%TA.AperFunction,HeatsinkPad*%
%ADD18R,4.200000X4.200000*%
%TD*%
%TA.AperFunction,SMDPad,CuDef*%
%ADD19RoundRect,0.250000X-0.262500X-0.450000X0.262500X-0.450000X0.262500X0.450000X-0.262500X0.450000X0*%
%TD*%
%TA.AperFunction,SMDPad,CuDef*%
%ADD20RoundRect,0.250000X-0.475000X0.250000X-0.475000X-0.250000X0.475000X-0.250000X0.475000X0.250000X0*%
%TD*%
%TA.AperFunction,SMDPad,CuDef*%
%ADD21RoundRect,0.375000X-0.625000X-0.375000X0.625000X-0.375000X0.625000X0.375000X-0.625000X0.375000X0*%
%TD*%
%TA.AperFunction,SMDPad,CuDef*%
%ADD22RoundRect,0.500000X-0.500000X-1.400000X0.500000X-1.400000X0.500000X1.400000X-0.500000X1.400000X0*%
%TD*%
%TA.AperFunction,ComponentPad*%
%ADD23R,1.700000X1.700000*%
%TD*%
%TA.AperFunction,SMDPad,CuDef*%
%ADD24RoundRect,0.250000X0.262500X0.450000X-0.262500X0.450000X-0.262500X-0.450000X0.262500X-0.450000X0*%
%TD*%
%TA.AperFunction,SMDPad,CuDef*%
%ADD25RoundRect,0.250000X-1.000000X-0.650000X1.000000X-0.650000X1.000000X0.650000X-1.000000X0.650000X0*%
%TD*%
%TA.AperFunction,ComponentPad*%
%ADD26R,1.500000X1.500000*%
%TD*%
%TA.AperFunction,ComponentPad*%
%ADD27C,1.500000*%
%TD*%
%TA.AperFunction,SMDPad,CuDef*%
%ADD28RoundRect,0.150000X-0.587500X-0.150000X0.587500X-0.150000X0.587500X0.150000X-0.587500X0.150000X0*%
%TD*%
%TA.AperFunction,ComponentPad*%
%ADD29C,2.000000*%
%TD*%
%TA.AperFunction,SMDPad,CuDef*%
%ADD30RoundRect,0.250000X0.325000X0.650000X-0.325000X0.650000X-0.325000X-0.650000X0.325000X-0.650000X0*%
%TD*%
%TA.AperFunction,ComponentPad*%
%ADD31R,1.800000X1.800000*%
%TD*%
%TA.AperFunction,ComponentPad*%
%ADD32C,1.800000*%
%TD*%
%TA.AperFunction,SMDPad,CuDef*%
%ADD33RoundRect,0.250000X0.475000X-0.250000X0.475000X0.250000X-0.475000X0.250000X-0.475000X-0.250000X0*%
%TD*%
%TA.AperFunction,SMDPad,CuDef*%
%ADD34RoundRect,0.250000X0.650000X-0.325000X0.650000X0.325000X-0.650000X0.325000X-0.650000X-0.325000X0*%
%TD*%
%TA.AperFunction,Conductor*%
%ADD35C,0.300000*%
%TD*%
G04 APERTURE END LIST*
D10*
%TO.P,R3,1*%
%TO.N,Net-(U1-IO21)*%
X150250000Y-98250000D03*
%TO.P,R3,2*%
%TO.N,+3.3V*%
X150250000Y-100075000D03*
%TD*%
%TO.P,R7,1*%
%TO.N,Net-(U1-IO4)*%
X134875000Y-111250000D03*
%TO.P,R7,2*%
%TO.N,+3.3V*%
X134875000Y-113075000D03*
%TD*%
D11*
%TO.P,U3,1,GND_1*%
%TO.N,GND*%
X160665000Y-98540000D03*
D12*
%TO.P,U3,2,VCC_2*%
%TO.N,+3.3V*%
X160665000Y-96000000D03*
%TO.P,U3,3,SCL_3*%
%TO.N,Net-(U1-IO22)*%
X160665000Y-93460000D03*
%TO.P,U3,4,SDA_4*%
%TO.N,Net-(U1-IO21)*%
X160665000Y-90920000D03*
%TD*%
D13*
%TO.P,C2,1*%
%TO.N,+5V*%
X100150000Y-127000000D03*
%TO.P,C2,2*%
%TO.N,GND*%
X100150000Y-129950000D03*
%TD*%
D14*
%TO.P,U1,1,GND_1*%
%TO.N,GND*%
X108500000Y-90900000D03*
%TO.P,U1,2,VDD_2*%
%TO.N,+3.3V*%
X108500000Y-92170000D03*
%TO.P,U1,3,EN_3*%
%TO.N,Net-(U1-EN)*%
X108500000Y-93440000D03*
%TO.P,U1,4,SENSOR_VP_4*%
%TO.N,unconnected-(U1-SENSOR_VP-Pad4)*%
X108500000Y-94710000D03*
%TO.P,U1,5,SENSOR_VN_5*%
%TO.N,unconnected-(U1-SENSOR_VN-Pad5)*%
X108500000Y-95980000D03*
%TO.P,U1,6,IO34_6*%
%TO.N,unconnected-(U1-IO34-Pad6)*%
X108500000Y-97250000D03*
%TO.P,U1,7,IO35_7*%
%TO.N,unconnected-(U1-IO35-Pad7)*%
X108500000Y-98520000D03*
%TO.P,U1,8,IO32_8*%
%TO.N,unconnected-(U1-IO32-Pad8)*%
X108500000Y-99790000D03*
%TO.P,U1,9,IO33_9*%
%TO.N,unconnected-(U1-IO33-Pad9)*%
X108500000Y-101060000D03*
%TO.P,U1,10,IO25_10*%
%TO.N,Net-(U1-IO25)*%
X108500000Y-102330000D03*
%TO.P,U1,11,IO26_11*%
%TO.N,Net-(U1-IO26)*%
X108500000Y-103600000D03*
%TO.P,U1,12,IO27_12*%
%TO.N,unconnected-(U1-IO27-Pad12)*%
X108500000Y-104870000D03*
%TO.P,U1,13,IO14_13*%
%TO.N,unconnected-(U1-IO14-Pad13)*%
X108500000Y-106140000D03*
%TO.P,U1,14,IO12_14*%
%TO.N,unconnected-(U1-IO12-Pad14)*%
X108500000Y-107410000D03*
D15*
%TO.P,U1,15,GND_15*%
%TO.N,GND*%
X111540000Y-108660000D03*
%TO.P,U1,16,IO13_16*%
%TO.N,unconnected-(U1-IO13-Pad16)*%
X112810000Y-108660000D03*
%TO.P,U1,17,SHD/SD2_17*%
%TO.N,unconnected-(U1-SHD{slash}SD2-Pad17)*%
X114080000Y-108660000D03*
%TO.P,U1,18,SWP/SD3_18*%
%TO.N,unconnected-(U1-SWP{slash}SD3-Pad18)*%
X115350000Y-108660000D03*
%TO.P,U1,19,SCS/CMD_19*%
%TO.N,unconnected-(U1-SCS{slash}CMD-Pad19)*%
X116620000Y-108660000D03*
%TO.P,U1,20,SCK/CLK_20*%
%TO.N,unconnected-(U1-SCK{slash}CLK-Pad20)*%
X117890000Y-108660000D03*
%TO.P,U1,21,SDO/SD0_21*%
%TO.N,unconnected-(U1-SDO{slash}SD0-Pad21)*%
X119160000Y-108660000D03*
%TO.P,U1,22,SDI/SD1_22*%
%TO.N,unconnected-(U1-SDI{slash}SD1-Pad22)*%
X120430000Y-108660000D03*
%TO.P,U1,23,IO15_23*%
%TO.N,unconnected-(U1-IO15-Pad23)*%
X121700000Y-108660000D03*
%TO.P,U1,24,IO2_24*%
%TO.N,unconnected-(U1-IO2-Pad24)*%
X122970000Y-108660000D03*
D14*
%TO.P,U1,25,IO0_25*%
%TO.N,Net-(U1-IO0)*%
X126000000Y-107410000D03*
%TO.P,U1,26,IO4_26*%
%TO.N,Net-(U1-IO4)*%
X126000000Y-106140000D03*
%TO.P,U1,27,IO16_27*%
%TO.N,unconnected-(U1-IO16-Pad27)*%
X126000000Y-104870000D03*
%TO.P,U1,28,IO17_28*%
%TO.N,unconnected-(U1-IO17-Pad28)*%
X126000000Y-103600000D03*
%TO.P,U1,29,IO5_29*%
%TO.N,unconnected-(U1-IO5-Pad29)*%
X126000000Y-102330000D03*
%TO.P,U1,30,IO18_30*%
%TO.N,unconnected-(U1-IO18-Pad30)*%
X126000000Y-101060000D03*
%TO.P,U1,31,IO19_31*%
%TO.N,unconnected-(U1-IO19-Pad31)*%
X126000000Y-99790000D03*
%TO.P,U1,32,NC_32*%
%TO.N,unconnected-(U1-NC-Pad32)*%
X126000000Y-98520000D03*
%TO.P,U1,33,IO21_33*%
%TO.N,Net-(U1-IO21)*%
X126000000Y-97250000D03*
%TO.P,U1,34,RXD0/IO3_34*%
%TO.N,Net-(J3-Pin_3)*%
X126000000Y-95980000D03*
%TO.P,U1,35,TXD0/IO1_35*%
%TO.N,Net-(J3-Pin_2)*%
X126000000Y-94710000D03*
%TO.P,U1,36,IO22_36*%
%TO.N,Net-(U1-IO22)*%
X126000000Y-93440000D03*
%TO.P,U1,37,IO23_37*%
%TO.N,unconnected-(U1-IO23-Pad37)*%
X126000000Y-92170000D03*
%TO.P,U1,38,GND_38*%
%TO.N,GND*%
X126000000Y-90900000D03*
D16*
%TO.P,U1,39,GND_39*%
X115045000Y-96715000D03*
D17*
X115045000Y-97477500D03*
D16*
X115045000Y-98240000D03*
D17*
X115045000Y-99002500D03*
D16*
X115045000Y-99765000D03*
D17*
X115807500Y-96715000D03*
X115807500Y-98240000D03*
X115807500Y-99765000D03*
D16*
X116570000Y-96715000D03*
D17*
X116570000Y-97477500D03*
D16*
X116570000Y-98240000D03*
D18*
X116570000Y-98240000D03*
D17*
X116570000Y-99002500D03*
D16*
X116570000Y-99765000D03*
D17*
X117332500Y-96715000D03*
X117332500Y-98240000D03*
X117332500Y-99765000D03*
D16*
X118095000Y-96715000D03*
D17*
X118095000Y-97477500D03*
D16*
X118095000Y-98240000D03*
D17*
X118095000Y-99002500D03*
D16*
X118095000Y-99765000D03*
%TD*%
D19*
%TO.P,R5,1*%
%TO.N,Net-(U1-IO0)*%
X126087500Y-115250000D03*
%TO.P,R5,2*%
%TO.N,+3.3V*%
X127912500Y-115250000D03*
%TD*%
D20*
%TO.P,C6,1*%
%TO.N,+3.3V*%
X89500000Y-90800000D03*
%TO.P,C6,2*%
%TO.N,GND*%
X89500000Y-92700000D03*
%TD*%
D21*
%TO.P,U4,1,GND_1*%
%TO.N,GND*%
X120000000Y-126200000D03*
%TO.P,U4,2,VO_2*%
X120000000Y-128500000D03*
D22*
X126300000Y-128500000D03*
D21*
%TO.P,U4,3,VI_3*%
%TO.N,+5V*%
X120000000Y-130800000D03*
%TD*%
D23*
%TO.P,J2,1,Pin_1_1*%
%TO.N,+12V*%
X93500000Y-108750000D03*
D12*
%TO.P,J2,2,Pin_2_2*%
%TO.N,Net-(J2-Pin_2)*%
X93500000Y-111290000D03*
%TD*%
D24*
%TO.P,R8,1*%
%TO.N,Net-(U1-EN)*%
X96500000Y-95300000D03*
%TO.P,R8,2*%
%TO.N,+3.3V*%
X94675000Y-95300000D03*
%TD*%
D23*
%TO.P,J1,1,Pin_1_1*%
%TO.N,+5V*%
X89900000Y-127000000D03*
D12*
%TO.P,J1,2,Pin_2_2*%
%TO.N,GND*%
X89900000Y-129540000D03*
%TD*%
D25*
%TO.P,D2,1,K_1*%
%TO.N,+12V*%
X76500000Y-116250000D03*
%TO.P,D2,2,A_2*%
X80500000Y-116250000D03*
%TD*%
D26*
%TO.P,U2,1,VDD_1*%
%TO.N,+3.3V*%
X149875000Y-112500000D03*
D27*
%TO.P,U2,2,DATA_2*%
%TO.N,Net-(U1-IO4)*%
X149875000Y-115040000D03*
%TO.P,U2,3,NC_3*%
%TO.N,unconnected-(U2-NC-Pad3)*%
X149875000Y-117580000D03*
%TO.P,U2,4,GND_4*%
%TO.N,GND*%
X149875000Y-120120000D03*
%TD*%
D28*
%TO.P,Q1,1,G_1*%
%TO.N,Net-(Q1-G)*%
X85250000Y-109250000D03*
%TO.P,Q1,2,D_2*%
%TO.N,+12V*%
X85250000Y-111150000D03*
%TO.P,Q1,3,S_3*%
%TO.N,GND*%
X87125000Y-110200000D03*
%TD*%
D29*
%TO.P,SW1,1,1_1*%
%TO.N,GND*%
X76500000Y-89500000D03*
X83000000Y-89500000D03*
%TO.P,SW1,2,2_2*%
%TO.N,Net-(U1-EN)*%
X76500000Y-94000000D03*
X83000000Y-94000000D03*
%TD*%
D20*
%TO.P,C3,1*%
%TO.N,+5V*%
X109300000Y-127000000D03*
%TO.P,C3,2*%
%TO.N,GND*%
X109300000Y-128900000D03*
%TD*%
D30*
%TO.P,C7,1*%
%TO.N,+3.3V*%
X103975000Y-92050000D03*
%TO.P,C7,2*%
%TO.N,GND*%
X101025000Y-92050000D03*
%TD*%
D10*
%TO.P,R1,1*%
%TO.N,Net-(Q1-G)*%
X76250000Y-109250000D03*
%TO.P,R1,2*%
%TO.N,GND*%
X76250000Y-111075000D03*
%TD*%
D31*
%TO.P,D1,1,K_1*%
%TO.N,GND*%
X100710000Y-111750000D03*
D32*
%TO.P,D1,2,A_2*%
%TO.N,Net-(D1-A)*%
X103250000Y-111750000D03*
%TD*%
D10*
%TO.P,R2,1*%
%TO.N,+3.3V*%
X148165000Y-91920000D03*
%TO.P,R2,2*%
%TO.N,Net-(U1-IO22)*%
X148165000Y-93745000D03*
%TD*%
D24*
%TO.P,R4,1*%
%TO.N,Net-(U1-IO25)*%
X78100000Y-102450000D03*
%TO.P,R4,2*%
%TO.N,Net-(Q1-G)*%
X76275000Y-102450000D03*
%TD*%
D33*
%TO.P,C5,1*%
%TO.N,GND*%
X148900000Y-129650000D03*
%TO.P,C5,2*%
X148900000Y-127750000D03*
%TD*%
D24*
%TO.P,R6,1*%
%TO.N,Net-(U1-IO26)*%
X103825000Y-103911250D03*
%TO.P,R6,2*%
%TO.N,Net-(D1-A)*%
X102000000Y-103911250D03*
%TD*%
D29*
%TO.P,SW2,1,1_1*%
%TO.N,Net-(U1-IO0)*%
X113000000Y-115250000D03*
X119500000Y-115250000D03*
%TO.P,SW2,2,2_2*%
%TO.N,GND*%
X113000000Y-119750000D03*
X119500000Y-119750000D03*
%TD*%
D34*
%TO.P,C4,1*%
%TO.N,GND*%
X138650000Y-130450000D03*
%TO.P,C4,2*%
X138650000Y-127500000D03*
%TD*%
D23*
%TO.P,J3,1,Pin_1_1*%
%TO.N,+3.3V*%
X136000000Y-92000000D03*
D12*
%TO.P,J3,2,Pin_2_2*%
%TO.N,Net-(J3-Pin_2)*%
X136000000Y-94540000D03*
%TO.P,J3,3,Pin_3_3*%
%TO.N,Net-(J3-Pin_3)*%
X136000000Y-97080000D03*
%TO.P,J3,4,Pin_4_4*%
%TO.N,GND*%
X136000000Y-99620000D03*
%TD*%
%TO.N,Net-(U1-IO21)*%
D35*
X128750000Y-97250000D02*
X126000000Y-97250000D01*
X150250000Y-98250000D02*
X150250000Y-94835000D01*
X161915000Y-94670000D02*
X162165000Y-94420000D01*
X162165000Y-91170000D02*
X161915000Y-90920000D01*
X162165000Y-94420000D02*
X162165000Y-91170000D01*
X150250000Y-94835000D02*
X150415000Y-94670000D01*
X150250000Y-98250000D02*
X150220000Y-98280000D01*
X129780000Y-98280000D02*
X128750000Y-97250000D01*
X150415000Y-94670000D02*
X161915000Y-94670000D01*
X161915000Y-90920000D02*
X160665000Y-90920000D01*
X150220000Y-98280000D02*
X129780000Y-98280000D01*
%TO.N,+3.3V*%
X130250000Y-92000000D02*
X136000000Y-92000000D01*
X103975000Y-90725000D02*
X103750000Y-90500000D01*
X150250000Y-100075000D02*
X150250000Y-112125000D01*
X94675000Y-95300000D02*
X94675000Y-91225000D01*
X103750000Y-90500000D02*
X94550000Y-90500000D01*
X148165000Y-91920000D02*
X148165000Y-89670000D01*
X128412500Y-115250000D02*
X134500000Y-115250000D01*
X148085000Y-92000000D02*
X148165000Y-91920000D01*
X153175000Y-100075000D02*
X150250000Y-100075000D01*
X153415000Y-99835000D02*
X153175000Y-100075000D01*
X150250000Y-112125000D02*
X149875000Y-112500000D01*
X139625000Y-113500000D02*
X139200000Y-113075000D01*
X108420000Y-92170000D02*
X108300000Y-92050000D01*
X149875000Y-112500000D02*
X152125000Y-112500000D01*
X136000000Y-92000000D02*
X148085000Y-92000000D01*
X161915000Y-89420000D02*
X162915000Y-90420000D01*
X139200000Y-113075000D02*
X134875000Y-113075000D01*
X108300000Y-92050000D02*
X103975000Y-92050000D01*
X147665000Y-92420000D02*
X148165000Y-91920000D01*
X139625000Y-116000000D02*
X139625000Y-113500000D01*
X130250000Y-92000000D02*
X128000000Y-89750000D01*
X139875000Y-116250000D02*
X139625000Y-116000000D01*
X162915000Y-90420000D02*
X162915000Y-95420000D01*
X128000000Y-89750000D02*
X122750000Y-89750000D01*
X134500000Y-115250000D02*
X134875000Y-114875000D01*
X94675000Y-91225000D02*
X94250000Y-90800000D01*
X151625000Y-116250000D02*
X139875000Y-116250000D01*
X153415000Y-96420000D02*
X153415000Y-99835000D01*
X160665000Y-96000000D02*
X153835000Y-96000000D01*
X134875000Y-114875000D02*
X134875000Y-113075000D01*
X122750000Y-89750000D02*
X120330000Y-92170000D01*
X94250000Y-90800000D02*
X89500000Y-90800000D01*
X148415000Y-89420000D02*
X161915000Y-89420000D01*
X108500000Y-92170000D02*
X108420000Y-92170000D01*
X152375000Y-115500000D02*
X151625000Y-116250000D01*
X148165000Y-89670000D02*
X148415000Y-89420000D01*
X94550000Y-90500000D02*
X94250000Y-90800000D01*
X153835000Y-96000000D02*
X153415000Y-96420000D01*
X162335000Y-96000000D02*
X160665000Y-96000000D01*
X162915000Y-95420000D02*
X162335000Y-96000000D01*
X152375000Y-112750000D02*
X152375000Y-115500000D01*
X103975000Y-92050000D02*
X103975000Y-90725000D01*
X120330000Y-92170000D02*
X108500000Y-92170000D01*
X152125000Y-112500000D02*
X152375000Y-112750000D01*
%TO.N,Net-(U1-IO4)*%
X141125000Y-111500000D02*
X140875000Y-111250000D01*
X126000000Y-106140000D02*
X134265000Y-106140000D01*
X141125000Y-114750000D02*
X141125000Y-111500000D01*
X134875000Y-111250000D02*
X134875000Y-106750000D01*
X141415000Y-115040000D02*
X141125000Y-114750000D01*
X140875000Y-111250000D02*
X134875000Y-111250000D01*
X134875000Y-106750000D02*
X134265000Y-106140000D01*
X149875000Y-115040000D02*
X141415000Y-115040000D01*
%TO.N,Net-(U1-IO22)*%
X148165000Y-93495000D02*
X148040000Y-93620000D01*
X148200000Y-93460000D02*
X148165000Y-93495000D01*
X126100000Y-93340000D02*
X147760000Y-93340000D01*
X126240000Y-93200000D02*
X126000000Y-93440000D01*
X126000000Y-93440000D02*
X126100000Y-93340000D01*
X160665000Y-93460000D02*
X148200000Y-93460000D01*
X147760000Y-93340000D02*
X148165000Y-93745000D01*
%TO.N,+5V*%
X100150000Y-127000000D02*
X109300000Y-127000000D01*
X89900000Y-127000000D02*
X100150000Y-127000000D01*
X114800000Y-129000000D02*
X114800000Y-127500000D01*
X120000000Y-130800000D02*
X116600000Y-130800000D01*
X114300000Y-127000000D02*
X109300000Y-127000000D01*
X116600000Y-130800000D02*
X114800000Y-129000000D01*
X114800000Y-127500000D02*
X114300000Y-127000000D01*
%TO.N,Net-(U1-EN)*%
X76500000Y-94000000D02*
X83000000Y-94000000D01*
X96500000Y-95300000D02*
X105700000Y-95300000D01*
X83500000Y-98250000D02*
X96050000Y-98250000D01*
X108440000Y-93500000D02*
X108500000Y-93440000D01*
X96500000Y-97800000D02*
X96500000Y-95300000D01*
X106310000Y-93440000D02*
X108500000Y-93440000D01*
X96050000Y-98250000D02*
X96500000Y-97800000D01*
X106000000Y-95000000D02*
X106000000Y-93750000D01*
X83000000Y-94000000D02*
X83000000Y-97750000D01*
X83000000Y-97750000D02*
X83500000Y-98250000D01*
X106000000Y-93750000D02*
X106310000Y-93440000D01*
X105700000Y-95300000D02*
X106000000Y-95000000D01*
%TO.N,Net-(U1-IO25)*%
X108330000Y-102500000D02*
X108500000Y-102330000D01*
X108500000Y-102330000D02*
X78220000Y-102330000D01*
X78220000Y-102330000D02*
X78100000Y-102450000D01*
X78100000Y-102450000D02*
X78180000Y-102530000D01*
%TO.N,Net-(U1-IO26)*%
X106338750Y-103911250D02*
X106650000Y-103600000D01*
X103825000Y-103911250D02*
X106338750Y-103911250D01*
X106650000Y-103600000D02*
X108500000Y-103600000D01*
%TO.N,Net-(U1-IO0)*%
X126000000Y-107410000D02*
X126000000Y-115162500D01*
X126000000Y-115162500D02*
X126087500Y-115250000D01*
X113000000Y-115250000D02*
X119500000Y-115250000D01*
X119500000Y-115250000D02*
X126087500Y-115250000D01*
%TO.N,Net-(J3-Pin_3)*%
X129480000Y-95980000D02*
X126000000Y-95980000D01*
X130580000Y-97080000D02*
X136000000Y-97080000D01*
X130580000Y-97080000D02*
X129480000Y-95980000D01*
%TO.N,Net-(J3-Pin_2)*%
X126170000Y-94540000D02*
X126000000Y-94710000D01*
X136000000Y-94540000D02*
X126170000Y-94540000D01*
%TO.N,+12V*%
X85250000Y-111150000D02*
X89487500Y-111150000D01*
X89487500Y-111150000D02*
X89687500Y-110950000D01*
X85250000Y-115887500D02*
X85250000Y-111150000D01*
X90137500Y-108750000D02*
X93500000Y-108750000D01*
X84887500Y-116250000D02*
X85250000Y-115887500D01*
X76500000Y-116250000D02*
X84887500Y-116250000D01*
X89687500Y-109200000D02*
X90137500Y-108750000D01*
X89687500Y-110950000D02*
X89687500Y-109200000D01*
%TO.N,Net-(Q1-G)*%
X76250000Y-109250000D02*
X76250000Y-102475000D01*
X76250000Y-109250000D02*
X85250000Y-109250000D01*
X76250000Y-102475000D02*
X76275000Y-102450000D01*
%TO.N,Net-(D1-A)*%
X103250000Y-111750000D02*
X103250000Y-107250000D01*
X103250000Y-107250000D02*
X102750000Y-106750000D01*
X102250000Y-106750000D02*
X102000000Y-106500000D01*
X102000000Y-106500000D02*
X102000000Y-103911250D01*
X102750000Y-106750000D02*
X102250000Y-106750000D01*
%TD*%
%TA.AperFunction,Conductor*%
%TO.N,GND*%
G36*
X92193039Y-68270185D02*
G01*
X92238794Y-68322989D01*
X92250000Y-68374500D01*
X92250000Y-89750000D01*
X94092813Y-89750000D01*
X94159852Y-89769685D01*
X94205607Y-89822489D01*
X94215551Y-89891647D01*
X94186526Y-89955203D01*
X94161707Y-89977099D01*
X94135454Y-89994640D01*
X94135328Y-89994725D01*
X94080054Y-90050000D01*
X94016871Y-90113182D01*
X93955551Y-90146666D01*
X93929192Y-90149500D01*
X90678958Y-90149500D01*
X90611919Y-90129815D01*
X90573420Y-90090598D01*
X90567712Y-90081344D01*
X90443657Y-89957289D01*
X90443656Y-89957288D01*
X90294334Y-89865186D01*
X90127797Y-89810001D01*
X90127795Y-89810000D01*
X90025010Y-89799500D01*
X88974998Y-89799500D01*
X88974980Y-89799501D01*
X88872203Y-89810000D01*
X88872200Y-89810001D01*
X88705668Y-89865185D01*
X88705663Y-89865187D01*
X88556342Y-89957289D01*
X88432289Y-90081342D01*
X88340187Y-90230663D01*
X88340185Y-90230668D01*
X88285001Y-90397203D01*
X88274500Y-90499983D01*
X88274500Y-91100001D01*
X88274501Y-91100019D01*
X88285000Y-91202796D01*
X88285001Y-91202799D01*
X88340185Y-91369331D01*
X88340187Y-91369336D01*
X88357771Y-91397844D01*
X88432288Y-91518656D01*
X88556344Y-91642712D01*
X88559628Y-91644737D01*
X88559653Y-91644753D01*
X88561445Y-91646746D01*
X88562011Y-91647193D01*
X88561934Y-91647289D01*
X88606379Y-91696699D01*
X88617603Y-91765661D01*
X88589761Y-91829744D01*
X88559665Y-91855826D01*
X88556660Y-91857679D01*
X88556655Y-91857683D01*
X88432684Y-91981654D01*
X88340643Y-92130875D01*
X88340641Y-92130880D01*
X88285494Y-92297302D01*
X88285493Y-92297309D01*
X88275000Y-92400013D01*
X88275000Y-92450000D01*
X90724999Y-92450000D01*
X90724999Y-92400028D01*
X90724998Y-92400013D01*
X90714505Y-92297302D01*
X90659358Y-92130880D01*
X90659356Y-92130875D01*
X90567315Y-91981654D01*
X90443344Y-91857683D01*
X90443341Y-91857681D01*
X90440339Y-91855829D01*
X90438713Y-91854021D01*
X90437677Y-91853202D01*
X90437817Y-91853024D01*
X90393617Y-91803880D01*
X90382397Y-91734917D01*
X90410243Y-91670836D01*
X90440344Y-91644754D01*
X90443656Y-91642712D01*
X90567712Y-91518656D01*
X90573420Y-91509402D01*
X90625368Y-91462678D01*
X90678958Y-91450500D01*
X93900500Y-91450500D01*
X93967539Y-91470185D01*
X94013294Y-91522989D01*
X94024500Y-91574500D01*
X94024500Y-94138331D01*
X94004815Y-94205370D01*
X93965600Y-94243868D01*
X93943843Y-94257288D01*
X93819789Y-94381342D01*
X93727687Y-94530663D01*
X93727685Y-94530668D01*
X93712666Y-94575992D01*
X93672501Y-94697203D01*
X93672501Y-94697204D01*
X93672500Y-94697204D01*
X93662000Y-94799983D01*
X93662000Y-95800001D01*
X93662001Y-95800019D01*
X93672500Y-95902796D01*
X93672501Y-95902799D01*
X93721243Y-96049890D01*
X93727686Y-96069334D01*
X93819788Y-96218656D01*
X93943844Y-96342712D01*
X94093166Y-96434814D01*
X94259703Y-96489999D01*
X94362491Y-96500500D01*
X94987508Y-96500499D01*
X94987516Y-96500498D01*
X94987519Y-96500498D01*
X95043802Y-96494748D01*
X95090297Y-96489999D01*
X95256834Y-96434814D01*
X95406156Y-96342712D01*
X95499819Y-96249049D01*
X95561142Y-96215564D01*
X95630834Y-96220548D01*
X95675181Y-96249049D01*
X95768844Y-96342712D01*
X95790594Y-96356127D01*
X95837320Y-96408073D01*
X95849500Y-96461667D01*
X95849500Y-97475500D01*
X95829815Y-97542539D01*
X95777011Y-97588294D01*
X95725500Y-97599500D01*
X83820808Y-97599500D01*
X83753769Y-97579815D01*
X83733127Y-97563181D01*
X83686819Y-97516873D01*
X83653334Y-97455550D01*
X83650500Y-97429192D01*
X83650500Y-95428591D01*
X83670185Y-95361552D01*
X83718206Y-95318106D01*
X83786431Y-95283344D01*
X83786430Y-95283344D01*
X83786433Y-95283343D01*
X83977510Y-95144517D01*
X84144517Y-94977510D01*
X84283343Y-94786433D01*
X84390568Y-94575992D01*
X84463553Y-94351368D01*
X84463619Y-94350951D01*
X84500500Y-94118097D01*
X84500500Y-93881902D01*
X84463553Y-93648631D01*
X84399013Y-93449999D01*
X84390568Y-93424008D01*
X84390566Y-93424005D01*
X84390566Y-93424003D01*
X84318107Y-93281795D01*
X84283343Y-93213567D01*
X84144517Y-93022490D01*
X84122013Y-92999986D01*
X88275001Y-92999986D01*
X88285494Y-93102697D01*
X88340641Y-93269119D01*
X88340643Y-93269124D01*
X88432684Y-93418345D01*
X88556654Y-93542315D01*
X88705875Y-93634356D01*
X88705880Y-93634358D01*
X88872302Y-93689505D01*
X88872309Y-93689506D01*
X88975019Y-93699999D01*
X89249999Y-93699999D01*
X89750000Y-93699999D01*
X90024972Y-93699999D01*
X90024986Y-93699998D01*
X90127697Y-93689505D01*
X90294119Y-93634358D01*
X90294124Y-93634356D01*
X90443345Y-93542315D01*
X90567315Y-93418345D01*
X90659356Y-93269124D01*
X90659358Y-93269119D01*
X90714505Y-93102697D01*
X90714506Y-93102690D01*
X90724999Y-92999986D01*
X90725000Y-92999973D01*
X90725000Y-92950000D01*
X89750000Y-92950000D01*
X89750000Y-93699999D01*
X89249999Y-93699999D01*
X89250000Y-93699998D01*
X89250000Y-92950000D01*
X88275001Y-92950000D01*
X88275001Y-92999986D01*
X84122013Y-92999986D01*
X83977510Y-92855483D01*
X83786433Y-92716657D01*
X83754723Y-92700500D01*
X83575996Y-92609433D01*
X83351368Y-92536446D01*
X83118097Y-92499500D01*
X83118092Y-92499500D01*
X82881908Y-92499500D01*
X82881903Y-92499500D01*
X82648631Y-92536446D01*
X82424003Y-92609433D01*
X82213566Y-92716657D01*
X82112874Y-92789815D01*
X82022490Y-92855483D01*
X82022488Y-92855485D01*
X82022487Y-92855485D01*
X81855485Y-93022487D01*
X81855485Y-93022488D01*
X81855483Y-93022490D01*
X81797214Y-93102690D01*
X81716657Y-93213566D01*
X81681893Y-93281795D01*
X81633918Y-93332591D01*
X81571408Y-93349500D01*
X77928592Y-93349500D01*
X77861553Y-93329815D01*
X77818107Y-93281795D01*
X77783342Y-93213566D01*
X77644517Y-93022490D01*
X77477510Y-92855483D01*
X77286433Y-92716657D01*
X77254723Y-92700500D01*
X77075996Y-92609433D01*
X76851368Y-92536446D01*
X76618097Y-92499500D01*
X76618092Y-92499500D01*
X76381908Y-92499500D01*
X76381903Y-92499500D01*
X76148631Y-92536446D01*
X75924003Y-92609433D01*
X75713566Y-92716657D01*
X75612874Y-92789815D01*
X75522490Y-92855483D01*
X75522488Y-92855485D01*
X75522487Y-92855485D01*
X75355485Y-93022487D01*
X75355485Y-93022488D01*
X75355483Y-93022490D01*
X75297214Y-93102690D01*
X75216657Y-93213566D01*
X75109433Y-93424003D01*
X75036446Y-93648631D01*
X74999500Y-93881902D01*
X74999500Y-94118097D01*
X75036446Y-94351368D01*
X75109433Y-94575996D01*
X75196819Y-94747499D01*
X75216657Y-94786433D01*
X75355483Y-94977510D01*
X75522490Y-95144517D01*
X75713567Y-95283343D01*
X75786492Y-95320500D01*
X75924003Y-95390566D01*
X75924005Y-95390566D01*
X75924008Y-95390568D01*
X76013944Y-95419790D01*
X76148631Y-95463553D01*
X76381903Y-95500500D01*
X76381908Y-95500500D01*
X76618097Y-95500500D01*
X76851368Y-95463553D01*
X76855695Y-95462147D01*
X77075992Y-95390568D01*
X77080377Y-95388334D01*
X77146781Y-95354499D01*
X77286433Y-95283343D01*
X77477510Y-95144517D01*
X77644517Y-94977510D01*
X77783343Y-94786433D01*
X77818107Y-94718205D01*
X77866082Y-94667409D01*
X77928592Y-94650500D01*
X81571408Y-94650500D01*
X81638447Y-94670185D01*
X81681893Y-94718205D01*
X81716657Y-94786433D01*
X81855483Y-94977510D01*
X82022490Y-95144517D01*
X82159244Y-95243875D01*
X82213568Y-95283344D01*
X82281794Y-95318106D01*
X82332590Y-95366080D01*
X82349500Y-95428591D01*
X82349500Y-97814069D01*
X82358366Y-97858642D01*
X82361720Y-97875500D01*
X82361720Y-97875502D01*
X82374497Y-97939736D01*
X82374499Y-97939744D01*
X82416026Y-98040000D01*
X82423535Y-98058127D01*
X82478174Y-98139901D01*
X82494726Y-98164673D01*
X83085326Y-98755273D01*
X83085329Y-98755275D01*
X83085331Y-98755277D01*
X83191873Y-98826465D01*
X83310256Y-98875501D01*
X83310260Y-98875501D01*
X83310261Y-98875502D01*
X83435928Y-98900500D01*
X83435931Y-98900500D01*
X96114071Y-98900500D01*
X96198615Y-98883682D01*
X96239744Y-98875501D01*
X96358127Y-98826465D01*
X96464669Y-98755277D01*
X97005277Y-98214669D01*
X97076465Y-98108127D01*
X97125501Y-97989744D01*
X97135023Y-97941873D01*
X97150500Y-97864069D01*
X97150500Y-96461667D01*
X97170185Y-96394628D01*
X97209405Y-96356127D01*
X97231156Y-96342712D01*
X97355212Y-96218656D01*
X97447314Y-96069334D01*
X97458528Y-96035494D01*
X97498301Y-95978050D01*
X97562817Y-95951228D01*
X97576233Y-95950500D01*
X105764071Y-95950500D01*
X105848615Y-95933682D01*
X105889744Y-95925501D01*
X106008127Y-95876465D01*
X106114669Y-95805277D01*
X106505277Y-95414669D01*
X106576465Y-95308127D01*
X106625501Y-95189744D01*
X106634774Y-95143127D01*
X106650500Y-95064069D01*
X106650500Y-94214500D01*
X106670185Y-94147461D01*
X106722989Y-94101706D01*
X106774500Y-94090500D01*
X107125500Y-94090500D01*
X107192539Y-94110185D01*
X107238294Y-94162989D01*
X107249500Y-94214500D01*
X107249500Y-95207870D01*
X107249501Y-95207876D01*
X107255908Y-95267481D01*
X107268659Y-95301669D01*
X107273642Y-95371361D01*
X107268659Y-95388331D01*
X107255908Y-95422518D01*
X107249501Y-95482116D01*
X107249501Y-95482123D01*
X107249500Y-95482135D01*
X107249500Y-96477870D01*
X107249501Y-96477876D01*
X107255908Y-96537481D01*
X107268659Y-96571669D01*
X107273642Y-96641361D01*
X107268659Y-96658331D01*
X107255908Y-96692518D01*
X107250296Y-96744723D01*
X107249501Y-96752123D01*
X107249500Y-96752135D01*
X107249500Y-97747870D01*
X107249501Y-97747876D01*
X107255908Y-97807481D01*
X107268659Y-97841669D01*
X107273642Y-97911361D01*
X107268659Y-97928331D01*
X107255908Y-97962518D01*
X107252954Y-97990000D01*
X107249501Y-98022123D01*
X107249500Y-98022135D01*
X107249500Y-99017870D01*
X107249501Y-99017876D01*
X107255908Y-99077481D01*
X107268659Y-99111669D01*
X107273642Y-99181361D01*
X107268659Y-99198331D01*
X107255908Y-99232518D01*
X107249501Y-99292116D01*
X107249501Y-99292123D01*
X107249500Y-99292135D01*
X107249500Y-100287870D01*
X107249501Y-100287876D01*
X107255908Y-100347481D01*
X107268659Y-100381669D01*
X107273642Y-100451361D01*
X107268659Y-100468331D01*
X107255908Y-100502518D01*
X107252729Y-100532093D01*
X107249501Y-100562123D01*
X107249500Y-100562135D01*
X107249501Y-101555500D01*
X107229817Y-101622539D01*
X107177013Y-101668294D01*
X107125501Y-101679500D01*
X79115802Y-101679500D01*
X79048763Y-101659815D01*
X79010263Y-101620597D01*
X78955212Y-101531344D01*
X78831156Y-101407288D01*
X78681834Y-101315186D01*
X78515297Y-101260001D01*
X78515295Y-101260000D01*
X78412510Y-101249500D01*
X77787498Y-101249500D01*
X77787480Y-101249501D01*
X77684703Y-101260000D01*
X77684700Y-101260001D01*
X77518168Y-101315185D01*
X77518163Y-101315187D01*
X77368842Y-101407289D01*
X77275181Y-101500951D01*
X77213858Y-101534436D01*
X77144166Y-101529452D01*
X77099819Y-101500951D01*
X77006157Y-101407289D01*
X77006156Y-101407288D01*
X76856834Y-101315186D01*
X76690297Y-101260001D01*
X76690295Y-101260000D01*
X76587510Y-101249500D01*
X75962498Y-101249500D01*
X75962480Y-101249501D01*
X75859703Y-101260000D01*
X75859700Y-101260001D01*
X75693168Y-101315185D01*
X75693163Y-101315187D01*
X75543842Y-101407289D01*
X75419789Y-101531342D01*
X75327687Y-101680663D01*
X75327686Y-101680666D01*
X75272501Y-101847203D01*
X75272501Y-101847204D01*
X75272500Y-101847204D01*
X75262000Y-101949983D01*
X75262000Y-102950001D01*
X75262001Y-102950019D01*
X75272500Y-103052796D01*
X75272501Y-103052799D01*
X75327685Y-103219331D01*
X75327687Y-103219336D01*
X75419789Y-103368657D01*
X75543845Y-103492713D01*
X75549513Y-103497195D01*
X75548070Y-103499019D01*
X75587320Y-103542654D01*
X75599500Y-103596248D01*
X75599500Y-108173767D01*
X75579815Y-108240806D01*
X75527011Y-108286561D01*
X75514506Y-108291472D01*
X75480671Y-108302684D01*
X75480663Y-108302687D01*
X75331342Y-108394789D01*
X75207289Y-108518842D01*
X75115187Y-108668163D01*
X75115185Y-108668168D01*
X75087349Y-108752170D01*
X75060001Y-108834703D01*
X75060001Y-108834704D01*
X75060000Y-108834704D01*
X75049500Y-108937483D01*
X75049500Y-109562501D01*
X75049501Y-109562519D01*
X75060000Y-109665296D01*
X75060001Y-109665299D01*
X75115185Y-109831831D01*
X75115187Y-109831836D01*
X75128730Y-109853793D01*
X75192725Y-109957546D01*
X75207289Y-109981157D01*
X75301304Y-110075172D01*
X75334789Y-110136495D01*
X75329805Y-110206187D01*
X75301305Y-110250534D01*
X75207682Y-110344157D01*
X75115643Y-110493375D01*
X75115641Y-110493380D01*
X75060494Y-110659802D01*
X75060493Y-110659809D01*
X75050000Y-110762513D01*
X75050000Y-110825000D01*
X77449999Y-110825000D01*
X77449999Y-110762528D01*
X77449998Y-110762513D01*
X77439505Y-110659802D01*
X77384358Y-110493380D01*
X77384356Y-110493375D01*
X77292315Y-110344154D01*
X77198695Y-110250534D01*
X77165210Y-110189211D01*
X77170194Y-110119519D01*
X77198691Y-110075176D01*
X77292712Y-109981156D01*
X77294256Y-109978652D01*
X77306130Y-109959403D01*
X77358078Y-109912678D01*
X77411668Y-109900500D01*
X84196984Y-109900500D01*
X84260105Y-109917768D01*
X84310402Y-109947513D01*
X84402102Y-110001744D01*
X84443724Y-110013836D01*
X84559926Y-110047597D01*
X84559929Y-110047597D01*
X84559931Y-110047598D01*
X84596806Y-110050500D01*
X84596814Y-110050500D01*
X85903186Y-110050500D01*
X85903194Y-110050500D01*
X85940069Y-110047598D01*
X85940071Y-110047597D01*
X85940073Y-110047597D01*
X85981691Y-110035505D01*
X86097898Y-110001744D01*
X86156194Y-109967268D01*
X86219315Y-109950000D01*
X86875000Y-109950000D01*
X87375000Y-109950000D01*
X88359795Y-109950000D01*
X88359795Y-109949998D01*
X88359600Y-109947513D01*
X88313781Y-109789801D01*
X88230185Y-109648447D01*
X88230178Y-109648438D01*
X88114061Y-109532321D01*
X88114052Y-109532314D01*
X87972696Y-109448717D01*
X87972693Y-109448716D01*
X87814995Y-109402900D01*
X87814989Y-109402899D01*
X87778149Y-109400000D01*
X87375000Y-109400000D01*
X87375000Y-109950000D01*
X86875000Y-109950000D01*
X86875000Y-109400000D01*
X86612000Y-109400000D01*
X86544961Y-109380315D01*
X86499206Y-109327511D01*
X86488000Y-109276000D01*
X86488000Y-109034313D01*
X86487999Y-109034298D01*
X86485098Y-108997432D01*
X86485097Y-108997426D01*
X86439245Y-108839606D01*
X86439244Y-108839603D01*
X86439244Y-108839602D01*
X86355581Y-108698135D01*
X86355579Y-108698133D01*
X86355576Y-108698129D01*
X86239370Y-108581923D01*
X86239362Y-108581917D01*
X86161181Y-108535681D01*
X86097898Y-108498256D01*
X86097897Y-108498255D01*
X86097896Y-108498255D01*
X86097893Y-108498254D01*
X85940073Y-108452402D01*
X85940067Y-108452401D01*
X85903201Y-108449500D01*
X85903194Y-108449500D01*
X84596806Y-108449500D01*
X84596798Y-108449500D01*
X84559932Y-108452401D01*
X84559926Y-108452402D01*
X84402106Y-108498254D01*
X84402103Y-108498255D01*
X84260105Y-108582232D01*
X84196984Y-108599500D01*
X77411668Y-108599500D01*
X77344629Y-108579815D01*
X77306130Y-108540597D01*
X77292714Y-108518847D01*
X77292711Y-108518843D01*
X77168657Y-108394789D01*
X77168656Y-108394788D01*
X77075888Y-108337569D01*
X77019336Y-108302687D01*
X77019335Y-108302686D01*
X77019334Y-108302686D01*
X77019328Y-108302684D01*
X76985494Y-108291472D01*
X76928050Y-108251699D01*
X76901228Y-108187183D01*
X76900500Y-108173767D01*
X76900500Y-103627087D01*
X76920185Y-103560048D01*
X76959402Y-103521548D01*
X77006156Y-103492712D01*
X77099819Y-103399049D01*
X77161142Y-103365564D01*
X77230834Y-103370548D01*
X77275181Y-103399049D01*
X77368844Y-103492712D01*
X77518166Y-103584814D01*
X77684703Y-103639999D01*
X77787491Y-103650500D01*
X78412508Y-103650499D01*
X78412516Y-103650498D01*
X78412519Y-103650498D01*
X78468802Y-103644748D01*
X78515297Y-103639999D01*
X78681834Y-103584814D01*
X78831156Y-103492712D01*
X78955212Y-103368656D01*
X79047314Y-103219334D01*
X79098291Y-103065496D01*
X79138064Y-103008051D01*
X79202580Y-102981228D01*
X79215997Y-102980500D01*
X100934454Y-102980500D01*
X101001493Y-103000185D01*
X101047248Y-103052989D01*
X101057192Y-103122147D01*
X101052160Y-103143501D01*
X101037329Y-103188261D01*
X100997501Y-103308453D01*
X100997500Y-103308454D01*
X100987000Y-103411233D01*
X100987000Y-104411251D01*
X100987001Y-104411269D01*
X100997500Y-104514046D01*
X100997501Y-104514049D01*
X101052684Y-104680578D01*
X101052686Y-104680584D01*
X101144788Y-104829906D01*
X101268844Y-104953962D01*
X101290594Y-104967377D01*
X101337320Y-105019323D01*
X101349500Y-105072917D01*
X101349500Y-106564070D01*
X101361521Y-106624499D01*
X101361521Y-106624501D01*
X101374497Y-106689736D01*
X101374499Y-106689744D01*
X101416233Y-106790500D01*
X101423535Y-106808127D01*
X101493026Y-106912129D01*
X101494726Y-106914673D01*
X101835327Y-107255274D01*
X101835330Y-107255276D01*
X101923321Y-107314069D01*
X101941873Y-107326465D01*
X102060256Y-107375501D01*
X102060260Y-107375501D01*
X102060261Y-107375502D01*
X102185928Y-107400500D01*
X102185931Y-107400500D01*
X102429192Y-107400500D01*
X102496231Y-107420185D01*
X102516873Y-107436819D01*
X102563181Y-107483127D01*
X102596666Y-107544450D01*
X102599500Y-107570808D01*
X102599500Y-110433641D01*
X102579815Y-110500680D01*
X102531798Y-110544123D01*
X102517754Y-110551280D01*
X102515972Y-110552188D01*
X102337641Y-110681752D01*
X102337636Y-110681756D01*
X102287075Y-110732317D01*
X102225752Y-110765801D01*
X102156060Y-110760816D01*
X102100127Y-110718945D01*
X102083213Y-110687968D01*
X102053354Y-110607913D01*
X102053350Y-110607906D01*
X101967190Y-110492812D01*
X101967187Y-110492809D01*
X101852093Y-110406649D01*
X101852086Y-110406645D01*
X101717379Y-110356403D01*
X101717372Y-110356401D01*
X101657844Y-110350000D01*
X100960000Y-110350000D01*
X100960000Y-111374722D01*
X100883694Y-111330667D01*
X100769244Y-111300000D01*
X100650756Y-111300000D01*
X100536306Y-111330667D01*
X100460000Y-111374722D01*
X100460000Y-110350000D01*
X99762155Y-110350000D01*
X99702627Y-110356401D01*
X99702620Y-110356403D01*
X99567913Y-110406645D01*
X99567906Y-110406649D01*
X99452812Y-110492809D01*
X99452809Y-110492812D01*
X99366649Y-110607906D01*
X99366645Y-110607913D01*
X99316403Y-110742620D01*
X99316401Y-110742627D01*
X99310000Y-110802155D01*
X99310000Y-111500000D01*
X100334722Y-111500000D01*
X100290667Y-111576306D01*
X100260000Y-111690756D01*
X100260000Y-111809244D01*
X100290667Y-111923694D01*
X100334722Y-112000000D01*
X99310000Y-112000000D01*
X99310000Y-112697844D01*
X99316401Y-112757372D01*
X99316403Y-112757379D01*
X99366645Y-112892086D01*
X99366649Y-112892093D01*
X99452809Y-113007187D01*
X99452812Y-113007190D01*
X99567906Y-113093350D01*
X99567913Y-113093354D01*
X99702620Y-113143596D01*
X99702627Y-113143598D01*
X99762155Y-113149999D01*
X99762172Y-113150000D01*
X100460000Y-113150000D01*
X100460000Y-112125277D01*
X100536306Y-112169333D01*
X100650756Y-112200000D01*
X100769244Y-112200000D01*
X100883694Y-112169333D01*
X100960000Y-112125277D01*
X100960000Y-113150000D01*
X101657828Y-113150000D01*
X101657844Y-113149999D01*
X101717372Y-113143598D01*
X101717379Y-113143596D01*
X101852086Y-113093354D01*
X101852093Y-113093350D01*
X101967187Y-113007190D01*
X101967190Y-113007187D01*
X102053350Y-112892093D01*
X102053354Y-112892086D01*
X102083213Y-112812031D01*
X102125084Y-112756097D01*
X102190548Y-112731680D01*
X102258821Y-112746531D01*
X102287076Y-112767683D01*
X102337636Y-112818243D01*
X102337641Y-112818247D01*
X102493192Y-112931260D01*
X102515978Y-112947815D01*
X102632501Y-113007187D01*
X102712393Y-113047895D01*
X102712396Y-113047896D01*
X102817221Y-113081955D01*
X102922049Y-113116015D01*
X103139778Y-113150500D01*
X103139779Y-113150500D01*
X103360221Y-113150500D01*
X103360222Y-113150500D01*
X103577951Y-113116015D01*
X103787606Y-113047895D01*
X103984022Y-112947815D01*
X104162365Y-112818242D01*
X104318242Y-112662365D01*
X104447815Y-112484022D01*
X104547895Y-112287606D01*
X104616015Y-112077951D01*
X104650500Y-111860222D01*
X104650500Y-111639778D01*
X104616015Y-111422049D01*
X104579692Y-111310256D01*
X104547896Y-111212396D01*
X104547895Y-111212393D01*
X104510877Y-111139742D01*
X104447815Y-111015978D01*
X104390791Y-110937491D01*
X104318247Y-110837641D01*
X104318243Y-110837636D01*
X104162363Y-110681756D01*
X104162358Y-110681752D01*
X103984027Y-110552188D01*
X103984024Y-110552186D01*
X103984022Y-110552185D01*
X103968201Y-110544124D01*
X103917408Y-110496149D01*
X103900500Y-110433641D01*
X103900500Y-109457844D01*
X110590000Y-109457844D01*
X110596401Y-109517372D01*
X110596403Y-109517379D01*
X110646645Y-109652086D01*
X110646649Y-109652093D01*
X110732809Y-109767187D01*
X110732812Y-109767190D01*
X110847906Y-109853350D01*
X110847913Y-109853354D01*
X110982620Y-109903596D01*
X110982627Y-109903598D01*
X111042155Y-109909999D01*
X111042172Y-109910000D01*
X111290000Y-109910000D01*
X111290000Y-108910000D01*
X110590000Y-108910000D01*
X110590000Y-109457844D01*
X103900500Y-109457844D01*
X103900500Y-107185928D01*
X103875502Y-107060261D01*
X103875501Y-107060260D01*
X103875501Y-107060256D01*
X103826465Y-106941873D01*
X103806590Y-106912128D01*
X103755277Y-106835331D01*
X103755275Y-106835329D01*
X103755273Y-106835326D01*
X103164673Y-106244726D01*
X103164669Y-106244723D01*
X103058127Y-106173535D01*
X102939744Y-106124499D01*
X102939738Y-106124497D01*
X102814071Y-106099500D01*
X102814069Y-106099500D01*
X102774500Y-106099500D01*
X102707461Y-106079815D01*
X102661706Y-106027011D01*
X102650500Y-105975500D01*
X102650500Y-105072917D01*
X102670185Y-105005878D01*
X102709405Y-104967377D01*
X102731156Y-104953962D01*
X102824819Y-104860299D01*
X102886142Y-104826814D01*
X102955834Y-104831798D01*
X103000181Y-104860299D01*
X103093844Y-104953962D01*
X103243166Y-105046064D01*
X103409703Y-105101249D01*
X103512491Y-105111750D01*
X104137508Y-105111749D01*
X104137516Y-105111748D01*
X104137519Y-105111748D01*
X104193802Y-105105998D01*
X104240297Y-105101249D01*
X104406834Y-105046064D01*
X104556156Y-104953962D01*
X104680212Y-104829906D01*
X104772314Y-104680584D01*
X104783528Y-104646744D01*
X104823301Y-104589300D01*
X104887817Y-104562478D01*
X104901233Y-104561750D01*
X106402821Y-104561750D01*
X106487365Y-104544932D01*
X106528494Y-104536751D01*
X106646877Y-104487715D01*
X106753419Y-104416527D01*
X106883128Y-104286817D01*
X106944449Y-104253334D01*
X106970808Y-104250500D01*
X107125500Y-104250500D01*
X107192539Y-104270185D01*
X107238294Y-104322989D01*
X107249500Y-104374500D01*
X107249500Y-105367870D01*
X107249501Y-105367876D01*
X107255908Y-105427481D01*
X107268659Y-105461669D01*
X107273642Y-105531361D01*
X107268659Y-105548331D01*
X107255908Y-105582518D01*
X107249501Y-105642116D01*
X107249501Y-105642123D01*
X107249500Y-105642135D01*
X107249500Y-106637870D01*
X107249501Y-106637876D01*
X107255908Y-106697481D01*
X107268659Y-106731669D01*
X107273642Y-106801361D01*
X107268659Y-106818331D01*
X107255908Y-106852518D01*
X107249501Y-106912116D01*
X107249500Y-106912127D01*
X107249500Y-107907870D01*
X107249501Y-107907876D01*
X107255908Y-107967483D01*
X107306202Y-108102328D01*
X107306206Y-108102335D01*
X107392452Y-108217544D01*
X107392455Y-108217547D01*
X107507664Y-108303793D01*
X107507671Y-108303797D01*
X107642517Y-108354091D01*
X107642516Y-108354091D01*
X107649444Y-108354835D01*
X107702127Y-108360500D01*
X109297872Y-108360499D01*
X109357483Y-108354091D01*
X109492331Y-108303796D01*
X109607546Y-108217546D01*
X109693796Y-108102331D01*
X109744091Y-107967483D01*
X109750500Y-107907873D01*
X109750500Y-107862155D01*
X110590000Y-107862155D01*
X110590000Y-108410000D01*
X111290000Y-108410000D01*
X111290000Y-107410000D01*
X111790000Y-107410000D01*
X111790000Y-109910000D01*
X112037828Y-109910000D01*
X112037844Y-109909999D01*
X112097372Y-109903598D01*
X112097375Y-109903597D01*
X112130949Y-109891075D01*
X112200640Y-109886089D01*
X112217619Y-109891075D01*
X112252511Y-109904089D01*
X112252512Y-109904089D01*
X112252517Y-109904091D01*
X112312127Y-109910500D01*
X113307872Y-109910499D01*
X113367483Y-109904091D01*
X113401667Y-109891340D01*
X113471358Y-109886357D01*
X113488327Y-109891338D01*
X113522517Y-109904091D01*
X113582127Y-109910500D01*
X114577872Y-109910499D01*
X114637483Y-109904091D01*
X114671667Y-109891340D01*
X114741358Y-109886357D01*
X114758327Y-109891338D01*
X114792517Y-109904091D01*
X114852127Y-109910500D01*
X115847872Y-109910499D01*
X115907483Y-109904091D01*
X115941667Y-109891340D01*
X116011358Y-109886357D01*
X116028327Y-109891338D01*
X116062517Y-109904091D01*
X116122127Y-109910500D01*
X117117872Y-109910499D01*
X117177483Y-109904091D01*
X117211667Y-109891340D01*
X117281358Y-109886357D01*
X117298327Y-109891338D01*
X117332517Y-109904091D01*
X117392127Y-109910500D01*
X118387872Y-109910499D01*
X118447483Y-109904091D01*
X118481667Y-109891340D01*
X118551358Y-109886357D01*
X118568327Y-109891338D01*
X118602517Y-109904091D01*
X118662127Y-109910500D01*
X119657872Y-109910499D01*
X119717483Y-109904091D01*
X119751667Y-109891340D01*
X119821358Y-109886357D01*
X119838327Y-109891338D01*
X119872517Y-109904091D01*
X119932127Y-109910500D01*
X120927872Y-109910499D01*
X120987483Y-109904091D01*
X121021667Y-109891340D01*
X121091358Y-109886357D01*
X121108327Y-109891338D01*
X121142517Y-109904091D01*
X121202127Y-109910500D01*
X122197872Y-109910499D01*
X122257483Y-109904091D01*
X122291667Y-109891340D01*
X122361358Y-109886357D01*
X122378327Y-109891338D01*
X122412517Y-109904091D01*
X122472127Y-109910500D01*
X123467872Y-109910499D01*
X123527483Y-109904091D01*
X123662331Y-109853796D01*
X123777546Y-109767546D01*
X123863796Y-109652331D01*
X123914091Y-109517483D01*
X123920500Y-109457873D01*
X123920499Y-107862128D01*
X123914091Y-107802517D01*
X123910361Y-107792517D01*
X123863797Y-107667671D01*
X123863793Y-107667664D01*
X123777547Y-107552455D01*
X123777544Y-107552452D01*
X123662335Y-107466206D01*
X123662328Y-107466202D01*
X123527482Y-107415908D01*
X123527483Y-107415908D01*
X123467883Y-107409501D01*
X123467881Y-107409500D01*
X123467873Y-107409500D01*
X123467864Y-107409500D01*
X122472129Y-107409500D01*
X122472123Y-107409501D01*
X122412518Y-107415908D01*
X122378331Y-107428659D01*
X122308639Y-107433642D01*
X122291669Y-107428659D01*
X122268948Y-107420185D01*
X122257483Y-107415909D01*
X122257482Y-107415908D01*
X122197883Y-107409501D01*
X122197881Y-107409500D01*
X122197873Y-107409500D01*
X122197864Y-107409500D01*
X121202129Y-107409500D01*
X121202123Y-107409501D01*
X121142518Y-107415908D01*
X121108331Y-107428659D01*
X121038639Y-107433642D01*
X121021669Y-107428659D01*
X120998948Y-107420185D01*
X120987483Y-107415909D01*
X120987482Y-107415908D01*
X120927883Y-107409501D01*
X120927881Y-107409500D01*
X120927873Y-107409500D01*
X120927864Y-107409500D01*
X119932129Y-107409500D01*
X119932123Y-107409501D01*
X119872518Y-107415908D01*
X119838331Y-107428659D01*
X119768639Y-107433642D01*
X119751669Y-107428659D01*
X119728948Y-107420185D01*
X119717483Y-107415909D01*
X119717482Y-107415908D01*
X119657883Y-107409501D01*
X119657881Y-107409500D01*
X119657873Y-107409500D01*
X119657864Y-107409500D01*
X118662129Y-107409500D01*
X118662123Y-107409501D01*
X118602518Y-107415908D01*
X118568331Y-107428659D01*
X118498639Y-107433642D01*
X118481669Y-107428659D01*
X118458948Y-107420185D01*
X118447483Y-107415909D01*
X118447482Y-107415908D01*
X118387883Y-107409501D01*
X118387881Y-107409500D01*
X118387873Y-107409500D01*
X118387864Y-107409500D01*
X117392129Y-107409500D01*
X117392123Y-107409501D01*
X117332518Y-107415908D01*
X117298331Y-107428659D01*
X117228639Y-107433642D01*
X117211669Y-107428659D01*
X117188948Y-107420185D01*
X117177483Y-107415909D01*
X117177482Y-107415908D01*
X117117883Y-107409501D01*
X117117881Y-107409500D01*
X117117873Y-107409500D01*
X117117864Y-107409500D01*
X116122129Y-107409500D01*
X116122123Y-107409501D01*
X116062518Y-107415908D01*
X116028331Y-107428659D01*
X115958639Y-107433642D01*
X115941669Y-107428659D01*
X115918948Y-107420185D01*
X115907483Y-107415909D01*
X115907482Y-107415908D01*
X115847883Y-107409501D01*
X115847881Y-107409500D01*
X115847873Y-107409500D01*
X115847864Y-107409500D01*
X114852129Y-107409500D01*
X114852123Y-107409501D01*
X114792518Y-107415908D01*
X114758331Y-107428659D01*
X114688639Y-107433642D01*
X114671669Y-107428659D01*
X114648948Y-107420185D01*
X114637483Y-107415909D01*
X114637482Y-107415908D01*
X114577883Y-107409501D01*
X114577881Y-107409500D01*
X114577873Y-107409500D01*
X114577864Y-107409500D01*
X113582129Y-107409500D01*
X113582123Y-107409501D01*
X113522518Y-107415908D01*
X113488331Y-107428659D01*
X113418639Y-107433642D01*
X113401669Y-107428659D01*
X113378948Y-107420185D01*
X113367483Y-107415909D01*
X113367482Y-107415908D01*
X113307883Y-107409501D01*
X113307881Y-107409500D01*
X113307873Y-107409500D01*
X113307864Y-107409500D01*
X112312129Y-107409500D01*
X112312123Y-107409501D01*
X112252520Y-107415908D01*
X112252517Y-107415908D01*
X112252517Y-107415909D01*
X112217620Y-107428925D01*
X112217617Y-107428926D01*
X112147925Y-107433909D01*
X112130952Y-107428925D01*
X112097379Y-107416403D01*
X112097372Y-107416401D01*
X112037844Y-107410000D01*
X111790000Y-107410000D01*
X111290000Y-107410000D01*
X111042155Y-107410000D01*
X110982627Y-107416401D01*
X110982620Y-107416403D01*
X110847913Y-107466645D01*
X110847906Y-107466649D01*
X110732812Y-107552809D01*
X110732809Y-107552812D01*
X110646649Y-107667906D01*
X110646645Y-107667913D01*
X110596403Y-107802620D01*
X110596401Y-107802627D01*
X110590000Y-107862155D01*
X109750500Y-107862155D01*
X109750499Y-107410000D01*
X109750499Y-106912127D01*
X109750498Y-106912123D01*
X109750497Y-106912116D01*
X109744091Y-106852517D01*
X109731340Y-106818332D01*
X109726357Y-106748642D01*
X109731340Y-106731669D01*
X109744091Y-106697483D01*
X109750500Y-106637873D01*
X109750499Y-105642128D01*
X109744091Y-105582517D01*
X109731340Y-105548332D01*
X109726357Y-105478642D01*
X109731340Y-105461669D01*
X109744091Y-105427483D01*
X109750500Y-105367873D01*
X109750499Y-104372128D01*
X109744091Y-104312517D01*
X109731340Y-104278332D01*
X109726357Y-104208642D01*
X109731340Y-104191669D01*
X109744091Y-104157483D01*
X109750500Y-104097873D01*
X109750499Y-103102128D01*
X109744091Y-103042517D01*
X109731340Y-103008332D01*
X109726357Y-102938642D01*
X109731340Y-102921669D01*
X109744091Y-102887483D01*
X109750500Y-102827873D01*
X109750499Y-101832128D01*
X109744091Y-101772517D01*
X109731340Y-101738332D01*
X109726357Y-101668642D01*
X109731340Y-101651669D01*
X109744091Y-101617483D01*
X109750500Y-101557873D01*
X109750499Y-100562128D01*
X109744091Y-100502517D01*
X109731340Y-100468332D01*
X109726357Y-100398642D01*
X109731340Y-100381669D01*
X109744091Y-100347483D01*
X109745127Y-100337844D01*
X114020000Y-100337844D01*
X114026401Y-100397372D01*
X114026403Y-100397379D01*
X114076645Y-100532086D01*
X114076649Y-100532093D01*
X114162809Y-100647187D01*
X114162812Y-100647190D01*
X114277906Y-100733350D01*
X114277913Y-100733354D01*
X114412620Y-100783596D01*
X114412627Y-100783598D01*
X114472155Y-100789999D01*
X114472172Y-100790000D01*
X114795000Y-100790000D01*
X115295000Y-100790000D01*
X115617828Y-100790000D01*
X115617844Y-100789999D01*
X115677377Y-100783597D01*
X115677379Y-100783597D01*
X115764165Y-100751227D01*
X115833857Y-100746241D01*
X115850835Y-100751227D01*
X115937621Y-100783597D01*
X115997155Y-100789999D01*
X115997172Y-100790000D01*
X116320000Y-100790000D01*
X116820000Y-100790000D01*
X117142828Y-100790000D01*
X117142844Y-100789999D01*
X117202377Y-100783597D01*
X117202379Y-100783597D01*
X117289165Y-100751227D01*
X117358857Y-100746241D01*
X117375835Y-100751227D01*
X117462621Y-100783597D01*
X117522155Y-100789999D01*
X117522172Y-100790000D01*
X117845000Y-100790000D01*
X118345000Y-100790000D01*
X118667828Y-100790000D01*
X118667844Y-100789999D01*
X118727372Y-100783598D01*
X118727379Y-100783596D01*
X118862086Y-100733354D01*
X118862093Y-100733350D01*
X118977187Y-100647190D01*
X118977190Y-100647187D01*
X119063350Y-100532093D01*
X119063354Y-100532086D01*
X119113596Y-100397379D01*
X119113598Y-100397372D01*
X119119999Y-100337844D01*
X119120000Y-100337827D01*
X119120000Y-100015000D01*
X118345000Y-100015000D01*
X118345000Y-100790000D01*
X117845000Y-100790000D01*
X117845000Y-100015000D01*
X116820000Y-100015000D01*
X116820000Y-100790000D01*
X116320000Y-100790000D01*
X116320000Y-100015000D01*
X115295000Y-100015000D01*
X115295000Y-100790000D01*
X114795000Y-100790000D01*
X114795000Y-100015000D01*
X114020000Y-100015000D01*
X114020000Y-100337844D01*
X109745127Y-100337844D01*
X109750500Y-100287873D01*
X109750499Y-99762491D01*
X109750499Y-99292129D01*
X109750498Y-99292123D01*
X109750497Y-99292116D01*
X109744091Y-99232517D01*
X109731340Y-99198332D01*
X109726357Y-99128642D01*
X109731340Y-99111669D01*
X109744091Y-99077483D01*
X109750500Y-99017873D01*
X109750500Y-98812844D01*
X114020000Y-98812844D01*
X114026401Y-98872372D01*
X114026403Y-98872383D01*
X114058772Y-98959168D01*
X114063756Y-99028859D01*
X114058772Y-99045832D01*
X114026403Y-99132616D01*
X114026401Y-99132627D01*
X114020000Y-99192155D01*
X114020000Y-99515000D01*
X114795000Y-99515000D01*
X115295000Y-99515000D01*
X116320000Y-99515000D01*
X116820000Y-99515000D01*
X117845000Y-99515000D01*
X118345000Y-99515000D01*
X119120000Y-99515000D01*
X119120000Y-99192172D01*
X119119999Y-99192155D01*
X119113597Y-99132622D01*
X119113597Y-99132620D01*
X119081227Y-99045835D01*
X119076241Y-98976143D01*
X119081227Y-98959165D01*
X119113597Y-98872379D01*
X119113597Y-98872377D01*
X119119999Y-98812844D01*
X119120000Y-98812827D01*
X119120000Y-98490000D01*
X118345000Y-98490000D01*
X118345000Y-99515000D01*
X117845000Y-99515000D01*
X117845000Y-98490000D01*
X116820000Y-98490000D01*
X116820000Y-99515000D01*
X116320000Y-99515000D01*
X116320000Y-98490000D01*
X115295000Y-98490000D01*
X115295000Y-99515000D01*
X114795000Y-99515000D01*
X114795000Y-98490000D01*
X114020000Y-98490000D01*
X114020000Y-98812844D01*
X109750500Y-98812844D01*
X109750499Y-98022128D01*
X109744091Y-97962517D01*
X109731340Y-97928332D01*
X109726357Y-97858642D01*
X109731340Y-97841669D01*
X109744091Y-97807483D01*
X109750500Y-97747873D01*
X109750500Y-97287844D01*
X114020000Y-97287844D01*
X114026401Y-97347372D01*
X114026403Y-97347383D01*
X114058772Y-97434168D01*
X114063756Y-97503859D01*
X114058772Y-97520832D01*
X114026403Y-97607616D01*
X114026401Y-97607627D01*
X114020000Y-97667155D01*
X114020000Y-97990000D01*
X114795000Y-97990000D01*
X115295000Y-97990000D01*
X116320000Y-97990000D01*
X116820000Y-97990000D01*
X117845000Y-97990000D01*
X118345000Y-97990000D01*
X119120000Y-97990000D01*
X119120000Y-97667172D01*
X119119999Y-97667155D01*
X119113597Y-97607622D01*
X119113597Y-97607620D01*
X119081227Y-97520835D01*
X119076241Y-97451143D01*
X119081227Y-97434165D01*
X119113597Y-97347379D01*
X119113597Y-97347377D01*
X119119999Y-97287844D01*
X119120000Y-97287827D01*
X119120000Y-96965000D01*
X118345000Y-96965000D01*
X118345000Y-97990000D01*
X117845000Y-97990000D01*
X117845000Y-96965000D01*
X116820000Y-96965000D01*
X116820000Y-97990000D01*
X116320000Y-97990000D01*
X116320000Y-96965000D01*
X115295000Y-96965000D01*
X115295000Y-97990000D01*
X114795000Y-97990000D01*
X114795000Y-96965000D01*
X114020000Y-96965000D01*
X114020000Y-97287844D01*
X109750500Y-97287844D01*
X109750499Y-96752128D01*
X109744091Y-96692517D01*
X109731340Y-96658332D01*
X109726357Y-96588642D01*
X109731340Y-96571669D01*
X109744091Y-96537483D01*
X109750500Y-96477873D01*
X109750499Y-96142155D01*
X114020000Y-96142155D01*
X114020000Y-96465000D01*
X114795000Y-96465000D01*
X115295000Y-96465000D01*
X116320000Y-96465000D01*
X116820000Y-96465000D01*
X117845000Y-96465000D01*
X118345000Y-96465000D01*
X119120000Y-96465000D01*
X119120000Y-96142172D01*
X119119999Y-96142155D01*
X119113598Y-96082627D01*
X119113596Y-96082620D01*
X119063354Y-95947913D01*
X119063350Y-95947906D01*
X118977190Y-95832812D01*
X118977187Y-95832809D01*
X118862093Y-95746649D01*
X118862086Y-95746645D01*
X118727379Y-95696403D01*
X118727372Y-95696401D01*
X118667844Y-95690000D01*
X118345000Y-95690000D01*
X118345000Y-96465000D01*
X117845000Y-96465000D01*
X117845000Y-95690000D01*
X117522155Y-95690000D01*
X117462627Y-95696401D01*
X117462616Y-95696403D01*
X117375832Y-95728772D01*
X117306141Y-95733756D01*
X117289168Y-95728772D01*
X117202383Y-95696403D01*
X117202372Y-95696401D01*
X117142844Y-95690000D01*
X116820000Y-95690000D01*
X116820000Y-96465000D01*
X116320000Y-96465000D01*
X116320000Y-95690000D01*
X115997155Y-95690000D01*
X115937627Y-95696401D01*
X115937616Y-95696403D01*
X115850832Y-95728772D01*
X115781141Y-95733756D01*
X115764168Y-95728772D01*
X115677383Y-95696403D01*
X115677372Y-95696401D01*
X115617844Y-95690000D01*
X115295000Y-95690000D01*
X115295000Y-96465000D01*
X114795000Y-96465000D01*
X114795000Y-95690000D01*
X114472155Y-95690000D01*
X114412627Y-95696401D01*
X114412620Y-95696403D01*
X114277913Y-95746645D01*
X114277906Y-95746649D01*
X114162812Y-95832809D01*
X114162809Y-95832812D01*
X114076649Y-95947906D01*
X114076645Y-95947913D01*
X114026403Y-96082620D01*
X114026401Y-96082627D01*
X114020000Y-96142155D01*
X109750499Y-96142155D01*
X109750499Y-95978050D01*
X109750499Y-95482129D01*
X109750498Y-95482123D01*
X109750497Y-95482116D01*
X109744091Y-95422517D01*
X109731340Y-95388332D01*
X109726357Y-95318642D01*
X109731340Y-95301669D01*
X109744091Y-95267483D01*
X109750500Y-95207873D01*
X109750499Y-94212128D01*
X109744091Y-94152517D01*
X109731340Y-94118332D01*
X109726357Y-94048642D01*
X109731340Y-94031669D01*
X109744091Y-93997483D01*
X109750500Y-93937873D01*
X109750499Y-92944499D01*
X109770183Y-92877461D01*
X109822987Y-92831706D01*
X109874499Y-92820500D01*
X120394071Y-92820500D01*
X120478615Y-92803682D01*
X120519744Y-92795501D01*
X120638127Y-92746465D01*
X120659774Y-92732001D01*
X120744669Y-92675277D01*
X122983127Y-90436819D01*
X123044450Y-90403334D01*
X123070808Y-90400500D01*
X124626000Y-90400500D01*
X124693039Y-90420185D01*
X124738794Y-90472989D01*
X124750000Y-90524500D01*
X124750000Y-90650000D01*
X127250000Y-90650000D01*
X127250000Y-90524500D01*
X127269685Y-90457461D01*
X127322489Y-90411706D01*
X127374000Y-90400500D01*
X127679192Y-90400500D01*
X127746231Y-90420185D01*
X127766873Y-90436819D01*
X129807872Y-92477819D01*
X129841357Y-92539142D01*
X129836373Y-92608834D01*
X129794501Y-92664767D01*
X129729037Y-92689184D01*
X129720191Y-92689500D01*
X127374500Y-92689500D01*
X127307461Y-92669815D01*
X127261706Y-92617011D01*
X127250500Y-92565500D01*
X127250499Y-91672129D01*
X127250498Y-91672123D01*
X127250497Y-91672116D01*
X127244091Y-91612517D01*
X127231073Y-91577616D01*
X127226090Y-91507926D01*
X127231075Y-91490949D01*
X127243597Y-91457375D01*
X127243598Y-91457372D01*
X127249999Y-91397844D01*
X127250000Y-91397827D01*
X127250000Y-91150000D01*
X124750000Y-91150000D01*
X124750000Y-91397844D01*
X124756401Y-91457372D01*
X124756403Y-91457379D01*
X124768925Y-91490952D01*
X124773909Y-91560643D01*
X124768925Y-91577617D01*
X124755909Y-91612514D01*
X124755908Y-91612516D01*
X124752170Y-91647289D01*
X124749501Y-91672123D01*
X124749500Y-91672135D01*
X124749500Y-92667870D01*
X124749501Y-92667876D01*
X124755908Y-92727481D01*
X124768659Y-92761669D01*
X124773642Y-92831361D01*
X124768659Y-92848331D01*
X124755908Y-92882518D01*
X124749501Y-92942116D01*
X124749500Y-92942135D01*
X124749500Y-93937870D01*
X124749501Y-93937876D01*
X124755908Y-93997481D01*
X124768659Y-94031669D01*
X124773642Y-94101361D01*
X124768659Y-94118331D01*
X124755908Y-94152518D01*
X124751288Y-94195496D01*
X124749501Y-94212123D01*
X124749500Y-94212135D01*
X124749500Y-95207870D01*
X124749501Y-95207876D01*
X124755908Y-95267481D01*
X124768659Y-95301669D01*
X124773642Y-95371361D01*
X124768659Y-95388331D01*
X124755908Y-95422518D01*
X124749501Y-95482116D01*
X124749501Y-95482123D01*
X124749500Y-95482135D01*
X124749500Y-96477870D01*
X124749501Y-96477876D01*
X124755908Y-96537481D01*
X124768659Y-96571669D01*
X124773642Y-96641361D01*
X124768659Y-96658331D01*
X124755908Y-96692518D01*
X124750296Y-96744723D01*
X124749501Y-96752123D01*
X124749500Y-96752135D01*
X124749500Y-97747870D01*
X124749501Y-97747876D01*
X124755908Y-97807481D01*
X124768659Y-97841669D01*
X124773642Y-97911361D01*
X124768659Y-97928331D01*
X124755908Y-97962518D01*
X124752954Y-97990000D01*
X124749501Y-98022123D01*
X124749500Y-98022135D01*
X124749500Y-99017870D01*
X124749501Y-99017876D01*
X124755908Y-99077481D01*
X124768659Y-99111669D01*
X124773642Y-99181361D01*
X124768659Y-99198331D01*
X124755908Y-99232518D01*
X124749501Y-99292116D01*
X124749501Y-99292123D01*
X124749500Y-99292135D01*
X124749500Y-100287870D01*
X124749501Y-100287876D01*
X124755908Y-100347481D01*
X124768659Y-100381669D01*
X124773642Y-100451361D01*
X124768659Y-100468331D01*
X124755908Y-100502518D01*
X124752729Y-100532093D01*
X124749501Y-100562123D01*
X124749500Y-100562135D01*
X124749500Y-101557870D01*
X124749501Y-101557876D01*
X124755908Y-101617481D01*
X124768659Y-101651669D01*
X124773642Y-101721361D01*
X124768659Y-101738331D01*
X124755908Y-101772518D01*
X124749501Y-101832116D01*
X124749501Y-101832123D01*
X124749500Y-101832135D01*
X124749500Y-102827870D01*
X124749501Y-102827876D01*
X124755908Y-102887481D01*
X124768659Y-102921669D01*
X124773642Y-102991361D01*
X124768659Y-103008331D01*
X124755908Y-103042518D01*
X124750296Y-103094723D01*
X124749501Y-103102123D01*
X124749500Y-103102135D01*
X124749500Y-104097870D01*
X124749501Y-104097876D01*
X124755908Y-104157481D01*
X124768659Y-104191669D01*
X124773642Y-104261361D01*
X124768659Y-104278331D01*
X124755908Y-104312518D01*
X124749501Y-104372116D01*
X124749501Y-104372123D01*
X124749500Y-104372135D01*
X124749500Y-105367870D01*
X124749501Y-105367876D01*
X124755908Y-105427481D01*
X124768659Y-105461669D01*
X124773642Y-105531361D01*
X124768659Y-105548331D01*
X124755908Y-105582518D01*
X124749501Y-105642116D01*
X124749501Y-105642123D01*
X124749500Y-105642135D01*
X124749500Y-106637870D01*
X124749501Y-106637876D01*
X124755908Y-106697481D01*
X124768659Y-106731669D01*
X124773642Y-106801361D01*
X124768659Y-106818331D01*
X124755908Y-106852518D01*
X124749501Y-106912116D01*
X124749500Y-106912127D01*
X124749500Y-107907870D01*
X124749501Y-107907876D01*
X124755908Y-107967483D01*
X124806202Y-108102328D01*
X124806206Y-108102335D01*
X124892452Y-108217544D01*
X124892455Y-108217547D01*
X125007664Y-108303793D01*
X125007671Y-108303797D01*
X125052618Y-108320561D01*
X125142517Y-108354091D01*
X125202127Y-108360500D01*
X125225497Y-108360499D01*
X125292536Y-108380181D01*
X125338292Y-108432983D01*
X125349500Y-108484499D01*
X125349500Y-114162770D01*
X125329815Y-114229809D01*
X125313181Y-114250451D01*
X125232289Y-114331342D01*
X125140187Y-114480663D01*
X125140184Y-114480671D01*
X125128972Y-114514506D01*
X125089199Y-114571950D01*
X125024683Y-114598772D01*
X125011267Y-114599500D01*
X120928592Y-114599500D01*
X120861553Y-114579815D01*
X120818107Y-114531795D01*
X120783342Y-114463566D01*
X120644517Y-114272490D01*
X120477510Y-114105483D01*
X120286433Y-113966657D01*
X120214902Y-113930210D01*
X120075996Y-113859433D01*
X119851368Y-113786446D01*
X119618097Y-113749500D01*
X119618092Y-113749500D01*
X119381908Y-113749500D01*
X119381903Y-113749500D01*
X119148631Y-113786446D01*
X118924003Y-113859433D01*
X118713566Y-113966657D01*
X118621531Y-114033525D01*
X118522490Y-114105483D01*
X118522488Y-114105485D01*
X118522487Y-114105485D01*
X118355485Y-114272487D01*
X118355485Y-114272488D01*
X118355483Y-114272490D01*
X118307607Y-114338385D01*
X118216657Y-114463566D01*
X118181893Y-114531795D01*
X118133918Y-114582591D01*
X118071408Y-114599500D01*
X114428592Y-114599500D01*
X114361553Y-114579815D01*
X114318107Y-114531795D01*
X114283342Y-114463566D01*
X114144517Y-114272490D01*
X113977510Y-114105483D01*
X113786433Y-113966657D01*
X113714902Y-113930210D01*
X113575996Y-113859433D01*
X113351368Y-113786446D01*
X113118097Y-113749500D01*
X113118092Y-113749500D01*
X112881908Y-113749500D01*
X112881903Y-113749500D01*
X112648631Y-113786446D01*
X112424003Y-113859433D01*
X112213566Y-113966657D01*
X112121531Y-114033525D01*
X112022490Y-114105483D01*
X112022488Y-114105485D01*
X112022487Y-114105485D01*
X111855485Y-114272487D01*
X111855485Y-114272488D01*
X111855483Y-114272490D01*
X111807607Y-114338385D01*
X111716657Y-114463566D01*
X111609433Y-114674003D01*
X111536446Y-114898631D01*
X111499500Y-115131902D01*
X111499500Y-115368097D01*
X111536446Y-115601368D01*
X111609433Y-115825996D01*
X111707944Y-116019333D01*
X111716657Y-116036433D01*
X111855483Y-116227510D01*
X112022490Y-116394517D01*
X112213567Y-116533343D01*
X112312991Y-116584002D01*
X112424003Y-116640566D01*
X112424005Y-116640566D01*
X112424008Y-116640568D01*
X112544412Y-116679689D01*
X112648631Y-116713553D01*
X112881903Y-116750500D01*
X112881908Y-116750500D01*
X113118097Y-116750500D01*
X113351368Y-116713553D01*
X113575992Y-116640568D01*
X113786433Y-116533343D01*
X113977510Y-116394517D01*
X114144517Y-116227510D01*
X114283343Y-116036433D01*
X114318107Y-115968205D01*
X114366082Y-115917409D01*
X114428592Y-115900500D01*
X118071408Y-115900500D01*
X118138447Y-115920185D01*
X118181893Y-115968205D01*
X118216657Y-116036433D01*
X118355483Y-116227510D01*
X118522490Y-116394517D01*
X118713567Y-116533343D01*
X118812991Y-116584002D01*
X118924003Y-116640566D01*
X118924005Y-116640566D01*
X118924008Y-116640568D01*
X119044412Y-116679689D01*
X119148631Y-116713553D01*
X119381903Y-116750500D01*
X119381908Y-116750500D01*
X119618097Y-116750500D01*
X119851368Y-116713553D01*
X120075992Y-116640568D01*
X120286433Y-116533343D01*
X120477510Y-116394517D01*
X120644517Y-116227510D01*
X120783343Y-116036433D01*
X120818107Y-115968205D01*
X120866082Y-115917409D01*
X120928592Y-115900500D01*
X125011267Y-115900500D01*
X125078306Y-115920185D01*
X125124061Y-115972989D01*
X125128972Y-115985494D01*
X125140186Y-116019334D01*
X125232288Y-116168656D01*
X125356344Y-116292712D01*
X125505666Y-116384814D01*
X125672203Y-116439999D01*
X125774991Y-116450500D01*
X126400008Y-116450499D01*
X126400016Y-116450498D01*
X126400019Y-116450498D01*
X126456302Y-116444748D01*
X126502797Y-116439999D01*
X126669334Y-116384814D01*
X126818656Y-116292712D01*
X126912319Y-116199049D01*
X126973642Y-116165564D01*
X127043334Y-116170548D01*
X127087681Y-116199049D01*
X127181344Y-116292712D01*
X127330666Y-116384814D01*
X127497203Y-116439999D01*
X127599991Y-116450500D01*
X128225008Y-116450499D01*
X128225016Y-116450498D01*
X128225019Y-116450498D01*
X128281302Y-116444748D01*
X128327797Y-116439999D01*
X128494334Y-116384814D01*
X128643656Y-116292712D01*
X128767712Y-116168656D01*
X128859814Y-116019334D01*
X128871028Y-115985494D01*
X128910801Y-115928050D01*
X128975317Y-115901228D01*
X128988733Y-115900500D01*
X134564071Y-115900500D01*
X134648615Y-115883682D01*
X134689744Y-115875501D01*
X134808127Y-115826465D01*
X134865693Y-115788001D01*
X134914669Y-115755277D01*
X135380277Y-115289669D01*
X135451465Y-115183127D01*
X135500501Y-115064744D01*
X135518167Y-114975931D01*
X135525500Y-114939069D01*
X135525500Y-114151232D01*
X135545185Y-114084193D01*
X135597989Y-114038438D01*
X135610495Y-114033526D01*
X135644334Y-114022314D01*
X135793656Y-113930212D01*
X135917712Y-113806156D01*
X135923337Y-113797034D01*
X135931130Y-113784403D01*
X135983078Y-113737678D01*
X136036668Y-113725500D01*
X138850500Y-113725500D01*
X138917539Y-113745185D01*
X138963294Y-113797989D01*
X138974500Y-113849500D01*
X138974500Y-116064069D01*
X138983542Y-116109523D01*
X138983542Y-116109525D01*
X138999497Y-116189736D01*
X138999499Y-116189744D01*
X139046069Y-116302175D01*
X139048535Y-116308127D01*
X139099775Y-116384814D01*
X139119726Y-116414673D01*
X139460324Y-116755271D01*
X139460331Y-116755277D01*
X139566871Y-116826464D01*
X139566870Y-116826464D01*
X139601544Y-116840826D01*
X139685256Y-116875501D01*
X139685260Y-116875501D01*
X139685261Y-116875502D01*
X139810928Y-116900500D01*
X139810931Y-116900500D01*
X148615404Y-116900500D01*
X148682443Y-116920185D01*
X148728198Y-116972989D01*
X148738142Y-117042147D01*
X148725888Y-117080797D01*
X148716117Y-117099971D01*
X148655290Y-117287173D01*
X148624500Y-117481577D01*
X148624500Y-117678422D01*
X148655290Y-117872826D01*
X148716117Y-118060029D01*
X148805476Y-118235405D01*
X148921172Y-118394646D01*
X149060354Y-118533828D01*
X149179784Y-118620600D01*
X149219596Y-118649525D01*
X149396763Y-118739795D01*
X149447560Y-118787769D01*
X149464355Y-118855590D01*
X149441818Y-118921725D01*
X149396764Y-118960765D01*
X149219859Y-119050902D01*
X149184873Y-119076320D01*
X149184872Y-119076320D01*
X149828554Y-119720000D01*
X149822339Y-119720000D01*
X149720606Y-119747259D01*
X149629394Y-119799920D01*
X149554920Y-119874394D01*
X149502259Y-119965606D01*
X149475000Y-120067339D01*
X149475000Y-120073552D01*
X148831320Y-119429872D01*
X148831320Y-119429873D01*
X148805902Y-119464859D01*
X148805899Y-119464863D01*
X148716582Y-119640161D01*
X148655778Y-119827294D01*
X148625000Y-120021617D01*
X148625000Y-120218382D01*
X148655778Y-120412705D01*
X148716581Y-120599835D01*
X148805905Y-120775145D01*
X148831319Y-120810125D01*
X148831320Y-120810125D01*
X149475000Y-120166445D01*
X149475000Y-120172661D01*
X149502259Y-120274394D01*
X149554920Y-120365606D01*
X149629394Y-120440080D01*
X149720606Y-120492741D01*
X149822339Y-120520000D01*
X149828553Y-120520000D01*
X149184873Y-121163677D01*
X149184873Y-121163678D01*
X149219858Y-121189096D01*
X149395164Y-121278418D01*
X149582294Y-121339221D01*
X149776618Y-121370000D01*
X149973382Y-121370000D01*
X150167705Y-121339221D01*
X150354835Y-121278418D01*
X150530143Y-121189095D01*
X150565125Y-121163678D01*
X150565126Y-121163678D01*
X149921448Y-120520000D01*
X149927661Y-120520000D01*
X150029394Y-120492741D01*
X150120606Y-120440080D01*
X150195080Y-120365606D01*
X150247741Y-120274394D01*
X150275000Y-120172661D01*
X150275000Y-120166448D01*
X150918678Y-120810126D01*
X150918678Y-120810125D01*
X150944095Y-120775143D01*
X151033418Y-120599835D01*
X151094221Y-120412705D01*
X151125000Y-120218382D01*
X151125000Y-120021617D01*
X151094221Y-119827294D01*
X151033418Y-119640164D01*
X150944096Y-119464858D01*
X150918678Y-119429873D01*
X150918677Y-119429873D01*
X150275000Y-120073551D01*
X150275000Y-120067339D01*
X150247741Y-119965606D01*
X150195080Y-119874394D01*
X150120606Y-119799920D01*
X150029394Y-119747259D01*
X149927661Y-119720000D01*
X149921447Y-119720000D01*
X150565125Y-119076320D01*
X150565125Y-119076319D01*
X150530145Y-119050905D01*
X150353235Y-118960765D01*
X150302439Y-118912790D01*
X150285644Y-118844969D01*
X150308182Y-118778834D01*
X150353236Y-118739795D01*
X150355022Y-118738884D01*
X150355025Y-118738884D01*
X150530405Y-118649524D01*
X150689646Y-118533828D01*
X150828828Y-118394646D01*
X150944524Y-118235405D01*
X151033884Y-118060025D01*
X151094709Y-117872826D01*
X151125500Y-117678422D01*
X151125500Y-117481577D01*
X151094709Y-117287173D01*
X151072665Y-117219331D01*
X151033884Y-117099975D01*
X151024111Y-117080795D01*
X151011215Y-117012128D01*
X151037490Y-116947387D01*
X151094596Y-116907129D01*
X151134596Y-116900500D01*
X151689071Y-116900500D01*
X151773615Y-116883682D01*
X151814744Y-116875501D01*
X151933127Y-116826465D01*
X152039669Y-116755277D01*
X152880276Y-115914669D01*
X152951465Y-115808127D01*
X153000501Y-115689744D01*
X153005323Y-115665501D01*
X153025500Y-115564069D01*
X153025500Y-112685931D01*
X153025500Y-112685928D01*
X153000502Y-112560261D01*
X153000501Y-112560260D01*
X153000501Y-112560256D01*
X152951465Y-112441873D01*
X152951463Y-112441870D01*
X152945621Y-112433126D01*
X152880274Y-112335327D01*
X152539673Y-111994726D01*
X152539669Y-111994723D01*
X152433127Y-111923535D01*
X152425039Y-111920185D01*
X152314744Y-111874499D01*
X152314738Y-111874497D01*
X152189071Y-111849500D01*
X152189069Y-111849500D01*
X151249499Y-111849500D01*
X151182460Y-111829815D01*
X151136705Y-111777011D01*
X151125499Y-111725500D01*
X151125499Y-111702129D01*
X151125498Y-111702123D01*
X151125497Y-111702116D01*
X151119091Y-111642517D01*
X151118069Y-111639778D01*
X151068797Y-111507671D01*
X151068793Y-111507664D01*
X150990118Y-111402569D01*
X150982546Y-111392454D01*
X150982544Y-111392452D01*
X150982542Y-111392450D01*
X150950188Y-111368230D01*
X150908318Y-111312296D01*
X150900500Y-111268964D01*
X150900500Y-101151232D01*
X150920185Y-101084193D01*
X150972989Y-101038438D01*
X150985495Y-101033526D01*
X151019334Y-101022314D01*
X151168656Y-100930212D01*
X151292712Y-100806156D01*
X151302678Y-100789999D01*
X151306130Y-100784403D01*
X151358078Y-100737678D01*
X151411668Y-100725500D01*
X153239071Y-100725500D01*
X153323615Y-100708682D01*
X153364744Y-100700501D01*
X153483127Y-100651465D01*
X153589669Y-100580277D01*
X153920276Y-100249670D01*
X153991465Y-100143127D01*
X154040501Y-100024744D01*
X154043249Y-100010931D01*
X154065500Y-99899069D01*
X154065500Y-96774500D01*
X154085185Y-96707461D01*
X154137989Y-96661706D01*
X154189500Y-96650500D01*
X159405382Y-96650500D01*
X159472421Y-96670185D01*
X159506099Y-96704591D01*
X159507085Y-96703875D01*
X159634890Y-96879786D01*
X159785313Y-97030209D01*
X159818798Y-97091532D01*
X159813814Y-97161224D01*
X159771942Y-97217157D01*
X159734525Y-97236275D01*
X159708004Y-97244539D01*
X159708001Y-97244540D01*
X159568766Y-97328710D01*
X159568762Y-97328713D01*
X159453713Y-97443762D01*
X159453710Y-97443766D01*
X159369540Y-97583001D01*
X159369538Y-97583007D01*
X159321135Y-97738337D01*
X159321134Y-97738344D01*
X159315000Y-97805848D01*
X159315000Y-98290000D01*
X160231988Y-98290000D01*
X160199075Y-98347007D01*
X160165000Y-98474174D01*
X160165000Y-98605826D01*
X160199075Y-98732993D01*
X160231988Y-98790000D01*
X159315001Y-98790000D01*
X159315001Y-99274162D01*
X159321132Y-99341651D01*
X159321134Y-99341658D01*
X159369537Y-99496989D01*
X159369540Y-99496998D01*
X159453710Y-99636233D01*
X159453713Y-99636237D01*
X159568762Y-99751286D01*
X159568766Y-99751289D01*
X159708001Y-99835459D01*
X159708007Y-99835461D01*
X159863337Y-99883864D01*
X159863344Y-99883865D01*
X159930848Y-99889999D01*
X160414999Y-99889999D01*
X160415000Y-99889998D01*
X160415000Y-98973012D01*
X160472007Y-99005925D01*
X160599174Y-99040000D01*
X160730826Y-99040000D01*
X160857993Y-99005925D01*
X160915000Y-98973012D01*
X160915000Y-99889999D01*
X161399161Y-99889999D01*
X161466651Y-99883867D01*
X161466658Y-99883865D01*
X161621989Y-99835462D01*
X161621998Y-99835459D01*
X161761233Y-99751289D01*
X161761237Y-99751286D01*
X161876286Y-99636237D01*
X161876289Y-99636233D01*
X161960459Y-99496998D01*
X161960461Y-99496992D01*
X162008864Y-99341662D01*
X162008865Y-99341655D01*
X162015000Y-99274151D01*
X162015000Y-98790000D01*
X161098012Y-98790000D01*
X161130925Y-98732993D01*
X161165000Y-98605826D01*
X161165000Y-98474174D01*
X161130925Y-98347007D01*
X161098012Y-98290000D01*
X162014999Y-98290000D01*
X162014999Y-97805837D01*
X162008867Y-97738348D01*
X162008865Y-97738341D01*
X161960462Y-97583010D01*
X161960459Y-97583001D01*
X161876289Y-97443766D01*
X161876286Y-97443762D01*
X161761237Y-97328713D01*
X161761233Y-97328710D01*
X161621998Y-97244540D01*
X161621993Y-97244538D01*
X161595475Y-97236275D01*
X161537328Y-97197536D01*
X161509355Y-97133510D01*
X161520437Y-97064525D01*
X161544686Y-97030208D01*
X161544784Y-97030109D01*
X161544792Y-97030104D01*
X161695104Y-96879792D01*
X161787852Y-96752135D01*
X161822915Y-96703875D01*
X161824259Y-96704851D01*
X161870705Y-96662834D01*
X161924618Y-96650500D01*
X162399071Y-96650500D01*
X162499613Y-96630500D01*
X162524744Y-96625501D01*
X162643127Y-96576465D01*
X162665391Y-96561589D01*
X162665392Y-96561589D01*
X162728456Y-96519450D01*
X162749669Y-96505277D01*
X163420277Y-95834669D01*
X163491465Y-95728127D01*
X163540501Y-95609744D01*
X163548386Y-95570104D01*
X163565500Y-95484069D01*
X163565500Y-90355931D01*
X163565500Y-90355928D01*
X163540502Y-90230261D01*
X163540501Y-90230260D01*
X163540501Y-90230256D01*
X163525690Y-90194500D01*
X163504301Y-90142861D01*
X163491467Y-90111877D01*
X163491466Y-90111874D01*
X163478729Y-90092812D01*
X163420278Y-90005332D01*
X163420272Y-90005325D01*
X162329673Y-88914726D01*
X162329669Y-88914723D01*
X162223127Y-88843535D01*
X162104744Y-88794499D01*
X162104738Y-88794497D01*
X161979071Y-88769500D01*
X161979069Y-88769500D01*
X148350931Y-88769500D01*
X148350929Y-88769500D01*
X148225261Y-88794497D01*
X148225255Y-88794499D01*
X148106870Y-88843535D01*
X148000331Y-88914722D01*
X148000324Y-88914728D01*
X147659725Y-89255328D01*
X147659724Y-89255329D01*
X147606271Y-89335330D01*
X147606270Y-89335330D01*
X147588536Y-89361870D01*
X147588534Y-89361874D01*
X147539499Y-89480255D01*
X147539497Y-89480261D01*
X147514500Y-89605928D01*
X147514500Y-90843767D01*
X147494815Y-90910806D01*
X147442011Y-90956561D01*
X147429506Y-90961472D01*
X147395671Y-90972684D01*
X147395663Y-90972687D01*
X147246342Y-91064789D01*
X147122289Y-91188842D01*
X147110805Y-91207461D01*
X147067907Y-91277011D01*
X147059527Y-91290597D01*
X147007579Y-91337321D01*
X146953988Y-91349500D01*
X137474499Y-91349500D01*
X137407460Y-91329815D01*
X137361705Y-91277011D01*
X137350499Y-91225500D01*
X137350499Y-91102129D01*
X137350498Y-91102123D01*
X137350497Y-91102116D01*
X137344091Y-91042517D01*
X137338037Y-91026286D01*
X137293797Y-90907671D01*
X137293793Y-90907664D01*
X137207547Y-90792455D01*
X137207544Y-90792452D01*
X137092335Y-90706206D01*
X137092328Y-90706202D01*
X136957482Y-90655908D01*
X136957483Y-90655908D01*
X136897883Y-90649501D01*
X136897881Y-90649500D01*
X136897873Y-90649500D01*
X136897864Y-90649500D01*
X135102129Y-90649500D01*
X135102123Y-90649501D01*
X135042516Y-90655908D01*
X134907671Y-90706202D01*
X134907664Y-90706206D01*
X134792455Y-90792452D01*
X134792452Y-90792455D01*
X134706206Y-90907664D01*
X134706202Y-90907671D01*
X134655908Y-91042517D01*
X134649501Y-91102116D01*
X134649501Y-91102123D01*
X134649500Y-91102135D01*
X134649500Y-91225500D01*
X134629815Y-91292539D01*
X134577011Y-91338294D01*
X134525500Y-91349500D01*
X130570808Y-91349500D01*
X130503769Y-91329815D01*
X130483127Y-91313181D01*
X128921132Y-89751186D01*
X128887647Y-89689863D01*
X128892631Y-89620171D01*
X128934503Y-89564238D01*
X128999967Y-89539821D01*
X129018309Y-89539869D01*
X131750000Y-89750000D01*
X141249999Y-89750000D01*
X141250000Y-89750000D01*
X141750000Y-89350000D01*
X141750000Y-88250000D01*
X141501575Y-68376047D01*
X141520420Y-68308770D01*
X141572648Y-68262358D01*
X141625565Y-68250500D01*
X195124921Y-68250500D01*
X195191960Y-68270185D01*
X195237715Y-68322989D01*
X195247659Y-68392147D01*
X195218634Y-68455703D01*
X195200407Y-68472876D01*
X195027263Y-68605733D01*
X195027256Y-68605739D01*
X194855739Y-68777256D01*
X194855733Y-68777263D01*
X194708067Y-68969706D01*
X194586777Y-69179785D01*
X194586773Y-69179794D01*
X194493947Y-69403895D01*
X194431161Y-69638214D01*
X194399500Y-69878711D01*
X194399500Y-70121288D01*
X194431161Y-70361785D01*
X194493947Y-70596104D01*
X194586773Y-70820205D01*
X194586776Y-70820212D01*
X194708064Y-71030289D01*
X194708066Y-71030292D01*
X194708067Y-71030293D01*
X194855733Y-71222736D01*
X194855739Y-71222743D01*
X195027256Y-71394260D01*
X195027262Y-71394265D01*
X195219711Y-71541936D01*
X195429788Y-71663224D01*
X195653900Y-71756054D01*
X195888211Y-71818838D01*
X196068586Y-71842584D01*
X196128711Y-71850500D01*
X196128712Y-71850500D01*
X196371289Y-71850500D01*
X196419388Y-71844167D01*
X196611789Y-71818838D01*
X196846100Y-71756054D01*
X197070212Y-71663224D01*
X197280289Y-71541936D01*
X197472738Y-71394265D01*
X197644265Y-71222738D01*
X197777124Y-71049591D01*
X197833552Y-71008389D01*
X197903298Y-71004234D01*
X197964218Y-71038446D01*
X197996971Y-71100163D01*
X197999500Y-71125078D01*
X197999500Y-129124921D01*
X197979815Y-129191960D01*
X197927011Y-129237715D01*
X197857853Y-129247659D01*
X197794297Y-129218634D01*
X197777124Y-129200407D01*
X197644266Y-129027263D01*
X197644260Y-129027256D01*
X197472743Y-128855739D01*
X197472736Y-128855733D01*
X197280293Y-128708067D01*
X197280292Y-128708066D01*
X197280289Y-128708064D01*
X197070212Y-128586776D01*
X197041780Y-128574999D01*
X196846104Y-128493947D01*
X196611785Y-128431161D01*
X196371289Y-128399500D01*
X196371288Y-128399500D01*
X196128712Y-128399500D01*
X196128711Y-128399500D01*
X195888214Y-128431161D01*
X195653895Y-128493947D01*
X195429794Y-128586773D01*
X195429785Y-128586777D01*
X195269719Y-128679192D01*
X195224066Y-128705550D01*
X195219706Y-128708067D01*
X195027263Y-128855733D01*
X195027256Y-128855739D01*
X194855739Y-129027256D01*
X194855733Y-129027263D01*
X194708067Y-129219706D01*
X194586777Y-129429785D01*
X194586773Y-129429794D01*
X194493947Y-129653895D01*
X194431161Y-129888214D01*
X194399500Y-130128711D01*
X194399500Y-130371288D01*
X194431161Y-130611785D01*
X194493947Y-130846104D01*
X194540858Y-130959356D01*
X194586776Y-131070212D01*
X194708064Y-131280289D01*
X194708066Y-131280292D01*
X194708067Y-131280293D01*
X194855733Y-131472736D01*
X194855739Y-131472743D01*
X195027256Y-131644260D01*
X195027263Y-131644266D01*
X195033820Y-131649297D01*
X195219711Y-131791936D01*
X195429788Y-131913224D01*
X195653900Y-132006054D01*
X195653904Y-132006055D01*
X195657738Y-132007357D01*
X195657328Y-132008564D01*
X195712330Y-132042086D01*
X195742862Y-132104932D01*
X195734570Y-132174308D01*
X195690087Y-132228188D01*
X195623536Y-132249465D01*
X195620580Y-132249500D01*
X120944447Y-132249500D01*
X120877408Y-132229815D01*
X120831653Y-132177011D01*
X120821709Y-132107853D01*
X120850734Y-132044297D01*
X120909512Y-132006523D01*
X120914489Y-132005173D01*
X120928693Y-132001641D01*
X121099296Y-131917030D01*
X121247722Y-131797722D01*
X121367030Y-131649296D01*
X121451641Y-131478693D01*
X121497600Y-131293889D01*
X121500500Y-131251123D01*
X121500499Y-130348878D01*
X121497600Y-130306111D01*
X121451641Y-130121307D01*
X121421674Y-130060883D01*
X121370649Y-129958000D01*
X124800000Y-129958000D01*
X124810608Y-130077325D01*
X124810609Y-130077328D01*
X124866557Y-130272861D01*
X124960721Y-130453129D01*
X125089246Y-130610753D01*
X125246870Y-130739278D01*
X125427138Y-130833442D01*
X125622671Y-130889390D01*
X125622674Y-130889391D01*
X125741999Y-130899999D01*
X125742002Y-130900000D01*
X126050000Y-130900000D01*
X126550000Y-130900000D01*
X126857998Y-130900000D01*
X126858000Y-130899999D01*
X126977325Y-130889391D01*
X126977328Y-130889390D01*
X127172861Y-130833442D01*
X127189049Y-130824986D01*
X137250001Y-130824986D01*
X137260494Y-130927697D01*
X137315641Y-131094119D01*
X137315643Y-131094124D01*
X137407684Y-131243345D01*
X137531654Y-131367315D01*
X137680875Y-131459356D01*
X137680880Y-131459358D01*
X137847302Y-131514505D01*
X137847309Y-131514506D01*
X137950019Y-131524999D01*
X138399999Y-131524999D01*
X138900000Y-131524999D01*
X139349972Y-131524999D01*
X139349986Y-131524998D01*
X139452697Y-131514505D01*
X139619119Y-131459358D01*
X139619124Y-131459356D01*
X139768345Y-131367315D01*
X139892315Y-131243345D01*
X139984356Y-131094124D01*
X139984358Y-131094119D01*
X140039505Y-130927697D01*
X140039506Y-130927690D01*
X140049999Y-130824986D01*
X140050000Y-130824973D01*
X140050000Y-130700000D01*
X138900000Y-130700000D01*
X138900000Y-131524999D01*
X138399999Y-131524999D01*
X138400000Y-131524998D01*
X138400000Y-130700000D01*
X137250001Y-130700000D01*
X137250001Y-130824986D01*
X127189049Y-130824986D01*
X127353129Y-130739278D01*
X127510753Y-130610753D01*
X127543757Y-130570277D01*
X127639278Y-130453129D01*
X127733442Y-130272861D01*
X127789390Y-130077328D01*
X127789391Y-130077324D01*
X127789597Y-130075013D01*
X137250000Y-130075013D01*
X137250000Y-130200000D01*
X138400000Y-130200000D01*
X138900000Y-130200000D01*
X140049999Y-130200000D01*
X140049999Y-130075028D01*
X140049998Y-130075013D01*
X140039505Y-129972302D01*
X140032110Y-129949986D01*
X147675001Y-129949986D01*
X147685494Y-130052697D01*
X147740641Y-130219119D01*
X147740643Y-130219124D01*
X147832684Y-130368345D01*
X147956654Y-130492315D01*
X148105875Y-130584356D01*
X148105880Y-130584358D01*
X148272302Y-130639505D01*
X148272309Y-130639506D01*
X148375019Y-130649999D01*
X148649999Y-130649999D01*
X149150000Y-130649999D01*
X149424972Y-130649999D01*
X149424986Y-130649998D01*
X149527697Y-130639505D01*
X149694119Y-130584358D01*
X149694124Y-130584356D01*
X149843345Y-130492315D01*
X149967315Y-130368345D01*
X150059356Y-130219124D01*
X150059358Y-130219119D01*
X150114505Y-130052697D01*
X150114506Y-130052690D01*
X150124999Y-129949986D01*
X150125000Y-129949973D01*
X150125000Y-129900000D01*
X149150000Y-129900000D01*
X149150000Y-130649999D01*
X148649999Y-130649999D01*
X148650000Y-130649998D01*
X148650000Y-129900000D01*
X147675001Y-129900000D01*
X147675001Y-129949986D01*
X140032110Y-129949986D01*
X140011452Y-129887642D01*
X139984357Y-129805878D01*
X139984356Y-129805875D01*
X139892315Y-129656654D01*
X139768345Y-129532684D01*
X139638189Y-129452403D01*
X139638187Y-129452401D01*
X139619128Y-129440645D01*
X139619119Y-129440641D01*
X139452697Y-129385494D01*
X139452690Y-129385493D01*
X139349986Y-129375000D01*
X138900000Y-129375000D01*
X138900000Y-130200000D01*
X138400000Y-130200000D01*
X138400000Y-129375000D01*
X137950028Y-129375000D01*
X137950012Y-129375001D01*
X137847302Y-129385494D01*
X137680880Y-129440641D01*
X137680875Y-129440643D01*
X137531654Y-129532684D01*
X137407684Y-129656654D01*
X137315643Y-129805875D01*
X137315641Y-129805880D01*
X137260494Y-129972302D01*
X137260493Y-129972309D01*
X137250000Y-130075013D01*
X127789597Y-130075013D01*
X127790853Y-130060885D01*
X127790853Y-130060883D01*
X127799999Y-129958000D01*
X127800000Y-129957998D01*
X127800000Y-129350013D01*
X147675000Y-129350013D01*
X147675000Y-129400000D01*
X148650000Y-129400000D01*
X149150000Y-129400000D01*
X150124999Y-129400000D01*
X150124999Y-129350028D01*
X150124998Y-129350013D01*
X150114505Y-129247302D01*
X150059358Y-129080880D01*
X150059356Y-129080875D01*
X149967315Y-128931654D01*
X149843343Y-128807682D01*
X149839868Y-128805539D01*
X149837984Y-128803445D01*
X149837677Y-128803202D01*
X149837718Y-128803149D01*
X149793143Y-128753592D01*
X149781920Y-128684629D01*
X149809763Y-128620547D01*
X149839868Y-128594461D01*
X149843343Y-128592317D01*
X149967315Y-128468345D01*
X150059356Y-128319124D01*
X150059358Y-128319119D01*
X150114505Y-128152697D01*
X150114506Y-128152690D01*
X150124999Y-128049986D01*
X150125000Y-128049973D01*
X150125000Y-128000000D01*
X149150000Y-128000000D01*
X149150000Y-129400000D01*
X148650000Y-129400000D01*
X148650000Y-128000000D01*
X147675001Y-128000000D01*
X147675001Y-128049986D01*
X147685494Y-128152697D01*
X147740641Y-128319119D01*
X147740643Y-128319124D01*
X147832684Y-128468345D01*
X147956655Y-128592316D01*
X147956658Y-128592318D01*
X147960136Y-128594464D01*
X147962018Y-128596557D01*
X147962323Y-128596798D01*
X147962281Y-128596849D01*
X148006858Y-128646413D01*
X148018078Y-128715376D01*
X147990232Y-128779457D01*
X147960136Y-128805536D01*
X147956658Y-128807681D01*
X147956655Y-128807683D01*
X147832684Y-128931654D01*
X147740643Y-129080875D01*
X147740641Y-129080880D01*
X147685494Y-129247302D01*
X147685493Y-129247309D01*
X147675000Y-129350013D01*
X127800000Y-129350013D01*
X127800000Y-128750000D01*
X126550000Y-128750000D01*
X126550000Y-130900000D01*
X126050000Y-130900000D01*
X126050000Y-128750000D01*
X124800000Y-128750000D01*
X124800000Y-129958000D01*
X121370649Y-129958000D01*
X121367032Y-129950707D01*
X121367030Y-129950704D01*
X121247724Y-129802280D01*
X121247722Y-129802278D01*
X121178112Y-129746324D01*
X121138196Y-129688985D01*
X121135616Y-129619163D01*
X121171194Y-129559030D01*
X121178115Y-129553033D01*
X121247366Y-129497367D01*
X121247367Y-129497366D01*
X121366607Y-129349025D01*
X121366609Y-129349022D01*
X121451168Y-129178523D01*
X121497102Y-128993824D01*
X121500000Y-128951096D01*
X121500000Y-128750000D01*
X118500000Y-128750000D01*
X118500000Y-128951096D01*
X118502897Y-128993824D01*
X118548831Y-129178523D01*
X118633390Y-129349022D01*
X118633392Y-129349025D01*
X118752630Y-129497364D01*
X118821884Y-129553031D01*
X118861803Y-129610375D01*
X118864383Y-129680197D01*
X118828805Y-129740329D01*
X118821885Y-129746326D01*
X118752276Y-129802280D01*
X118632971Y-129950702D01*
X118632970Y-129950703D01*
X118632970Y-129950704D01*
X118568549Y-130080596D01*
X118521131Y-130131907D01*
X118457463Y-130149500D01*
X116920808Y-130149500D01*
X116853769Y-130129815D01*
X116833127Y-130113181D01*
X115486819Y-128766873D01*
X115453334Y-128705550D01*
X115450500Y-128679192D01*
X115450500Y-127435928D01*
X115425502Y-127310261D01*
X115425501Y-127310260D01*
X115425501Y-127310256D01*
X115376465Y-127191873D01*
X115375042Y-127189744D01*
X115305277Y-127085331D01*
X115305275Y-127085329D01*
X115305273Y-127085326D01*
X114871043Y-126651096D01*
X118500000Y-126651096D01*
X118502897Y-126693824D01*
X118548831Y-126878523D01*
X118633390Y-127049022D01*
X118633392Y-127049025D01*
X118752631Y-127197364D01*
X118822283Y-127253353D01*
X118862201Y-127310697D01*
X118864781Y-127380519D01*
X118829202Y-127440651D01*
X118822283Y-127446647D01*
X118752631Y-127502635D01*
X118633392Y-127650974D01*
X118633390Y-127650977D01*
X118548831Y-127821476D01*
X118502897Y-128006175D01*
X118500000Y-128048903D01*
X118500000Y-128250000D01*
X119750000Y-128250000D01*
X120250000Y-128250000D01*
X121500000Y-128250000D01*
X121500000Y-128048903D01*
X121497102Y-128006175D01*
X121451168Y-127821476D01*
X121366609Y-127650977D01*
X121366607Y-127650974D01*
X121247367Y-127502633D01*
X121247366Y-127502632D01*
X121177717Y-127446647D01*
X121137798Y-127389304D01*
X121135218Y-127319482D01*
X121170796Y-127259349D01*
X121177717Y-127253353D01*
X121247366Y-127197367D01*
X121247367Y-127197366D01*
X121366605Y-127049027D01*
X121370091Y-127041999D01*
X124800000Y-127041999D01*
X124800000Y-128250000D01*
X126050000Y-128250000D01*
X126550000Y-128250000D01*
X127800000Y-128250000D01*
X127800000Y-127874986D01*
X137250001Y-127874986D01*
X137260494Y-127977697D01*
X137315641Y-128144119D01*
X137315643Y-128144124D01*
X137407684Y-128293345D01*
X137531654Y-128417315D01*
X137680875Y-128509356D01*
X137680880Y-128509358D01*
X137847302Y-128564505D01*
X137847309Y-128564506D01*
X137950019Y-128574999D01*
X138399999Y-128574999D01*
X138900000Y-128574999D01*
X139349972Y-128574999D01*
X139349986Y-128574998D01*
X139452697Y-128564505D01*
X139619119Y-128509358D01*
X139619124Y-128509356D01*
X139768345Y-128417315D01*
X139892315Y-128293345D01*
X139984356Y-128144124D01*
X139984358Y-128144119D01*
X140039505Y-127977697D01*
X140039506Y-127977690D01*
X140049999Y-127874986D01*
X140050000Y-127874973D01*
X140050000Y-127750000D01*
X138900000Y-127750000D01*
X138900000Y-128574999D01*
X138399999Y-128574999D01*
X138400000Y-128574998D01*
X138400000Y-127750000D01*
X137250001Y-127750000D01*
X137250001Y-127874986D01*
X127800000Y-127874986D01*
X127800000Y-127450013D01*
X147675000Y-127450013D01*
X147675000Y-127500000D01*
X148650000Y-127500000D01*
X149150000Y-127500000D01*
X150124999Y-127500000D01*
X150124999Y-127450028D01*
X150124998Y-127450013D01*
X150114505Y-127347302D01*
X150059358Y-127180880D01*
X150059356Y-127180875D01*
X149967315Y-127031654D01*
X149843345Y-126907684D01*
X149694124Y-126815643D01*
X149694119Y-126815641D01*
X149527697Y-126760494D01*
X149527690Y-126760493D01*
X149424986Y-126750000D01*
X149150000Y-126750000D01*
X149150000Y-127500000D01*
X148650000Y-127500000D01*
X148650000Y-126750000D01*
X148375029Y-126750000D01*
X148375012Y-126750001D01*
X148272302Y-126760494D01*
X148105880Y-126815641D01*
X148105875Y-126815643D01*
X147956654Y-126907684D01*
X147832684Y-127031654D01*
X147740643Y-127180875D01*
X147740641Y-127180880D01*
X147685494Y-127347302D01*
X147685493Y-127347309D01*
X147675000Y-127450013D01*
X127800000Y-127450013D01*
X127800000Y-127125013D01*
X137250000Y-127125013D01*
X137250000Y-127250000D01*
X138400000Y-127250000D01*
X138900000Y-127250000D01*
X140049999Y-127250000D01*
X140049999Y-127125028D01*
X140049998Y-127125013D01*
X140039505Y-127022302D01*
X139984358Y-126855880D01*
X139984356Y-126855875D01*
X139892315Y-126706654D01*
X139768345Y-126582684D01*
X139619124Y-126490643D01*
X139619119Y-126490641D01*
X139452697Y-126435494D01*
X139452690Y-126435493D01*
X139349986Y-126425000D01*
X138900000Y-126425000D01*
X138900000Y-127250000D01*
X138400000Y-127250000D01*
X138400000Y-126425000D01*
X137950028Y-126425000D01*
X137950012Y-126425001D01*
X137847302Y-126435494D01*
X137680880Y-126490641D01*
X137680875Y-126490643D01*
X137531654Y-126582684D01*
X137407684Y-126706654D01*
X137315643Y-126855875D01*
X137315641Y-126855880D01*
X137260494Y-127022302D01*
X137260493Y-127022309D01*
X137250000Y-127125013D01*
X127800000Y-127125013D01*
X127800000Y-127042002D01*
X127799999Y-127041999D01*
X127789391Y-126922674D01*
X127789390Y-126922671D01*
X127733442Y-126727138D01*
X127639278Y-126546870D01*
X127510753Y-126389246D01*
X127353129Y-126260721D01*
X127172861Y-126166557D01*
X126977328Y-126110609D01*
X126977325Y-126110608D01*
X126858000Y-126100000D01*
X126550000Y-126100000D01*
X126550000Y-128250000D01*
X126050000Y-128250000D01*
X126050000Y-126100000D01*
X125741999Y-126100000D01*
X125622674Y-126110608D01*
X125622671Y-126110609D01*
X125427138Y-126166557D01*
X125246870Y-126260721D01*
X125089246Y-126389246D01*
X124960721Y-126546870D01*
X124866557Y-126727138D01*
X124810609Y-126922671D01*
X124810608Y-126922674D01*
X124800000Y-127041999D01*
X121370091Y-127041999D01*
X121398780Y-126984153D01*
X121398781Y-126984151D01*
X121451169Y-126878521D01*
X121497102Y-126693824D01*
X121500000Y-126651096D01*
X121500000Y-126450000D01*
X120250000Y-126450000D01*
X120250000Y-128250000D01*
X119750000Y-128250000D01*
X119750000Y-126450000D01*
X118500000Y-126450000D01*
X118500000Y-126651096D01*
X114871043Y-126651096D01*
X114714673Y-126494726D01*
X114714669Y-126494723D01*
X114608127Y-126423535D01*
X114489744Y-126374499D01*
X114489738Y-126374497D01*
X114364071Y-126349500D01*
X114364069Y-126349500D01*
X110478958Y-126349500D01*
X110411919Y-126329815D01*
X110373420Y-126290598D01*
X110367712Y-126281344D01*
X110243657Y-126157289D01*
X110243656Y-126157288D01*
X110094334Y-126065186D01*
X109927797Y-126010001D01*
X109927795Y-126010000D01*
X109825010Y-125999500D01*
X108774998Y-125999500D01*
X108774980Y-125999501D01*
X108672203Y-126010000D01*
X108672200Y-126010001D01*
X108505668Y-126065185D01*
X108505663Y-126065187D01*
X108356342Y-126157289D01*
X108232287Y-126281344D01*
X108226580Y-126290598D01*
X108174632Y-126337322D01*
X108121042Y-126349500D01*
X101550218Y-126349500D01*
X101483179Y-126329815D01*
X101444679Y-126290597D01*
X101438972Y-126281344D01*
X101392712Y-126206344D01*
X101268656Y-126082288D01*
X101175888Y-126025069D01*
X101119336Y-125990187D01*
X101119331Y-125990185D01*
X101117862Y-125989698D01*
X100952797Y-125935001D01*
X100952795Y-125935000D01*
X100850010Y-125924500D01*
X99449998Y-125924500D01*
X99449981Y-125924501D01*
X99347203Y-125935000D01*
X99347200Y-125935001D01*
X99180668Y-125990185D01*
X99180663Y-125990187D01*
X99031342Y-126082289D01*
X98907289Y-126206342D01*
X98890122Y-126234174D01*
X98863701Y-126277011D01*
X98855321Y-126290597D01*
X98803373Y-126337321D01*
X98749782Y-126349500D01*
X91374499Y-126349500D01*
X91307460Y-126329815D01*
X91261705Y-126277011D01*
X91250499Y-126225500D01*
X91250499Y-126102129D01*
X91250498Y-126102123D01*
X91250497Y-126102116D01*
X91244091Y-126042517D01*
X91231963Y-126010001D01*
X91193797Y-125907671D01*
X91193795Y-125907668D01*
X91193792Y-125907664D01*
X91107546Y-125792454D01*
X91107544Y-125792452D01*
X91107543Y-125792451D01*
X91049371Y-125748903D01*
X118500000Y-125748903D01*
X118500000Y-125950000D01*
X119750000Y-125950000D01*
X120250000Y-125950000D01*
X121500000Y-125950000D01*
X121500000Y-125748903D01*
X121497102Y-125706175D01*
X121451168Y-125521476D01*
X121366609Y-125350977D01*
X121366607Y-125350974D01*
X121247367Y-125202633D01*
X121247366Y-125202632D01*
X121099025Y-125083392D01*
X121099022Y-125083390D01*
X120928523Y-124998831D01*
X120743824Y-124952897D01*
X120701097Y-124950000D01*
X120250000Y-124950000D01*
X120250000Y-125950000D01*
X119750000Y-125950000D01*
X119750000Y-124950000D01*
X119298903Y-124950000D01*
X119256175Y-124952897D01*
X119071476Y-124998831D01*
X118900977Y-125083390D01*
X118900974Y-125083392D01*
X118752633Y-125202632D01*
X118752632Y-125202633D01*
X118633392Y-125350974D01*
X118633390Y-125350977D01*
X118548831Y-125521476D01*
X118502897Y-125706175D01*
X118500000Y-125748903D01*
X91049371Y-125748903D01*
X90992335Y-125706206D01*
X90992328Y-125706202D01*
X90857482Y-125655908D01*
X90857483Y-125655908D01*
X90797883Y-125649501D01*
X90797881Y-125649500D01*
X90797873Y-125649500D01*
X90797864Y-125649500D01*
X89002129Y-125649500D01*
X89002123Y-125649501D01*
X88942516Y-125655908D01*
X88807671Y-125706202D01*
X88807664Y-125706206D01*
X88692455Y-125792452D01*
X88692452Y-125792455D01*
X88606206Y-125907664D01*
X88606202Y-125907671D01*
X88555908Y-126042517D01*
X88549501Y-126102116D01*
X88549501Y-126102123D01*
X88549500Y-126102135D01*
X88549500Y-127897870D01*
X88549501Y-127897876D01*
X88555908Y-127957483D01*
X88606202Y-128092328D01*
X88606206Y-128092335D01*
X88692452Y-128207544D01*
X88692455Y-128207547D01*
X88807664Y-128293793D01*
X88807671Y-128293797D01*
X88852618Y-128310561D01*
X88942517Y-128344091D01*
X89002127Y-128350500D01*
X89012685Y-128350499D01*
X89079723Y-128370179D01*
X89100372Y-128386818D01*
X89770591Y-129057037D01*
X89707007Y-129074075D01*
X89592993Y-129139901D01*
X89499901Y-129232993D01*
X89434075Y-129347007D01*
X89417037Y-129410591D01*
X88784728Y-128778282D01*
X88784727Y-128778282D01*
X88745380Y-128832439D01*
X88648904Y-129021782D01*
X88583242Y-129223869D01*
X88583242Y-129223872D01*
X88550000Y-129433753D01*
X88550000Y-129646246D01*
X88583242Y-129856127D01*
X88583242Y-129856130D01*
X88648904Y-130058217D01*
X88745375Y-130247550D01*
X88784728Y-130301716D01*
X89417037Y-129669408D01*
X89434075Y-129732993D01*
X89499901Y-129847007D01*
X89592993Y-129940099D01*
X89707007Y-130005925D01*
X89770590Y-130022962D01*
X89138282Y-130655269D01*
X89138282Y-130655270D01*
X89192449Y-130694624D01*
X89381782Y-130791095D01*
X89583870Y-130856757D01*
X89793754Y-130890000D01*
X90006246Y-130890000D01*
X90216127Y-130856757D01*
X90216130Y-130856757D01*
X90418217Y-130791095D01*
X90607554Y-130694622D01*
X90661716Y-130655270D01*
X90661717Y-130655270D01*
X90331432Y-130324986D01*
X98750001Y-130324986D01*
X98760494Y-130427697D01*
X98815641Y-130594119D01*
X98815643Y-130594124D01*
X98907684Y-130743345D01*
X99031654Y-130867315D01*
X99180875Y-130959356D01*
X99180880Y-130959358D01*
X99347302Y-131014505D01*
X99347309Y-131014506D01*
X99450019Y-131024999D01*
X99899999Y-131024999D01*
X100400000Y-131024999D01*
X100849972Y-131024999D01*
X100849986Y-131024998D01*
X100952697Y-131014505D01*
X101119119Y-130959358D01*
X101119124Y-130959356D01*
X101268345Y-130867315D01*
X101392315Y-130743345D01*
X101484356Y-130594124D01*
X101484358Y-130594119D01*
X101539505Y-130427697D01*
X101539506Y-130427690D01*
X101549999Y-130324986D01*
X101550000Y-130324973D01*
X101550000Y-130200000D01*
X100400000Y-130200000D01*
X100400000Y-131024999D01*
X99899999Y-131024999D01*
X99900000Y-131024998D01*
X99900000Y-130200000D01*
X98750001Y-130200000D01*
X98750001Y-130324986D01*
X90331432Y-130324986D01*
X90029408Y-130022962D01*
X90092993Y-130005925D01*
X90207007Y-129940099D01*
X90300099Y-129847007D01*
X90365925Y-129732993D01*
X90382962Y-129669408D01*
X91015270Y-130301717D01*
X91015270Y-130301716D01*
X91054622Y-130247554D01*
X91133707Y-130092343D01*
X91133708Y-130092341D01*
X91151094Y-130058219D01*
X91216757Y-129856130D01*
X91216757Y-129856127D01*
X91250000Y-129646246D01*
X91250000Y-129575013D01*
X98750000Y-129575013D01*
X98750000Y-129700000D01*
X99900000Y-129700000D01*
X100400000Y-129700000D01*
X101549999Y-129700000D01*
X101549999Y-129575028D01*
X101549998Y-129575013D01*
X101539505Y-129472302D01*
X101484358Y-129305880D01*
X101484356Y-129305875D01*
X101419043Y-129199986D01*
X108075001Y-129199986D01*
X108085494Y-129302697D01*
X108140641Y-129469119D01*
X108140643Y-129469124D01*
X108232684Y-129618345D01*
X108356654Y-129742315D01*
X108505875Y-129834356D01*
X108505880Y-129834358D01*
X108672302Y-129889505D01*
X108672309Y-129889506D01*
X108775019Y-129899999D01*
X109049999Y-129899999D01*
X109550000Y-129899999D01*
X109824972Y-129899999D01*
X109824986Y-129899998D01*
X109927697Y-129889505D01*
X110094119Y-129834358D01*
X110094124Y-129834356D01*
X110243345Y-129742315D01*
X110367315Y-129618345D01*
X110459356Y-129469124D01*
X110459358Y-129469119D01*
X110514505Y-129302697D01*
X110514506Y-129302690D01*
X110524999Y-129199986D01*
X110525000Y-129199973D01*
X110525000Y-129150000D01*
X109550000Y-129150000D01*
X109550000Y-129899999D01*
X109049999Y-129899999D01*
X109050000Y-129899998D01*
X109050000Y-129150000D01*
X108075001Y-129150000D01*
X108075001Y-129199986D01*
X101419043Y-129199986D01*
X101396683Y-129163735D01*
X101396682Y-129163733D01*
X101392317Y-129156656D01*
X101268345Y-129032684D01*
X101119124Y-128940643D01*
X101119119Y-128940641D01*
X100952697Y-128885494D01*
X100952690Y-128885493D01*
X100849986Y-128875000D01*
X100400000Y-128875000D01*
X100400000Y-129700000D01*
X99900000Y-129700000D01*
X99900000Y-128875000D01*
X99450028Y-128875000D01*
X99450012Y-128875001D01*
X99347302Y-128885494D01*
X99180880Y-128940641D01*
X99180875Y-128940643D01*
X99031654Y-129032684D01*
X98907684Y-129156654D01*
X98815643Y-129305875D01*
X98815641Y-129305880D01*
X98760494Y-129472302D01*
X98760493Y-129472309D01*
X98750000Y-129575013D01*
X91250000Y-129575013D01*
X91250000Y-129433753D01*
X91216757Y-129223872D01*
X91216757Y-129223869D01*
X91151095Y-129021782D01*
X91054624Y-128832449D01*
X91015270Y-128778282D01*
X91015269Y-128778282D01*
X90382962Y-129410590D01*
X90365925Y-129347007D01*
X90300099Y-129232993D01*
X90207007Y-129139901D01*
X90092993Y-129074075D01*
X90029409Y-129057037D01*
X90699627Y-128386818D01*
X90760950Y-128353333D01*
X90787307Y-128350499D01*
X90797872Y-128350499D01*
X90857483Y-128344091D01*
X90992331Y-128293796D01*
X91107546Y-128207546D01*
X91193796Y-128092331D01*
X91244091Y-127957483D01*
X91250500Y-127897873D01*
X91250500Y-127774500D01*
X91270185Y-127707461D01*
X91322989Y-127661706D01*
X91374500Y-127650500D01*
X98749782Y-127650500D01*
X98816821Y-127670185D01*
X98855319Y-127709401D01*
X98907288Y-127793656D01*
X99031344Y-127917712D01*
X99180666Y-128009814D01*
X99347203Y-128064999D01*
X99449991Y-128075500D01*
X100850008Y-128075499D01*
X100952797Y-128064999D01*
X101119334Y-128009814D01*
X101268656Y-127917712D01*
X101392712Y-127793656D01*
X101444680Y-127709402D01*
X101496627Y-127662679D01*
X101550218Y-127650500D01*
X108121042Y-127650500D01*
X108188081Y-127670185D01*
X108226580Y-127709402D01*
X108232288Y-127718656D01*
X108356344Y-127842712D01*
X108359628Y-127844737D01*
X108359653Y-127844753D01*
X108361445Y-127846746D01*
X108362011Y-127847193D01*
X108361934Y-127847289D01*
X108406379Y-127896699D01*
X108417603Y-127965661D01*
X108389761Y-128029744D01*
X108359665Y-128055826D01*
X108356660Y-128057679D01*
X108356655Y-128057683D01*
X108232684Y-128181654D01*
X108140643Y-128330875D01*
X108140641Y-128330880D01*
X108085494Y-128497302D01*
X108085493Y-128497309D01*
X108075000Y-128600013D01*
X108075000Y-128650000D01*
X110524999Y-128650000D01*
X110524999Y-128600028D01*
X110524998Y-128600013D01*
X110514505Y-128497302D01*
X110459358Y-128330880D01*
X110459356Y-128330875D01*
X110367315Y-128181654D01*
X110243344Y-128057683D01*
X110243341Y-128057681D01*
X110240339Y-128055829D01*
X110238713Y-128054021D01*
X110237677Y-128053202D01*
X110237817Y-128053024D01*
X110193617Y-128003880D01*
X110182397Y-127934917D01*
X110210243Y-127870836D01*
X110240344Y-127844754D01*
X110243656Y-127842712D01*
X110367712Y-127718656D01*
X110373420Y-127709402D01*
X110425368Y-127662678D01*
X110478958Y-127650500D01*
X113979192Y-127650500D01*
X114046231Y-127670185D01*
X114066873Y-127686819D01*
X114113181Y-127733127D01*
X114146666Y-127794450D01*
X114149500Y-127820808D01*
X114149500Y-129064069D01*
X114149500Y-129064071D01*
X114149499Y-129064071D01*
X114174497Y-129189738D01*
X114174499Y-129189744D01*
X114223535Y-129308127D01*
X114284922Y-129400000D01*
X114294726Y-129414673D01*
X116185324Y-131305271D01*
X116185331Y-131305277D01*
X116291871Y-131376464D01*
X116291870Y-131376464D01*
X116326544Y-131390826D01*
X116410256Y-131425501D01*
X116410260Y-131425501D01*
X116410261Y-131425502D01*
X116535928Y-131450500D01*
X116535931Y-131450500D01*
X118457463Y-131450500D01*
X118524502Y-131470185D01*
X118568549Y-131519402D01*
X118632970Y-131649296D01*
X118632971Y-131649297D01*
X118752277Y-131797721D01*
X118752278Y-131797722D01*
X118900704Y-131917030D01*
X118900707Y-131917032D01*
X119071302Y-132001639D01*
X119071303Y-132001639D01*
X119071307Y-132001641D01*
X119085482Y-132005166D01*
X119145787Y-132040448D01*
X119177445Y-132102733D01*
X119170404Y-132172247D01*
X119126898Y-132226919D01*
X119060741Y-132249391D01*
X119055553Y-132249500D01*
X77379420Y-132249500D01*
X77312381Y-132229815D01*
X77266626Y-132177011D01*
X77256682Y-132107853D01*
X77285707Y-132044297D01*
X77342427Y-132007845D01*
X77342262Y-132007357D01*
X77344222Y-132006691D01*
X77344485Y-132006523D01*
X77345838Y-132006143D01*
X77346090Y-132006056D01*
X77346100Y-132006054D01*
X77570212Y-131913224D01*
X77780289Y-131791936D01*
X77972738Y-131644265D01*
X78144265Y-131472738D01*
X78291936Y-131280289D01*
X78413224Y-131070212D01*
X78506054Y-130846100D01*
X78568838Y-130611789D01*
X78600500Y-130371288D01*
X78600500Y-130128712D01*
X78593432Y-130075028D01*
X78584335Y-130005925D01*
X78568838Y-129888211D01*
X78506054Y-129653900D01*
X78491665Y-129619163D01*
X78432504Y-129476334D01*
X78432503Y-129476332D01*
X78413229Y-129429799D01*
X78413226Y-129429793D01*
X78413224Y-129429788D01*
X78291936Y-129219711D01*
X78219201Y-129124921D01*
X78144266Y-129027263D01*
X78144260Y-129027256D01*
X77972743Y-128855739D01*
X77972736Y-128855733D01*
X77780293Y-128708067D01*
X77780292Y-128708066D01*
X77780289Y-128708064D01*
X77570212Y-128586776D01*
X77541780Y-128574999D01*
X77346104Y-128493947D01*
X77111785Y-128431161D01*
X76871289Y-128399500D01*
X76871288Y-128399500D01*
X76628712Y-128399500D01*
X76628711Y-128399500D01*
X76388214Y-128431161D01*
X76153895Y-128493947D01*
X75929794Y-128586773D01*
X75929785Y-128586777D01*
X75769719Y-128679192D01*
X75724066Y-128705550D01*
X75719706Y-128708067D01*
X75527263Y-128855733D01*
X75527256Y-128855739D01*
X75355739Y-129027256D01*
X75355733Y-129027263D01*
X75208067Y-129219706D01*
X75086777Y-129429785D01*
X75086773Y-129429794D01*
X74993945Y-129653901D01*
X74992643Y-129657738D01*
X74991438Y-129657329D01*
X74957905Y-129712337D01*
X74895057Y-129742863D01*
X74825682Y-129734565D01*
X74771806Y-129690077D01*
X74750535Y-129623524D01*
X74750500Y-129620579D01*
X74750500Y-119631947D01*
X111500000Y-119631947D01*
X111500000Y-119868052D01*
X111536934Y-120101247D01*
X111609897Y-120325802D01*
X111717087Y-120536174D01*
X111777338Y-120619104D01*
X111777340Y-120619105D01*
X112476212Y-119920233D01*
X112487482Y-119962292D01*
X112559890Y-120087708D01*
X112662292Y-120190110D01*
X112787708Y-120262518D01*
X112829765Y-120273787D01*
X112130893Y-120972658D01*
X112213828Y-121032914D01*
X112424197Y-121140102D01*
X112648752Y-121213065D01*
X112648751Y-121213065D01*
X112881948Y-121250000D01*
X113118052Y-121250000D01*
X113351247Y-121213065D01*
X113575802Y-121140102D01*
X113786163Y-121032918D01*
X113786169Y-121032914D01*
X113869104Y-120972658D01*
X113869105Y-120972658D01*
X113170233Y-120273787D01*
X113212292Y-120262518D01*
X113337708Y-120190110D01*
X113440110Y-120087708D01*
X113512518Y-119962292D01*
X113523787Y-119920234D01*
X114222658Y-120619105D01*
X114222658Y-120619104D01*
X114282914Y-120536169D01*
X114282918Y-120536163D01*
X114390102Y-120325802D01*
X114463065Y-120101247D01*
X114500000Y-119868052D01*
X114500000Y-119631947D01*
X118000000Y-119631947D01*
X118000000Y-119868052D01*
X118036934Y-120101247D01*
X118109897Y-120325802D01*
X118217087Y-120536174D01*
X118277338Y-120619104D01*
X118277340Y-120619105D01*
X118976212Y-119920233D01*
X118987482Y-119962292D01*
X119059890Y-120087708D01*
X119162292Y-120190110D01*
X119287708Y-120262518D01*
X119329765Y-120273787D01*
X118630893Y-120972658D01*
X118713828Y-121032914D01*
X118924197Y-121140102D01*
X119148752Y-121213065D01*
X119148751Y-121213065D01*
X119381948Y-121250000D01*
X119618052Y-121250000D01*
X119851247Y-121213065D01*
X120075802Y-121140102D01*
X120286163Y-121032918D01*
X120286176Y-121032910D01*
X120309308Y-121016104D01*
X120309312Y-121016101D01*
X120369104Y-120972658D01*
X120369105Y-120972658D01*
X119670233Y-120273787D01*
X119712292Y-120262518D01*
X119837708Y-120190110D01*
X119940110Y-120087708D01*
X120012518Y-119962292D01*
X120023787Y-119920234D01*
X120722658Y-120619105D01*
X120722658Y-120619104D01*
X120782914Y-120536169D01*
X120782918Y-120536163D01*
X120890102Y-120325802D01*
X120963065Y-120101247D01*
X120979521Y-119997353D01*
X121000000Y-119868052D01*
X121000000Y-119631947D01*
X120963065Y-119398752D01*
X120890102Y-119174197D01*
X120782914Y-118963828D01*
X120722658Y-118880894D01*
X120722658Y-118880893D01*
X120023787Y-119579765D01*
X120012518Y-119537708D01*
X119940110Y-119412292D01*
X119837708Y-119309890D01*
X119712292Y-119237482D01*
X119670234Y-119226212D01*
X120369105Y-118527340D01*
X120369104Y-118527338D01*
X120286174Y-118467087D01*
X120075802Y-118359897D01*
X119851247Y-118286934D01*
X119851248Y-118286934D01*
X119618052Y-118250000D01*
X119381948Y-118250000D01*
X119148752Y-118286934D01*
X118924197Y-118359897D01*
X118713830Y-118467084D01*
X118630894Y-118527340D01*
X119329766Y-119226212D01*
X119287708Y-119237482D01*
X119162292Y-119309890D01*
X119059890Y-119412292D01*
X118987482Y-119537708D01*
X118976212Y-119579766D01*
X118277340Y-118880894D01*
X118217084Y-118963830D01*
X118109897Y-119174197D01*
X118036934Y-119398752D01*
X118000000Y-119631947D01*
X114500000Y-119631947D01*
X114463065Y-119398752D01*
X114390102Y-119174197D01*
X114282914Y-118963828D01*
X114222658Y-118880894D01*
X114222658Y-118880893D01*
X113523787Y-119579765D01*
X113512518Y-119537708D01*
X113440110Y-119412292D01*
X113337708Y-119309890D01*
X113212292Y-119237482D01*
X113170234Y-119226212D01*
X113869105Y-118527340D01*
X113869104Y-118527339D01*
X113786174Y-118467087D01*
X113575802Y-118359897D01*
X113351247Y-118286934D01*
X113351248Y-118286934D01*
X113118052Y-118250000D01*
X112881948Y-118250000D01*
X112648752Y-118286934D01*
X112424197Y-118359897D01*
X112213830Y-118467084D01*
X112130894Y-118527340D01*
X112829766Y-119226212D01*
X112787708Y-119237482D01*
X112662292Y-119309890D01*
X112559890Y-119412292D01*
X112487482Y-119537708D01*
X112476212Y-119579766D01*
X111777340Y-118880894D01*
X111717084Y-118963830D01*
X111609897Y-119174197D01*
X111536934Y-119398752D01*
X111500000Y-119631947D01*
X74750500Y-119631947D01*
X74750500Y-117511230D01*
X74770185Y-117444191D01*
X74822989Y-117398436D01*
X74892147Y-117388492D01*
X74955703Y-117417517D01*
X74962181Y-117423549D01*
X75031344Y-117492712D01*
X75180666Y-117584814D01*
X75347203Y-117639999D01*
X75449991Y-117650500D01*
X77550008Y-117650499D01*
X77652797Y-117639999D01*
X77819334Y-117584814D01*
X77968656Y-117492712D01*
X78092712Y-117368656D01*
X78184814Y-117219334D01*
X78239999Y-117052797D01*
X78244177Y-117011896D01*
X78270573Y-116947207D01*
X78327753Y-116907055D01*
X78367535Y-116900500D01*
X78632465Y-116900500D01*
X78699504Y-116920185D01*
X78745259Y-116972989D01*
X78755823Y-117011898D01*
X78760001Y-117052797D01*
X78760001Y-117052799D01*
X78775634Y-117099975D01*
X78815186Y-117219334D01*
X78907288Y-117368656D01*
X79031344Y-117492712D01*
X79180666Y-117584814D01*
X79347203Y-117639999D01*
X79449991Y-117650500D01*
X81550008Y-117650499D01*
X81652797Y-117639999D01*
X81819334Y-117584814D01*
X81968656Y-117492712D01*
X82092712Y-117368656D01*
X82184814Y-117219334D01*
X82239999Y-117052797D01*
X82244177Y-117011896D01*
X82270573Y-116947207D01*
X82327753Y-116907055D01*
X82367535Y-116900500D01*
X84951571Y-116900500D01*
X85036115Y-116883682D01*
X85077244Y-116875501D01*
X85195627Y-116826465D01*
X85302169Y-116755277D01*
X85755276Y-116302170D01*
X85826465Y-116195627D01*
X85875501Y-116077244D01*
X85887020Y-116019334D01*
X85900500Y-115951569D01*
X85900500Y-112052195D01*
X85920185Y-111985156D01*
X85972989Y-111939401D01*
X85989895Y-111933122D01*
X86097898Y-111901744D01*
X86209148Y-111835950D01*
X86239895Y-111817768D01*
X86303016Y-111800500D01*
X89551571Y-111800500D01*
X89636115Y-111783682D01*
X89677244Y-111775501D01*
X89795627Y-111726465D01*
X89902169Y-111655277D01*
X90192777Y-111364669D01*
X90263965Y-111258127D01*
X90291580Y-111191459D01*
X90313001Y-111139744D01*
X90323826Y-111085324D01*
X90338000Y-111014071D01*
X90338000Y-109524500D01*
X90357685Y-109457461D01*
X90410489Y-109411706D01*
X90462000Y-109400500D01*
X92025501Y-109400500D01*
X92092540Y-109420185D01*
X92138295Y-109472989D01*
X92149501Y-109524500D01*
X92149501Y-109647876D01*
X92155908Y-109707483D01*
X92206202Y-109842328D01*
X92206206Y-109842335D01*
X92292452Y-109957544D01*
X92292455Y-109957547D01*
X92407664Y-110043793D01*
X92407671Y-110043797D01*
X92539082Y-110092810D01*
X92595016Y-110134681D01*
X92619433Y-110200145D01*
X92604582Y-110268418D01*
X92583431Y-110296673D01*
X92469889Y-110410215D01*
X92344951Y-110582179D01*
X92248444Y-110771585D01*
X92182753Y-110973760D01*
X92149500Y-111183713D01*
X92149500Y-111396286D01*
X92175828Y-111562519D01*
X92182754Y-111606243D01*
X92245872Y-111800500D01*
X92248444Y-111808414D01*
X92344951Y-111997820D01*
X92469890Y-112169786D01*
X92620213Y-112320109D01*
X92792179Y-112445048D01*
X92792181Y-112445049D01*
X92792184Y-112445051D01*
X92981588Y-112541557D01*
X93183757Y-112607246D01*
X93393713Y-112640500D01*
X93393714Y-112640500D01*
X93606286Y-112640500D01*
X93606287Y-112640500D01*
X93816243Y-112607246D01*
X94018412Y-112541557D01*
X94207816Y-112445051D01*
X94236102Y-112424500D01*
X94379786Y-112320109D01*
X94379788Y-112320106D01*
X94379792Y-112320104D01*
X94530104Y-112169792D01*
X94530106Y-112169788D01*
X94530109Y-112169786D01*
X94655048Y-111997820D01*
X94655047Y-111997820D01*
X94655051Y-111997816D01*
X94751557Y-111808412D01*
X94817246Y-111606243D01*
X94850500Y-111396287D01*
X94850500Y-111183713D01*
X94817246Y-110973757D01*
X94751557Y-110771588D01*
X94655051Y-110582184D01*
X94655049Y-110582181D01*
X94655048Y-110582179D01*
X94530109Y-110410213D01*
X94416569Y-110296673D01*
X94383084Y-110235350D01*
X94388068Y-110165658D01*
X94429940Y-110109725D01*
X94460915Y-110092810D01*
X94592331Y-110043796D01*
X94707546Y-109957546D01*
X94793796Y-109842331D01*
X94844091Y-109707483D01*
X94850500Y-109647873D01*
X94850499Y-107852128D01*
X94844091Y-107792517D01*
X94793796Y-107657669D01*
X94793795Y-107657668D01*
X94793793Y-107657664D01*
X94707547Y-107542455D01*
X94707544Y-107542452D01*
X94592335Y-107456206D01*
X94592328Y-107456202D01*
X94457482Y-107405908D01*
X94457483Y-107405908D01*
X94397883Y-107399501D01*
X94397881Y-107399500D01*
X94397873Y-107399500D01*
X94397864Y-107399500D01*
X92602129Y-107399500D01*
X92602123Y-107399501D01*
X92542516Y-107405908D01*
X92407671Y-107456202D01*
X92407664Y-107456206D01*
X92292455Y-107542452D01*
X92292452Y-107542455D01*
X92206206Y-107657664D01*
X92206202Y-107657671D01*
X92155908Y-107792517D01*
X92149501Y-107852116D01*
X92149501Y-107852123D01*
X92149500Y-107852135D01*
X92149500Y-107975500D01*
X92129815Y-108042539D01*
X92077011Y-108088294D01*
X92025500Y-108099500D01*
X90073429Y-108099500D01*
X89947761Y-108124497D01*
X89947755Y-108124499D01*
X89829374Y-108173534D01*
X89722826Y-108244726D01*
X89722825Y-108244727D01*
X89182223Y-108785330D01*
X89165463Y-108810413D01*
X89148815Y-108835331D01*
X89111034Y-108891873D01*
X89061999Y-109010255D01*
X89061997Y-109010261D01*
X89037000Y-109135928D01*
X89037000Y-110375500D01*
X89017315Y-110442539D01*
X88964511Y-110488294D01*
X88913000Y-110499500D01*
X88459792Y-110499500D01*
X88392753Y-110479815D01*
X88368737Y-110459672D01*
X88359796Y-110450000D01*
X86219315Y-110450000D01*
X86156194Y-110432732D01*
X86152094Y-110430307D01*
X86097898Y-110398256D01*
X86097897Y-110398255D01*
X86097896Y-110398255D01*
X86097893Y-110398254D01*
X85940073Y-110352402D01*
X85940067Y-110352401D01*
X85903201Y-110349500D01*
X85903194Y-110349500D01*
X84596806Y-110349500D01*
X84596798Y-110349500D01*
X84559932Y-110352401D01*
X84559926Y-110352402D01*
X84402106Y-110398254D01*
X84402103Y-110398255D01*
X84260637Y-110481917D01*
X84260629Y-110481923D01*
X84144423Y-110598129D01*
X84144417Y-110598137D01*
X84060755Y-110739603D01*
X84060754Y-110739606D01*
X84014902Y-110897426D01*
X84014901Y-110897432D01*
X84012000Y-110934298D01*
X84012000Y-111365701D01*
X84014901Y-111402567D01*
X84014902Y-111402573D01*
X84060754Y-111560393D01*
X84060755Y-111560396D01*
X84060756Y-111560398D01*
X84070164Y-111576306D01*
X84144417Y-111701862D01*
X84144423Y-111701870D01*
X84260629Y-111818076D01*
X84260633Y-111818079D01*
X84260635Y-111818081D01*
X84402102Y-111901744D01*
X84510096Y-111933119D01*
X84568980Y-111970725D01*
X84598187Y-112034197D01*
X84599500Y-112052195D01*
X84599500Y-115475500D01*
X84579815Y-115542539D01*
X84527011Y-115588294D01*
X84475500Y-115599500D01*
X82367535Y-115599500D01*
X82300496Y-115579815D01*
X82254741Y-115527011D01*
X82244177Y-115488102D01*
X82243663Y-115483071D01*
X82239999Y-115447203D01*
X82184814Y-115280666D01*
X82092712Y-115131344D01*
X81968656Y-115007288D01*
X81819334Y-114915186D01*
X81652797Y-114860001D01*
X81652795Y-114860000D01*
X81550010Y-114849500D01*
X79449998Y-114849500D01*
X79449981Y-114849501D01*
X79347203Y-114860000D01*
X79347200Y-114860001D01*
X79180668Y-114915185D01*
X79180663Y-114915187D01*
X79031342Y-115007289D01*
X78907289Y-115131342D01*
X78815187Y-115280663D01*
X78815185Y-115280668D01*
X78787349Y-115364670D01*
X78760002Y-115447202D01*
X78760001Y-115447204D01*
X78760000Y-115447205D01*
X78755823Y-115488102D01*
X78729427Y-115552793D01*
X78672247Y-115592945D01*
X78632465Y-115599500D01*
X78367535Y-115599500D01*
X78300496Y-115579815D01*
X78254741Y-115527011D01*
X78244177Y-115488102D01*
X78243663Y-115483071D01*
X78239999Y-115447203D01*
X78184814Y-115280666D01*
X78092712Y-115131344D01*
X77968656Y-115007288D01*
X77819334Y-114915186D01*
X77652797Y-114860001D01*
X77652795Y-114860000D01*
X77550010Y-114849500D01*
X75449998Y-114849500D01*
X75449981Y-114849501D01*
X75347203Y-114860000D01*
X75347200Y-114860001D01*
X75180668Y-114915185D01*
X75180663Y-114915187D01*
X75031342Y-115007289D01*
X74962181Y-115076451D01*
X74900858Y-115109936D01*
X74831166Y-115104952D01*
X74775233Y-115063080D01*
X74750816Y-114997616D01*
X74750500Y-114988770D01*
X74750500Y-111387486D01*
X75050001Y-111387486D01*
X75060494Y-111490197D01*
X75115641Y-111656619D01*
X75115643Y-111656624D01*
X75207684Y-111805845D01*
X75331654Y-111929815D01*
X75480875Y-112021856D01*
X75480880Y-112021858D01*
X75647302Y-112077005D01*
X75647309Y-112077006D01*
X75750019Y-112087499D01*
X75999999Y-112087499D01*
X76500000Y-112087499D01*
X76749972Y-112087499D01*
X76749986Y-112087498D01*
X76852697Y-112077005D01*
X77019119Y-112021858D01*
X77019124Y-112021856D01*
X77168345Y-111929815D01*
X77292315Y-111805845D01*
X77384356Y-111656624D01*
X77384358Y-111656619D01*
X77439505Y-111490197D01*
X77439506Y-111490190D01*
X77449999Y-111387486D01*
X77450000Y-111387473D01*
X77450000Y-111325000D01*
X76500000Y-111325000D01*
X76500000Y-112087499D01*
X75999999Y-112087499D01*
X76000000Y-112087498D01*
X76000000Y-111325000D01*
X75050001Y-111325000D01*
X75050001Y-111387486D01*
X74750500Y-111387486D01*
X74750500Y-89381947D01*
X75000000Y-89381947D01*
X75000000Y-89618052D01*
X75036934Y-89851247D01*
X75109897Y-90075802D01*
X75217087Y-90286174D01*
X75277338Y-90369104D01*
X75277340Y-90369105D01*
X75976212Y-89670233D01*
X75987482Y-89712292D01*
X76059890Y-89837708D01*
X76162292Y-89940110D01*
X76287708Y-90012518D01*
X76329765Y-90023787D01*
X75630893Y-90722658D01*
X75713828Y-90782914D01*
X75924197Y-90890102D01*
X76148752Y-90963065D01*
X76148751Y-90963065D01*
X76381948Y-91000000D01*
X76618052Y-91000000D01*
X76851247Y-90963065D01*
X77075802Y-90890102D01*
X77286163Y-90782918D01*
X77286169Y-90782914D01*
X77369104Y-90722658D01*
X77369105Y-90722658D01*
X76670233Y-90023787D01*
X76712292Y-90012518D01*
X76837708Y-89940110D01*
X76940110Y-89837708D01*
X77012518Y-89712292D01*
X77023787Y-89670234D01*
X77722658Y-90369105D01*
X77722658Y-90369104D01*
X77782914Y-90286169D01*
X77782918Y-90286163D01*
X77890102Y-90075802D01*
X77963065Y-89851247D01*
X78000000Y-89618052D01*
X78000000Y-89381947D01*
X81500000Y-89381947D01*
X81500000Y-89618052D01*
X81536934Y-89851247D01*
X81609897Y-90075802D01*
X81717087Y-90286174D01*
X81777338Y-90369104D01*
X81777340Y-90369105D01*
X82476212Y-89670233D01*
X82487482Y-89712292D01*
X82559890Y-89837708D01*
X82662292Y-89940110D01*
X82787708Y-90012518D01*
X82829765Y-90023787D01*
X82130893Y-90722658D01*
X82213828Y-90782914D01*
X82424197Y-90890102D01*
X82648752Y-90963065D01*
X82648751Y-90963065D01*
X82881948Y-91000000D01*
X83118052Y-91000000D01*
X83351247Y-90963065D01*
X83575802Y-90890102D01*
X83786163Y-90782918D01*
X83786169Y-90782914D01*
X83869104Y-90722658D01*
X83869105Y-90722658D01*
X83170233Y-90023787D01*
X83212292Y-90012518D01*
X83337708Y-89940110D01*
X83440110Y-89837708D01*
X83512518Y-89712292D01*
X83523787Y-89670234D01*
X84222658Y-90369105D01*
X84222658Y-90369104D01*
X84282914Y-90286169D01*
X84282918Y-90286163D01*
X84390102Y-90075802D01*
X84463065Y-89851247D01*
X84500000Y-89618052D01*
X84500000Y-89381947D01*
X84463065Y-89148752D01*
X84390102Y-88924197D01*
X84282914Y-88713828D01*
X84222658Y-88630894D01*
X84222658Y-88630893D01*
X83523787Y-89329765D01*
X83512518Y-89287708D01*
X83440110Y-89162292D01*
X83337708Y-89059890D01*
X83212292Y-88987482D01*
X83170234Y-88976212D01*
X83869105Y-88277340D01*
X83869104Y-88277338D01*
X83786174Y-88217087D01*
X83575802Y-88109897D01*
X83351247Y-88036934D01*
X83351248Y-88036934D01*
X83118052Y-88000000D01*
X82881948Y-88000000D01*
X82648752Y-88036934D01*
X82424197Y-88109897D01*
X82213830Y-88217084D01*
X82130894Y-88277340D01*
X82829766Y-88976212D01*
X82787708Y-88987482D01*
X82662292Y-89059890D01*
X82559890Y-89162292D01*
X82487482Y-89287708D01*
X82476212Y-89329766D01*
X81777340Y-88630894D01*
X81717084Y-88713830D01*
X81609897Y-88924197D01*
X81536934Y-89148752D01*
X81500000Y-89381947D01*
X78000000Y-89381947D01*
X77963065Y-89148752D01*
X77890102Y-88924197D01*
X77782914Y-88713828D01*
X77722658Y-88630894D01*
X77722658Y-88630893D01*
X77023787Y-89329765D01*
X77012518Y-89287708D01*
X76940110Y-89162292D01*
X76837708Y-89059890D01*
X76712292Y-88987482D01*
X76670234Y-88976212D01*
X77369105Y-88277340D01*
X77369104Y-88277339D01*
X77286174Y-88217087D01*
X77075802Y-88109897D01*
X76851247Y-88036934D01*
X76851248Y-88036934D01*
X76618052Y-88000000D01*
X76381948Y-88000000D01*
X76148752Y-88036934D01*
X75924197Y-88109897D01*
X75713830Y-88217084D01*
X75630894Y-88277340D01*
X76329766Y-88976212D01*
X76287708Y-88987482D01*
X76162292Y-89059890D01*
X76059890Y-89162292D01*
X75987482Y-89287708D01*
X75976212Y-89329766D01*
X75277340Y-88630894D01*
X75217084Y-88713830D01*
X75109897Y-88924197D01*
X75036934Y-89148752D01*
X75000000Y-89381947D01*
X74750500Y-89381947D01*
X74750500Y-71416866D01*
X74770185Y-71349827D01*
X74822989Y-71304072D01*
X74892147Y-71294128D01*
X74955703Y-71323153D01*
X74962181Y-71329185D01*
X75027256Y-71394260D01*
X75027262Y-71394265D01*
X75219711Y-71541936D01*
X75429788Y-71663224D01*
X75653900Y-71756054D01*
X75888211Y-71818838D01*
X76068586Y-71842584D01*
X76128711Y-71850500D01*
X76128712Y-71850500D01*
X76371289Y-71850500D01*
X76419388Y-71844167D01*
X76611789Y-71818838D01*
X76846100Y-71756054D01*
X77070212Y-71663224D01*
X77280289Y-71541936D01*
X77472738Y-71394265D01*
X77644265Y-71222738D01*
X77791936Y-71030289D01*
X77913224Y-70820212D01*
X78006054Y-70596100D01*
X78068838Y-70361789D01*
X78100500Y-70121288D01*
X78100500Y-69878712D01*
X78068838Y-69638211D01*
X78006054Y-69403900D01*
X77913224Y-69179788D01*
X77791936Y-68969711D01*
X77644265Y-68777262D01*
X77644260Y-68777256D01*
X77472743Y-68605739D01*
X77472736Y-68605733D01*
X77299593Y-68472876D01*
X77258390Y-68416448D01*
X77254235Y-68346702D01*
X77288447Y-68285782D01*
X77350164Y-68253029D01*
X77375079Y-68250500D01*
X92126000Y-68250500D01*
X92193039Y-68270185D01*
G37*
%TD.AperFunction*%
%TA.AperFunction,Conductor*%
G36*
X128496231Y-97920185D02*
G01*
X128516873Y-97936819D01*
X129365325Y-98785272D01*
X129365332Y-98785278D01*
X129456074Y-98845909D01*
X129466630Y-98852961D01*
X129471873Y-98856465D01*
X129590256Y-98905501D01*
X129590260Y-98905501D01*
X129590261Y-98905502D01*
X129715928Y-98930500D01*
X129715931Y-98930500D01*
X134634273Y-98930500D01*
X134701312Y-98950185D01*
X134747067Y-99002989D01*
X134757011Y-99072147D01*
X134750172Y-99097068D01*
X134750411Y-99097146D01*
X134683242Y-99303869D01*
X134683242Y-99303872D01*
X134650000Y-99513753D01*
X134650000Y-99726246D01*
X134683242Y-99936127D01*
X134683242Y-99936130D01*
X134748904Y-100138217D01*
X134845375Y-100327550D01*
X134884728Y-100381716D01*
X135517036Y-99749407D01*
X135534075Y-99812993D01*
X135599901Y-99927007D01*
X135692993Y-100020099D01*
X135807007Y-100085925D01*
X135870590Y-100102962D01*
X135238282Y-100735269D01*
X135238282Y-100735270D01*
X135292449Y-100774624D01*
X135481782Y-100871095D01*
X135683870Y-100936757D01*
X135893754Y-100970000D01*
X136106246Y-100970000D01*
X136316127Y-100936757D01*
X136316130Y-100936757D01*
X136518217Y-100871095D01*
X136707554Y-100774622D01*
X136761716Y-100735270D01*
X136761717Y-100735270D01*
X136129408Y-100102962D01*
X136192993Y-100085925D01*
X136307007Y-100020099D01*
X136400099Y-99927007D01*
X136465925Y-99812993D01*
X136482962Y-99749409D01*
X137115270Y-100381717D01*
X137115270Y-100381716D01*
X137154622Y-100327554D01*
X137251095Y-100138217D01*
X137316757Y-99936130D01*
X137316757Y-99936127D01*
X137350000Y-99726246D01*
X137350000Y-99513753D01*
X137316757Y-99303872D01*
X137316757Y-99303869D01*
X137249589Y-99097146D01*
X137250615Y-99096812D01*
X137243696Y-99032490D01*
X137274967Y-98970009D01*
X137335054Y-98934353D01*
X137365727Y-98930500D01*
X149107202Y-98930500D01*
X149174241Y-98950185D01*
X149204470Y-98977592D01*
X149207287Y-98981155D01*
X149300951Y-99074819D01*
X149334436Y-99136142D01*
X149329452Y-99205834D01*
X149300951Y-99250181D01*
X149207289Y-99343842D01*
X149115187Y-99493163D01*
X149115185Y-99493168D01*
X149112125Y-99502402D01*
X149060001Y-99659703D01*
X149060001Y-99659704D01*
X149060000Y-99659704D01*
X149049500Y-99762483D01*
X149049500Y-100387501D01*
X149049501Y-100387519D01*
X149060000Y-100490296D01*
X149060001Y-100490299D01*
X149089816Y-100580273D01*
X149115186Y-100656834D01*
X149207288Y-100806156D01*
X149331344Y-100930212D01*
X149480666Y-101022314D01*
X149514500Y-101033525D01*
X149571947Y-101073296D01*
X149598772Y-101137811D01*
X149599500Y-101151232D01*
X149599500Y-111125500D01*
X149579815Y-111192539D01*
X149527011Y-111238294D01*
X149475500Y-111249500D01*
X149077129Y-111249500D01*
X149077123Y-111249501D01*
X149017516Y-111255908D01*
X148882671Y-111306202D01*
X148882664Y-111306206D01*
X148767455Y-111392452D01*
X148767452Y-111392455D01*
X148681206Y-111507664D01*
X148681202Y-111507671D01*
X148630908Y-111642517D01*
X148624501Y-111702116D01*
X148624501Y-111702123D01*
X148624500Y-111702135D01*
X148624500Y-113297870D01*
X148624501Y-113297876D01*
X148630908Y-113357483D01*
X148681202Y-113492328D01*
X148681206Y-113492335D01*
X148767452Y-113607544D01*
X148767455Y-113607547D01*
X148882664Y-113693793D01*
X148882671Y-113693797D01*
X149017517Y-113744091D01*
X149017516Y-113744091D01*
X149024444Y-113744835D01*
X149077127Y-113750500D01*
X149140733Y-113750499D01*
X149207770Y-113770183D01*
X149253526Y-113822986D01*
X149263470Y-113892144D01*
X149234446Y-113955700D01*
X149213619Y-113974816D01*
X149060354Y-114086171D01*
X148921174Y-114225351D01*
X148921169Y-114225357D01*
X148866247Y-114300951D01*
X148844166Y-114331344D01*
X148839050Y-114338385D01*
X148783720Y-114381051D01*
X148738732Y-114389500D01*
X141899500Y-114389500D01*
X141832461Y-114369815D01*
X141786706Y-114317011D01*
X141775500Y-114265500D01*
X141775500Y-111435928D01*
X141750502Y-111310261D01*
X141750501Y-111310260D01*
X141750501Y-111310256D01*
X141701465Y-111191873D01*
X141666633Y-111139743D01*
X141666633Y-111139742D01*
X141630277Y-111085331D01*
X141630271Y-111085324D01*
X141289673Y-110744726D01*
X141286532Y-110742627D01*
X141183127Y-110673535D01*
X141064744Y-110624499D01*
X141064738Y-110624497D01*
X140939071Y-110599500D01*
X140939069Y-110599500D01*
X136036668Y-110599500D01*
X135969629Y-110579815D01*
X135931130Y-110540597D01*
X135917714Y-110518847D01*
X135917711Y-110518843D01*
X135793657Y-110394789D01*
X135793656Y-110394788D01*
X135644334Y-110302686D01*
X135644328Y-110302684D01*
X135610494Y-110291472D01*
X135553050Y-110251699D01*
X135526228Y-110187183D01*
X135525500Y-110173767D01*
X135525500Y-106685928D01*
X135500502Y-106560261D01*
X135500501Y-106560260D01*
X135500501Y-106560256D01*
X135451465Y-106441873D01*
X135449480Y-106438902D01*
X135447497Y-106435933D01*
X135380276Y-106335329D01*
X134679673Y-105634726D01*
X134679669Y-105634723D01*
X134573127Y-105563535D01*
X134536421Y-105548331D01*
X134454744Y-105514499D01*
X134454738Y-105514497D01*
X134329071Y-105489500D01*
X134329069Y-105489500D01*
X127374500Y-105489500D01*
X127307461Y-105469815D01*
X127261706Y-105417011D01*
X127250500Y-105365500D01*
X127250499Y-104372129D01*
X127250498Y-104372123D01*
X127250497Y-104372116D01*
X127244091Y-104312517D01*
X127231340Y-104278332D01*
X127226357Y-104208642D01*
X127231340Y-104191669D01*
X127244091Y-104157483D01*
X127250500Y-104097873D01*
X127250499Y-103102128D01*
X127244091Y-103042517D01*
X127231340Y-103008332D01*
X127226357Y-102938642D01*
X127231340Y-102921669D01*
X127244091Y-102887483D01*
X127250500Y-102827873D01*
X127250499Y-101832128D01*
X127244091Y-101772517D01*
X127231340Y-101738332D01*
X127226357Y-101668642D01*
X127231340Y-101651669D01*
X127244091Y-101617483D01*
X127250500Y-101557873D01*
X127250499Y-100562128D01*
X127244091Y-100502517D01*
X127231340Y-100468332D01*
X127226357Y-100398642D01*
X127231340Y-100381669D01*
X127244091Y-100347483D01*
X127250500Y-100287873D01*
X127250499Y-99292128D01*
X127244091Y-99232517D01*
X127231340Y-99198332D01*
X127226357Y-99128642D01*
X127231340Y-99111669D01*
X127244091Y-99077483D01*
X127250500Y-99017873D01*
X127250499Y-98024499D01*
X127270183Y-97957461D01*
X127322987Y-97911706D01*
X127374499Y-97900500D01*
X128429192Y-97900500D01*
X128496231Y-97920185D01*
G37*
%TD.AperFunction*%
%TA.AperFunction,Conductor*%
G36*
X99900109Y-91170185D02*
G01*
X99945864Y-91222989D01*
X99956428Y-91287103D01*
X99950000Y-91350013D01*
X99950000Y-91800000D01*
X102099999Y-91800000D01*
X102099999Y-91350028D01*
X102099998Y-91350010D01*
X102093572Y-91287101D01*
X102106342Y-91218408D01*
X102154223Y-91167524D01*
X102216930Y-91150500D01*
X102782567Y-91150500D01*
X102849606Y-91170185D01*
X102895361Y-91222989D01*
X102905925Y-91287101D01*
X102904405Y-91301969D01*
X102899500Y-91349983D01*
X102899500Y-92750001D01*
X102899501Y-92750018D01*
X102910000Y-92852796D01*
X102910001Y-92852799D01*
X102965185Y-93019331D01*
X102965187Y-93019336D01*
X103000069Y-93075888D01*
X103057288Y-93168656D01*
X103181344Y-93292712D01*
X103330666Y-93384814D01*
X103497203Y-93439999D01*
X103599991Y-93450500D01*
X104350008Y-93450499D01*
X104350016Y-93450498D01*
X104350019Y-93450498D01*
X104406302Y-93444748D01*
X104452797Y-93439999D01*
X104619334Y-93384814D01*
X104768656Y-93292712D01*
X104892712Y-93168656D01*
X104984814Y-93019334D01*
X105039999Y-92852797D01*
X105044177Y-92811896D01*
X105070573Y-92747207D01*
X105127753Y-92707055D01*
X105167535Y-92700500D01*
X105837098Y-92700500D01*
X105904137Y-92720185D01*
X105949892Y-92772989D01*
X105959836Y-92842147D01*
X105930811Y-92905703D01*
X105905990Y-92927602D01*
X105895327Y-92934726D01*
X105494727Y-93335325D01*
X105494721Y-93335332D01*
X105435787Y-93423534D01*
X105435788Y-93423535D01*
X105423534Y-93441874D01*
X105374499Y-93560255D01*
X105374497Y-93560261D01*
X105349500Y-93685928D01*
X105349500Y-94525500D01*
X105329815Y-94592539D01*
X105277011Y-94638294D01*
X105225500Y-94649500D01*
X97576233Y-94649500D01*
X97509194Y-94629815D01*
X97463439Y-94577011D01*
X97458528Y-94564506D01*
X97453995Y-94550829D01*
X97447314Y-94530666D01*
X97355212Y-94381344D01*
X97231156Y-94257288D01*
X97125174Y-94191918D01*
X97081836Y-94165187D01*
X97081831Y-94165185D01*
X97067080Y-94160297D01*
X96915297Y-94110001D01*
X96915295Y-94110000D01*
X96812510Y-94099500D01*
X96187498Y-94099500D01*
X96187480Y-94099501D01*
X96084703Y-94110000D01*
X96084700Y-94110001D01*
X95918168Y-94165185D01*
X95918163Y-94165187D01*
X95768842Y-94257289D01*
X95675181Y-94350951D01*
X95613858Y-94384436D01*
X95544166Y-94379452D01*
X95499819Y-94350951D01*
X95406156Y-94257288D01*
X95384400Y-94243868D01*
X95337677Y-94191918D01*
X95325500Y-94138331D01*
X95325500Y-92749986D01*
X99950001Y-92749986D01*
X99960494Y-92852697D01*
X100015641Y-93019119D01*
X100015643Y-93019124D01*
X100107684Y-93168345D01*
X100231654Y-93292315D01*
X100380875Y-93384356D01*
X100380880Y-93384358D01*
X100547302Y-93439505D01*
X100547309Y-93439506D01*
X100650019Y-93449999D01*
X100774999Y-93449999D01*
X101275000Y-93449999D01*
X101399972Y-93449999D01*
X101399986Y-93449998D01*
X101502697Y-93439505D01*
X101669119Y-93384358D01*
X101669124Y-93384356D01*
X101818345Y-93292315D01*
X101942315Y-93168345D01*
X102034356Y-93019124D01*
X102034358Y-93019119D01*
X102089505Y-92852697D01*
X102089506Y-92852690D01*
X102099999Y-92749986D01*
X102100000Y-92749973D01*
X102100000Y-92300000D01*
X101275000Y-92300000D01*
X101275000Y-93449999D01*
X100774999Y-93449999D01*
X100775000Y-93449998D01*
X100775000Y-92300000D01*
X99950001Y-92300000D01*
X99950001Y-92749986D01*
X95325500Y-92749986D01*
X95325500Y-91274500D01*
X95345185Y-91207461D01*
X95397989Y-91161706D01*
X95449500Y-91150500D01*
X99833070Y-91150500D01*
X99900109Y-91170185D01*
G37*
%TD.AperFunction*%
%TA.AperFunction,Conductor*%
G36*
X121837935Y-89524459D02*
G01*
X121885222Y-89575895D01*
X121897195Y-89644731D01*
X121870051Y-89709113D01*
X121861672Y-89718381D01*
X120096873Y-91483181D01*
X120035550Y-91516666D01*
X120009192Y-91519500D01*
X109874000Y-91519500D01*
X109806961Y-91499815D01*
X109761206Y-91447011D01*
X109750000Y-91395500D01*
X109750000Y-91150000D01*
X107250000Y-91150000D01*
X107250000Y-91275500D01*
X107230315Y-91342539D01*
X107177511Y-91388294D01*
X107126000Y-91399500D01*
X105167535Y-91399500D01*
X105100496Y-91379815D01*
X105054741Y-91327011D01*
X105044177Y-91288102D01*
X105042961Y-91276204D01*
X105039999Y-91247203D01*
X104984814Y-91080666D01*
X104892712Y-90931344D01*
X104768656Y-90807288D01*
X104683872Y-90754993D01*
X104637147Y-90703045D01*
X104627030Y-90666838D01*
X104626689Y-90666906D01*
X104625798Y-90662427D01*
X104625565Y-90661593D01*
X104625499Y-90660925D01*
X104600502Y-90535261D01*
X104600501Y-90535260D01*
X104600501Y-90535256D01*
X104551465Y-90416873D01*
X104551465Y-90416872D01*
X104538323Y-90397205D01*
X104538321Y-90397201D01*
X104480278Y-90310332D01*
X104480272Y-90310325D01*
X104164674Y-89994727D01*
X104164670Y-89994724D01*
X104164669Y-89994723D01*
X104138295Y-89977100D01*
X104093492Y-89923491D01*
X104084783Y-89854166D01*
X104114937Y-89791139D01*
X104174380Y-89754419D01*
X104207187Y-89750000D01*
X107508722Y-89750000D01*
X107575761Y-89769685D01*
X107621516Y-89822489D01*
X107631460Y-89891647D01*
X107602435Y-89955203D01*
X107552055Y-89990182D01*
X107507913Y-90006645D01*
X107507906Y-90006649D01*
X107392812Y-90092809D01*
X107392809Y-90092812D01*
X107306649Y-90207906D01*
X107306645Y-90207913D01*
X107256403Y-90342620D01*
X107256401Y-90342627D01*
X107250000Y-90402155D01*
X107250000Y-90650000D01*
X109750000Y-90650000D01*
X109750000Y-90402172D01*
X109749999Y-90402155D01*
X109743598Y-90342627D01*
X109743596Y-90342620D01*
X109693354Y-90207913D01*
X109693350Y-90207906D01*
X109607190Y-90092812D01*
X109607187Y-90092809D01*
X109492093Y-90006649D01*
X109492086Y-90006645D01*
X109447945Y-89990182D01*
X109392011Y-89948311D01*
X109367594Y-89882847D01*
X109382445Y-89814574D01*
X109431851Y-89765168D01*
X109491278Y-89750000D01*
X113500014Y-89750000D01*
X117118284Y-89643579D01*
X121770347Y-89506754D01*
X121837935Y-89524459D01*
G37*
%TD.AperFunction*%
%TD*%
M02*
